<mxfile host="Electron" modified="2023-12-15T08:14:54.516Z" agent="Mozilla/5.0 (Windows NT 10.0; Win64; x64) AppleWebKit/537.36 (KHTML, like Gecko) draw.io/21.2.8 Chrome/112.0.5615.165 Electron/24.2.0 Safari/537.36" etag="_ftMuvqsBany5UdYIoXF" version="21.2.8" type="device">
  <diagram name="Page-1" id="wdU2vlvLfLhHSGHgqa0V">
    <mxGraphModel dx="5191" dy="1093" grid="1" gridSize="10" guides="1" tooltips="1" connect="1" arrows="1" fold="1" page="1" pageScale="1" pageWidth="3300" pageHeight="4681" math="0" shadow="0">
      <root>
        <mxCell id="0" />
        <mxCell id="1" parent="0" />
        <mxCell id="XACayWHpFkQcB1ReZ_Kd-15" value="" style="rounded=0;whiteSpace=wrap;html=1;fillColor=#1e1e1e;" vertex="1" parent="1">
          <mxGeometry x="1050" y="3370" width="1630" height="880" as="geometry" />
        </mxCell>
        <mxCell id="XACayWHpFkQcB1ReZ_Kd-13" value="" style="rounded=0;whiteSpace=wrap;html=1;fillColor=#1e1e1e;" vertex="1" parent="1">
          <mxGeometry x="200" y="2680" width="920" height="470" as="geometry" />
        </mxCell>
        <mxCell id="uinDh51fRpMenqYTs6G2-5" value="" style="rounded=0;whiteSpace=wrap;html=1;fillColor=#1e1e1e;" parent="1" vertex="1">
          <mxGeometry x="2120" y="1460" width="880" height="610" as="geometry" />
        </mxCell>
        <mxCell id="eCz0pDOJpor3ejvm-4k_-3" value="" style="rounded=0;whiteSpace=wrap;html=1;fillColor=#1e1e1e;" parent="1" vertex="1">
          <mxGeometry x="2230" y="230" width="710" height="610" as="geometry" />
        </mxCell>
        <mxCell id="08-NsosBbDU-mmR43x8U-6" value="&lt;font style=&quot;font-size: 18px;&quot; color=&quot;#ffffcc&quot;&gt;CMakeLists.txt&lt;/font&gt;" style="text;html=1;strokeColor=none;fillColor=none;align=center;verticalAlign=middle;whiteSpace=wrap;rounded=0;" parent="1" vertex="1">
          <mxGeometry x="700" y="140" width="150" height="30" as="geometry" />
        </mxCell>
        <mxCell id="08-NsosBbDU-mmR43x8U-7" value="" style="rounded=0;whiteSpace=wrap;html=1;fillColor=#1e1e1e;" parent="1" vertex="1">
          <mxGeometry x="420" y="180" width="920" height="360" as="geometry" />
        </mxCell>
        <mxCell id="08-NsosBbDU-mmR43x8U-31" value="&lt;span style=&quot;font-size: 70px;&quot;&gt;Testing the main function&lt;/span&gt;" style="text;html=1;strokeColor=none;fillColor=none;align=center;verticalAlign=middle;whiteSpace=wrap;rounded=0;" parent="1" vertex="1">
          <mxGeometry x="-670" y="77.5" width="800" height="382.5" as="geometry" />
        </mxCell>
        <mxCell id="MFZtFx-qUxBc-n4n6ePM-2" value="&lt;font style=&quot;font-size: 33px;&quot;&gt;Getting the dependencies&lt;/font&gt;" style="rounded=0;whiteSpace=wrap;html=1;" parent="1" vertex="1">
          <mxGeometry x="640" y="110" width="510" height="60" as="geometry" />
        </mxCell>
        <mxCell id="MFZtFx-qUxBc-n4n6ePM-10" value="&lt;font style=&quot;font-size: 33px;&quot;&gt;Test Files&lt;/font&gt;" style="rounded=0;whiteSpace=wrap;html=1;" parent="1" vertex="1">
          <mxGeometry x="2250" y="140" width="620" height="60" as="geometry" />
        </mxCell>
        <mxCell id="uinDh51fRpMenqYTs6G2-7" value="&lt;font style=&quot;font-size: 33px;&quot;&gt;The root CMakeLists.txt&lt;/font&gt;" style="rounded=0;whiteSpace=wrap;html=1;" parent="1" vertex="1">
          <mxGeometry x="2230" y="1374" width="620" height="60" as="geometry" />
        </mxCell>
        <mxCell id="KpCNFlwLWU9gzN0KZ0Ix-2" value="&lt;div style=&quot;color: rgb(212, 212, 212); background-color: rgb(30, 30, 30); font-family: Consolas, &amp;quot;Courier New&amp;quot;, monospace; font-weight: normal; font-size: 24px; line-height: 32px;&quot;&gt;&lt;div&gt;&lt;span style=&quot;color: #569cd6;&quot;&gt;include&lt;/span&gt;&lt;span style=&quot;color: #d4d4d4;&quot;&gt;(FetchContent)&lt;/span&gt;&lt;/div&gt;&lt;div&gt;&lt;span style=&quot;color: #d4d4d4;&quot;&gt;FetchContent_Declare(&lt;/span&gt;&lt;/div&gt;&lt;div&gt;&lt;span style=&quot;color: #d4d4d4;&quot;&gt;&amp;nbsp; Catch2 &lt;/span&gt;&lt;/div&gt;&lt;div&gt;&lt;span style=&quot;color: #d4d4d4;&quot;&gt;&amp;nbsp; GIT_REPOSITORY https://github.com/catchorg/Catch2.git&lt;/span&gt;&lt;/div&gt;&lt;div&gt;&lt;span style=&quot;color: #d4d4d4;&quot;&gt;&amp;nbsp; GIT_TAG v3.4.0&lt;/span&gt;&lt;/div&gt;&lt;div&gt;&lt;span style=&quot;color: #d4d4d4;&quot;&gt;)&lt;/span&gt;&lt;/div&gt;&lt;br&gt;&lt;div&gt;&lt;span style=&quot;color: #d4d4d4;&quot;&gt;FetchContent_MakeAvailable(Catch2)&lt;/span&gt;&lt;/div&gt;&lt;div&gt;&lt;span style=&quot;color: #569cd6;&quot;&gt;list&lt;/span&gt;&lt;span style=&quot;color: #d4d4d4;&quot;&gt;(APPEND CMAKE_MODULE_PATH &lt;/span&gt;&lt;span style=&quot;color: #569cd6;&quot;&gt;${catch2_SOURCE_DIR}&lt;/span&gt;&lt;span style=&quot;color: #d4d4d4;&quot;&gt;/extras)&lt;/span&gt;&lt;/div&gt;&lt;/div&gt;" style="text;whiteSpace=wrap;html=1;" parent="1" vertex="1">
          <mxGeometry x="510" y="200" width="770" height="310" as="geometry" />
        </mxCell>
        <mxCell id="KpCNFlwLWU9gzN0KZ0Ix-3" value="&lt;div style=&quot;color: rgb(212, 212, 212); background-color: rgb(30, 30, 30); font-family: Consolas, &amp;quot;Courier New&amp;quot;, monospace; font-weight: normal; font-size: 24px; line-height: 32px;&quot;&gt;&lt;div&gt;&lt;span style=&quot;color: #569cd6;&quot;&gt;#include &lt;/span&gt;&lt;span style=&quot;color: #ce9178;&quot;&gt;&amp;lt;catch2/catch_test_macros.hpp&amp;gt;&lt;/span&gt;&lt;/div&gt;&lt;div&gt;&lt;span style=&quot;color: #569cd6;&quot;&gt;#include &lt;/span&gt;&lt;span style=&quot;color: #ce9178;&quot;&gt;&quot;calculator.h&quot;&lt;/span&gt;&lt;/div&gt;&lt;br&gt;&lt;div&gt;&lt;span style=&quot;color: #569cd6;&quot;&gt;TEST_CASE&lt;/span&gt;&lt;span style=&quot;color: #d4d4d4;&quot;&gt;(&lt;/span&gt;&lt;span style=&quot;color: #ce9178;&quot;&gt;&quot;CalculatorTest - Add&quot;&lt;/span&gt;&lt;span style=&quot;color: #d4d4d4;&quot;&gt;, &lt;/span&gt;&lt;span style=&quot;color: #ce9178;&quot;&gt;&quot;[Calculator]&quot;&lt;/span&gt;&lt;span style=&quot;color: #d4d4d4;&quot;&gt;) {&lt;/span&gt;&lt;/div&gt;&lt;div&gt;&lt;span style=&quot;color: #d4d4d4;&quot;&gt;&amp;nbsp; &amp;nbsp; Calculator calc;&lt;/span&gt;&lt;/div&gt;&lt;div&gt;&lt;span style=&quot;color: #d4d4d4;&quot;&gt;&amp;nbsp; &amp;nbsp; &lt;/span&gt;&lt;span style=&quot;color: #569cd6;&quot;&gt;REQUIRE&lt;/span&gt;&lt;span style=&quot;color: #d4d4d4;&quot;&gt;(calc.add(&lt;/span&gt;&lt;span style=&quot;color: #b5cea8;&quot;&gt;2&lt;/span&gt;&lt;span style=&quot;color: #d4d4d4;&quot;&gt;, &lt;/span&gt;&lt;span style=&quot;color: #b5cea8;&quot;&gt;3&lt;/span&gt;&lt;span style=&quot;color: #d4d4d4;&quot;&gt;) == &lt;/span&gt;&lt;span style=&quot;color: #b5cea8;&quot;&gt;5&lt;/span&gt;&lt;span style=&quot;color: #d4d4d4;&quot;&gt;);&lt;/span&gt;&lt;/div&gt;&lt;div&gt;&lt;span style=&quot;color: #d4d4d4;&quot;&gt;&amp;nbsp; &amp;nbsp; &lt;/span&gt;&lt;span style=&quot;color: #569cd6;&quot;&gt;REQUIRE&lt;/span&gt;&lt;span style=&quot;color: #d4d4d4;&quot;&gt;(calc.add(-&lt;/span&gt;&lt;span style=&quot;color: #b5cea8;&quot;&gt;2&lt;/span&gt;&lt;span style=&quot;color: #d4d4d4;&quot;&gt;, &lt;/span&gt;&lt;span style=&quot;color: #b5cea8;&quot;&gt;3&lt;/span&gt;&lt;span style=&quot;color: #d4d4d4;&quot;&gt;) == &lt;/span&gt;&lt;span style=&quot;color: #b5cea8;&quot;&gt;1&lt;/span&gt;&lt;span style=&quot;color: #d4d4d4;&quot;&gt;);&lt;/span&gt;&lt;/div&gt;&lt;div&gt;&lt;span style=&quot;color: #d4d4d4;&quot;&gt;&amp;nbsp; &amp;nbsp; &lt;/span&gt;&lt;span style=&quot;color: #569cd6;&quot;&gt;REQUIRE&lt;/span&gt;&lt;span style=&quot;color: #d4d4d4;&quot;&gt;(calc.add(&lt;/span&gt;&lt;span style=&quot;color: #b5cea8;&quot;&gt;0&lt;/span&gt;&lt;span style=&quot;color: #d4d4d4;&quot;&gt;, &lt;/span&gt;&lt;span style=&quot;color: #b5cea8;&quot;&gt;0&lt;/span&gt;&lt;span style=&quot;color: #d4d4d4;&quot;&gt;) == &lt;/span&gt;&lt;span style=&quot;color: #b5cea8;&quot;&gt;0&lt;/span&gt;&lt;span style=&quot;color: #d4d4d4;&quot;&gt;);&lt;/span&gt;&lt;/div&gt;&lt;div&gt;&lt;span style=&quot;color: #d4d4d4;&quot;&gt;}&lt;/span&gt;&lt;/div&gt;&lt;br&gt;&lt;div&gt;&lt;span style=&quot;color: #569cd6;&quot;&gt;TEST_CASE&lt;/span&gt;&lt;span style=&quot;color: #d4d4d4;&quot;&gt;(&lt;/span&gt;&lt;span style=&quot;color: #ce9178;&quot;&gt;&quot;CalculatorTest - Sub&quot;&lt;/span&gt;&lt;span style=&quot;color: #d4d4d4;&quot;&gt;, &lt;/span&gt;&lt;span style=&quot;color: #ce9178;&quot;&gt;&quot;[Calculator]&quot;&lt;/span&gt;&lt;span style=&quot;color: #d4d4d4;&quot;&gt;) {&lt;/span&gt;&lt;/div&gt;&lt;div&gt;&lt;span style=&quot;color: #d4d4d4;&quot;&gt;&amp;nbsp; &amp;nbsp; Calculator calc;&lt;/span&gt;&lt;/div&gt;&lt;div&gt;&lt;span style=&quot;color: #d4d4d4;&quot;&gt;&amp;nbsp; &amp;nbsp; &lt;/span&gt;&lt;span style=&quot;color: #569cd6;&quot;&gt;REQUIRE&lt;/span&gt;&lt;span style=&quot;color: #d4d4d4;&quot;&gt;(calc.sub(&lt;/span&gt;&lt;span style=&quot;color: #b5cea8;&quot;&gt;5&lt;/span&gt;&lt;span style=&quot;color: #d4d4d4;&quot;&gt;, &lt;/span&gt;&lt;span style=&quot;color: #b5cea8;&quot;&gt;3&lt;/span&gt;&lt;span style=&quot;color: #d4d4d4;&quot;&gt;) == &lt;/span&gt;&lt;span style=&quot;color: #b5cea8;&quot;&gt;2&lt;/span&gt;&lt;span style=&quot;color: #d4d4d4;&quot;&gt;);&lt;/span&gt;&lt;/div&gt;&lt;div&gt;&lt;span style=&quot;color: #d4d4d4;&quot;&gt;&amp;nbsp; &amp;nbsp; &lt;/span&gt;&lt;span style=&quot;color: #569cd6;&quot;&gt;REQUIRE&lt;/span&gt;&lt;span style=&quot;color: #d4d4d4;&quot;&gt;(calc.sub(&lt;/span&gt;&lt;span style=&quot;color: #b5cea8;&quot;&gt;3&lt;/span&gt;&lt;span style=&quot;color: #d4d4d4;&quot;&gt;, &lt;/span&gt;&lt;span style=&quot;color: #b5cea8;&quot;&gt;5&lt;/span&gt;&lt;span style=&quot;color: #d4d4d4;&quot;&gt;) == -&lt;/span&gt;&lt;span style=&quot;color: #b5cea8;&quot;&gt;2&lt;/span&gt;&lt;span style=&quot;color: #d4d4d4;&quot;&gt;);&lt;/span&gt;&lt;/div&gt;&lt;div&gt;&lt;span style=&quot;color: #d4d4d4;&quot;&gt;&amp;nbsp; &amp;nbsp; &lt;/span&gt;&lt;span style=&quot;color: #569cd6;&quot;&gt;REQUIRE&lt;/span&gt;&lt;span style=&quot;color: #d4d4d4;&quot;&gt;(calc.sub(&lt;/span&gt;&lt;span style=&quot;color: #b5cea8;&quot;&gt;0&lt;/span&gt;&lt;span style=&quot;color: #d4d4d4;&quot;&gt;, &lt;/span&gt;&lt;span style=&quot;color: #b5cea8;&quot;&gt;0&lt;/span&gt;&lt;span style=&quot;color: #d4d4d4;&quot;&gt;) == &lt;/span&gt;&lt;span style=&quot;color: #b5cea8;&quot;&gt;0&lt;/span&gt;&lt;span style=&quot;color: #d4d4d4;&quot;&gt;);&lt;/span&gt;&lt;/div&gt;&lt;div&gt;&lt;span style=&quot;color: #d4d4d4;&quot;&gt;}&lt;/span&gt;&lt;/div&gt;&lt;/div&gt;" style="text;whiteSpace=wrap;html=1;" parent="1" vertex="1">
          <mxGeometry x="2340" y="240" width="560" height="600" as="geometry" />
        </mxCell>
        <mxCell id="KpCNFlwLWU9gzN0KZ0Ix-4" value="" style="shape=image;verticalLabelPosition=bottom;labelBackgroundColor=default;verticalAlign=top;aspect=fixed;imageAspect=0;image=data:image/png,iVBORw0KGgoAAAANSUhEUgAABLwAAAH3CAYAAACxeEYyAAAAAXNSR0IArs4c6QAAAARnQU1BAACxjwv8YQUAAAAJcEhZcwAADsMAAA7DAcdvqGQAAPoFSURBVHhe7N0LQFTVvj/wr5CojCKgiEkoihhKKWloiRbauWaintJTiY/UG2pHrWNdw8fVzKPXB3nLk49S6Kr5wE5pHRUy/0ez46OSNDRRjoqiiIkoIDooKPjfa+81w8wwA8NThO+ntrPX2u89m3n85rfWrterV697ICIiIiIiIiIiqiUc5CMREREREREREVGtUM/PrwMzvIiIyqhhwwZyjKhq3b6dh7y827JEVLM0aNCQr4dUY4jXS16PZIrXBJUFr5fahxleRERERERERERUqzDgRUREREREREREtQoDXkREREREREREVKsw4EVERERERERERLUKA15ERERERERERFSrMOBFRERERERERES1CgNeRERERERERERUqzDgRUREREREREREtQoDXkREREREREREVKsw4EVERERERERERLUKA15ERNXJuTMaPjkCbl07ygpL9fFQ19Fo+mQwnJwbyTqi8qgPh2Y90KTPRHg81lzWWWoO3fMT0SywB+o3rC/riIjquHoucGiivF+37wwHvheTgbMXHmoTjAYennCoJ+uIqEar5+fX4Z4cJyIiOzVs2ECOlU2jP/4vvFqLsTu4ceBTpB9JUes1Itj1Jh4JVj5QieKFb3HmH/9Up1Dddft2HvLybstSWfjD482paN1UGS28jktfLcTvp65qk1TN4TxwBh4NbKr++qWPX4Kk75K0SUR2atCgYblfD009EfqfCGwhC9Zc+RVrYn+VBSLrxOtlxa5H5X34sXA8HNIeDUwCGnev/IxLW/+O/Duygh4YFb8mFM490HTQIDRr0agoW+ReDrL++SmuJaXLCqoNKuV6kRo4D0Po493h3bQRHpKvJ3evpyLh+Br8cPN3rYKqHDO8iIjui/poEvwGPALcZVl5QQ54oyjYVYOEhP0Zrw8OlKUK6jIYr//5dQzuIstUPRyaotWfZsDDy5DFVR9OzxcFu2qOSOw+/xtiwmWxgsZt/g3nf4vBOFkm6Q9/xB995LglH2XaH+R4NfJo+yg6dChhaFtSNKwc+gzDn8NCZMFSIAa/Xr2vU5X6OltFHoR9rCj1fbhPUbDrrgxwOTjVR+FdbfyBpr4HD4OtK5+sqNcRTYe+Ag8Z7CpULopCkS5STyk7Vl0ENHDw6yW8RtkjBMP4eeu+aeo5E+N6PYu2ro3Uz/V3b99BXh7wUFNvdPR8RJupUlX8+a74NVcO1fCaVImfc/tj6soVWGkc/kupEXULMdak5U6H0Qux8t3+ypjF/AvHoIM2C/q/a76MpgPGLjSZ32K9/d+1Nc3afsn9MKmf+rw2NxFR9amPpn3eQbMO7nDo8Gd49fEpR7BLvMH9GX82DoY3DfGFTSm/PlgZs0Zbrsq+vNj6Mnl0Gz775DNsOyrL1pTjzc/uL2JlXPczzzyDxx9/XJYecA5N0TrsPbh7OcMp5D34B5Uj2BUeg9/On8d5w2AMJolAlVLeE6mWipHL7f5AliuZCGz9trl4WCtq2ONo83gYomTZmsg9560ua9s4xPxm57F8sLsGBty6Yl7EB/hg3Sq8Zhn08nkNq9Yp0yLmKXNVr13Lp2HGjBKG5d/JOUtSta9r4nWm6LX2zxjWR06wSXsdLn2+0plt2+brOlVMZzTtId+H81Lw+9rpSPn0v3Dm661I27IRd0WQo4Fn6U0cK+MLnHgP5fNcIzh0eQHNXLXx28fX4ewn03F2RSRS49YhIzFTqW0EhyYPchPHynudIqneYDz/mLcWOM85jm27/4y//fAWlu/9M5b/sA0ncx7w6PkDFjiv3B92r8dj6cRJmKgO/4udyn9L/nEVQa/JYFbHMRjr/28s/WCnOrvp/EuTHsUUNRBmjQh2/QUdkv4m160My/6NDm+aBrZyEL9MTjPdplBsvzRn/yHrlsWj2R+1QBgRUXUx/ELo1u+/4dNP/qKs1BWqU+0gPhD/WXkRTPoEn3wih4O5aGn8spev/OcFfysfYgIH+8JNjpNtWVlZcHOrBWdKuajU66rhw2g7+mME9HoYaq6Xod4OarbU7MdwfF4btGkjh50tMMwY+MlBjscLVrOzIof3hIscp+JefPFFLF68GB07Fvu1r1RlX/YIZo+fj+/RB7P+7+OiTC+fP+Lj/5ul1H6P+eNnK3NVr1f/uh7rPjcd5uFVOc1e4nVNl50FeLSu5ECBFkjriJNFr7Wf/IjcltUUkFC+XLTU/2jc9slcLzxd3b/C1wUtH0djnTZ667et0N8Q2Tt/gMcffFCQq9U/1OMNtPuPYK1AdUB9NGrrpX1hvnMGV/ceU2sf6v0GXBqeVMeBYDQb8waaeMgiUfPH4K1Gzu/g9IkVOF2g1qrybn+LHzLYPL86VWIfXv0xdWFLbJuxFqdkjYHIvnrs2CQc76w9LlF/pLOYv+MYLBx4GTM+2KlmeD28YwbWGF5Hnv8vrAy5hqWW6xb1nRMxsdgyIqsrAMfV4Jb1/RIZXoMvz5D7IgJqY4HPTbZJRFSCivfhlYL07+7C1RDoEu7dQtaun+HwfAhEt0sl9+ElvoD5IvegrWwp8YtdNyBDDy/dZXwSs1fWC2LZlshN08EDh/HZtgStNkz5Qid/xUR+Gn78bBvEFFHvq3zZUucTQTZ/N2QlfYLN3ysTxa88Pb3gpC6UhZOfbIa6JTFfS8vtKtT5nZEs5zPdZn6aso0b/ur6DdQ6ZbvF5pP7rB3n0/DSdkAh9uEyWspAYNE+eiDjtnIuGhZfd0maNWuGgIAAJCcnIy0tTdZWr0rpw+v6zzjzW2u0MQS6hNu/49z3F9DihR4Q3/FK7MNLZGjNboFv2zyHCFllTmR4dcOVH1vgMXyMx4eZ5FSJZf8CHM/oiRaH2+C5d0WlmP9VtFdnAHJ+nC+XEfUv4Mq8xxEWrWVfvep7Bl/I7Yqg26ynZegs+Qu06avtjah/y3K7CnX+Ft/K+Uy3mYOD8z4G/jILPY2ROMN2LOfT9kVjvt/IOYj5fwPeUgOBcj6R1fUKkKCci0DDvirO/N1w7MWJoNXTTz+NtWvX4uTJsn0QKfeyajbXLPQp2Il3p+zGc0s/QH/H7zF/9AR8btq1YCkqqw8vV98A5bVKFlR6pB1LQbYslU6+5v1yGHhSPFq+NorXvY4y0K+8TiiXekeT1yjRlONp+UKSn3YSGR6+xnWYvQZaY/Y6qKxdfe0x3Z7C5DXVdFuGeld1G2K7HeXrWT7SbL2+i9fXdrnG9ZmRr9Ea7TU5W2xPl4E0Zy9t3eo2L6C14bXTZN+ESn0vqGYV6n8n4E2076tFgK/v+S9kJAaj2bhBaKqsrjDjELJuB4tYqubGEaSs3YhieRpm51+cPsN1Y3o9mD+3lu9vh9Gt6PpQGM+xVebvgYbtmV1jps+HxXuw+X7Z2paVeTLlesTfkeF4s08a/560a8XO67mKVaxPpvZoOubP8GiijMrnHE9F4JEnPOGgfGa7fvQkGj3ZFQ21meV1IwvFlO25Uut1ySafo2w8D08Ch41/v4bXQXGuxfwmnxPL+Dpl9jpg5RrKUD5Dein7be2aKfNrnOG6tHE9VafK6MPL2/dDvNJeZIKmYv93C/CzVl12Vl7P91pcB+avMebfC2w9Dy0vmzxnYhvyvdDymrP6XmDrNc7i+iraL8O1bHgPsnh/qIbnvnIzvJoGYYqhmaBJE8WdO0QG1QoMxnYZYCqu/8Ag4MpZWTLXoWVzXE86WCyQhgvXcN29ZVEml8HzAWh3LtGYyWVrv4w69lTq/o0DDHYRPYCexptL12Dt0snKmEEJdcvfxnOy5n67e+oTpH2fIj8w38H17z/EtVO31FKp+rSEW34GLpT24fF8kvIG42vWpl/N7sq+jAuyrAlBS2P2wo9Igxe6WTYLEm9K/jrlA4rhjVJ5cxWBJKWsLiferMrQBEO8AZpmTKhvjN9vxicH05SPQeINUauzOp9RArZ99glOKt+KxZvrJ+qb6F5sTsqCWzttX0I6eQFph7FtTfF1l+batWvKh5/byoc6ZR0PuFt7/4qk+OtaRlfhdVyI+SsyL6mTSjXuD4/BJfmwjWBXkdRh3+LK08Ng2rBRZHchcY/ysc/EB8oH8r/LLLF5B5U/z7eKZYaJYNWrHgcx3xBk+2A3ZgUcV8racl/g1TI0RRTNEF8t2mYbEZyKQtjjynqStYBbG3U71uaTq1BF4Lk283EwRwtgqc0lo8Pw8Y9Az+HiqJXl+7dXpj2HP4rmlH8/owXFlHWVFOwaMGAAPDw88O6772Ls2LFq/fz58/F///d/6jB16lS1Tkwz1P3v//4vxo0bZ3VZu6R8jgmj31V/GPz464+Vf3fi3TIGu6qW8mWqcwACDIOv8ZuXdV1aQ3k1Ul4TE3AhA/DqZJoBJb4EmmbDXkZLkw/s4gP/0x4Z+FG+xhyGr/FLqfra6JqPjPO2Xy8C2yhf/oyvg8prj79o6qG8DonX0nzti+Un8kuk+sHfZFsnlX01cPISQTZZn+1kcQxFApvokJ9xQX7BNaF+EYH6+ibW8WOaTEsSXD3kurXX96f/LL4UF5WLXu+r/72gxsi7a5HxegDXov6JGzd/w8UvtuL6//sQqSeUP/7f9+LsV9uLB7sEK+9hxa6/gxnw6Kk1B7L2/paw7TP1OlK/YCp1xQNQBloAxSPDkP13UvkL0OpbK18ujddYths6Ws0I1L44F+1XGkyuGKmkeZT1ii/K6naUa8W5o1lzYtPr+ZMkPbzkMT9YbqFQ+Rs2dfenSFxMzMGNfbNw7aftuLR2L24gB9fixGc4OVMx1fFclaysr1MdnbXrT5vf8m/aTf3BVEyzGuyy4zWu+DVR8vVU59h6PVc+/5teB/DqZrXfrpKeB/vYeC+w+hon3gO8oDfslzJ/hsfT5s1kje9BJsEuI5PnXqzb1fx7S0VVXZNGK5lexZgEokQwbMa6UpcogQuC3pRBLZn1ZWRjv9r9Uc7/GrDGnv0lIqpkhYmf4sKaD3F2zQLZF0QZ5OYU/8JTjOWXP+XDlfKek3bC8u1G+dBj/DVFLGPxCQ+t5ZuZ6S9HInCWbCzj+8vIcnJGKV9LjRJu6AFnF5MPUNbZO58Z5Q1ZNPvxHzwYvsqHtsN2BLdsEZldDRs2VLO9Hmx3kP/dbBxd9lck/G02MtLK1tluzpXTcqwkETic3B4vGANRkejmewbfWmRe4d3nigJA0XtwXPkOaeYPuzHr6Sv4wtj/lgwk7Szqjyvi8Bm4tPCTpdJEIVX5O2jhXVqAzN75zEUN+xgHRXPOzcPQM+MLm8Eta7755hvExcUhIyMDH3zwAdasWaMGu0RW4X/+53+qdSKgJYJb/v7+2LZtm1r/X//1X4iKiiq27IPq+dHTETG1hGF0yR1PqIFtGQRKOJ+hfGBuWfRFqo+/8lE9DUnGL2ZaUFyjfBFt54ass4YMCWX5bYfVL4BF9Mgp4ceFhG2bzV8H5Whx8vX3l6Jt7VWeT8N4vgjMy/XsvaysxdrrngjOeemRbOU1LaSlyLgq+jKRoKzb+EpvfK2Wr+8WZSed4ZW7+t8LaozUFOhlu5cmHf4gvyQdwLWvvsVdkYmdm4Y7iT/g9/gjKLxp+aJVAsvr7+gFZOTr4KJ8oSvX+5uBGuQ1fX/bq7w+iPEEbIsxucbEtWSN+OEs+2RRwOLoNmyzDK6VOI/yhdfkWtl2NgtOJs2JTa9nfJ+k/E25oeUD109UGvIuyx8im7RHk5ZajvTdnz/FtTPK+L0cFN44gux//YAbF9NQaOtttTqeq1LY/zoVAn/xO6HJ65T6/ClH0NoYhMiy+hpUlte44tdEydfTgyQ1x3BH7JbwVJtslJ3N13Pl823RdSBeS+S4mZKfB/uU9l5QRHsPMLk+5fPn1tIkeGv6HlGMyXOvHpMTnIvu6VVhlRvwsqoDxr4WhGv/mIRtGGTeObxpIMo0QGXh1OWraNqinSyZaN0MTTMvy0CVoQ+v7Tjb9lkrnd4Xp/Xh9TfEIwiD2Wk90QPqRyybMhZjpixXxgxKqJv8EXbLmprhjvLBWfmQVJYPzwZ2fkhO2JaMLMOXP/HBO9f6m474NcjQKbJpcwrBycvL4s1Mcu1Y1JGymmKtfYi3i/Km/WOGB54Wy5aUDWDvfBb2nkiDzssDGaYf2spBBLwKCgpqQcBLyEXh9Qso0Jf1t2HYHVyK2HQQCOirdtQ+bvMLaPHjZiuZYVrH71rn96bNCgUX9Hxay5KyXK79K4ZllOGV9oCHt7ode0T0nY/jAbPUZUvKDLN3PnNRCNt5Rdlv4AvZzLK8RF9cjRo1Qu/evdVMLpG5JQJed+/exZ07d9CvXz+1CWOFyQ7qRWbXWy+9pWZ6We3Ivpp88d4ojH6thOG9zXJOayyysJQvg8nZFl+uS/yBIB+5Jf7eUNrrmsi+MH0dtMUVzk4lB8+MMnOVvTInmpeoTU+s/kIeCBfn0o7DPtX+XlBT5P0T15O1iIXDIy+g9fB34DFwDDz+9N/wGawFwAov74X+fDmatzuJrDrD+RHN2uQXunK+v6ncneFk67oW2SGG7ZlmM5pQMwX1JTcatmceIyvXbJEE5JT9badGyP/1iAyEuqDZn2bCc+Cf4dE/HK3HzURTNQCWhryje3E3T8xjQzU8V6Wz93VKsHydEs+fPUGIMrzGlXZNlHg91XBXjyNVTQGtD79Ok+DnqNaqGjR8Ac96PCFLtpT0ei6yBQ3Po2mXHqbK8jzYVtJ7gaVi16d4/soVzK/814qqD3g9PwhBmVpTRq1pYzk6h/9uO+LdB2HhaJPGiKLPrz82R/wOy0DZTiwRHdqbdlpfolNYM2M7wE7riehBov6CbvprW0n2IilNB9/BIRjcTmclu0t7U1Pb7aupyCJ12vxjhujTxlp6udaM0JDCLIaiX/3toTbdENsTH/hL6ITZ3vlMiYwPfbYeXk9WvGlNTk4OWrZsKUt1T9Q/jyPHt5tZU0WbosPwbUZPDPsgEsOevlI8u0sNds1Ci52GZoNaE8EiOTj494No8cpvFs0cRX9ahmXkUModGM1pTRjF9kRAy/ZdFu2dz5TIQGuBM8kt8KqtO1WWgQhuGTK5DIPI3po1axbWr1+PUaNGqU0ay9PJvcq0/67/fAv/OPYPvPWf72JnQR/Muk9Br36TF2PhwuJDxMgAOUcJRPYDnODV0/AlQOt3xNCsWWXxwVt8gSxi+UVOfFmQo8rr5+VsJ3i0sfUqIr5E+iLX0FTok5MlZE4I5QsEiWCX6Hel5H5NKv6r+P16L6gZ7uD2D9uRdVMrPdTMC03btkeTJsq4d4gyXsrdGUuSXdRs0TAYgobleX8zspEFqPbxZtiWMZuxuKLMPtvsmUdVUlBH2cvKCshWu6ztyPglXWvCWs8FTZRromlrdzykjLs929/+u2tXw3NlW0Vfp8ry/Nn7GlfKOku8nmq4e9vw3fFU5IlAqctjGPzcJ/jLsx9jcsgnmPzsYHR0seeqsfZ6rjWNdT5reB615qjWVexHh9LeCywVuz5r0PNXuQEv076yVi7E2OdFUArYZsjeOrkWa35ujsE278ZoYNI8URmmPi+CUn/DKf+/GOtWvtkMP0y00cm82I7pXR8t96vY50NxN0lg8MIxskxEVDXu3b6Fu3KwfseQWyg0mcc2EcSC8gXvdfN27l0GY5iVPg9EEx94dYSX2seNrDThqnMy+XVGpEJb/pKTjW2fnYTe62njFx1tndb7Diirsjdv1H7hsnkbbeVDpOh/IilGpOF7Wb1TZUkef/xxPPPMM7IEXLqkdXb1oPXlVZibi3w5WL3eCnJxR06/U9Kv0yKIldwer57fbR70+mC31YCQaG7Y/pVX0d5qv19+aOGSgyv/lsXwvnjM8haO/w7D43+/gp6zDUGvKOxJBHr+JcbujC7bytG8UXS8b3nsJsZtfgs9M77Fc32/xRlf63eqtJfoeF5kcj355JOyxtyPP/6IZcuWqUGxRx99VNaWRVfMWy3vxiiCXYY+u1JE0EvevXH1PGWu6pVx7t84dar4cD6ttKwG2STR2HeIYVC+0Bl+FFB/IDB9HRBNdgyvcVpTDdPgmNo8Q44LIlsUJq99GmW7YcoyXVyUrxUmv6SrwTdbtOCZaRA+ZLAdAXnxegYrWVWC+MKsZgbJ41D75dEEKusuY/jkvr8X3He5B3BtbSQu/OsIsi6kI+92Jm6c+hmp6+Yi65ydfWxaEtefa0fb71dSmZs3yuvatP+1wcq4Gsw1+aIpmkZZozX9Ndkv5fPDYDFuvKZKmEflBl+TbQ/zV/4OLxcFZJ28/E2uxW42P3/UfHfUfrtSNm/FlcQzuJF1C3kZabj2r0+Q8oWNvtwsVdVzdTQHepMfP9XzbC0Rp4KvU1qzXFvPn+nnsZJf40q+Jkq+nh4019MXIGr/DziXrXyeV8oPNayPBspzk5d9FifTL2oz2WTr9Vz8GGMSJBRNZa093yU8D9l6Zb3Gpobaebam9PeCIsWuT2V+9X3Z1vMn+oH8c/X16VeJd2kkIqo7KuOuZJVCfDA1fbMy3mFHfAAxv1OZIUPA8KVJ/HrTDYa7NIpf/wwp7vnIUt7jdHptmljOeGcu8SYl7sIifq0WmQaW27dVr1Dv2HK+tXY3lk/kncOMn8xE55dFzXQMd4YRy5jfscownzg+7Vcu9XgM+yWmH8yFr9qBsjx2dVpR2XTd2rEXJwJebm5u+Ne//iVrgO7du6uPhw4dUh+rS/nv0lj5zO6SKBjvlCjuXqhcTca7OIosrreAvxV1+i7uuNjNcJdG9U6G8l6HOWdwBi1wRZ3X/C6Nhu0Z7nCo3bVRW0ww1BfbL4WYttlbqVfv0nhazSozNp00ucOjdgfKnlC2gi/abIa3tfks71Jp2H/RIf3OFpj1Cox3kjTcpVEra9lsYn0l3aVRZGqFh4er19y+ffvw008/GcuCuHHCnj171KaMhroTJ05gyZIlxZa1qx+vP/wRfzzzj6JglykfZVp7ZZqtG8RaqKy7NJab+vdtete5Iurfuuh0V7wmGV8jBOV1QnTCLO9MJRheFwTLuzRqTF8jhaI7jKm/hBteo7KzkKWs57JhfwyvhcbXZvNtGV4zRZ3ZnSDF/sq7rykvdlaak8jtuyvrN7ljo9m+yG2qy4tf6uWxGn+5t1qu5PeCalYZd1irDIbn2Pg+Y3b9KUyfG6vvg9p7nJhk7S54RcyvS23eomXVOuWadIO81i3/Xsz2y/o1ZXUeaOsx3KlPnWLynqpdK2nQiyawao35e3x1qinXRFmfK8u/U6vPg8Xrj/lrl9ieyOoqPl+ZX6dM6otdQ5afxxRmy5q9xtm4JuQ6bV1P1anmXC8Wz5nhOTB9rc1XnkfokGvtrpwKa8+D+XVo/l5o73uBYFi3rdc409ct69eyvIaKXU/aus3uJFlBDHgREZVDjQl4UbUR2V2+vr5ITExU795YXWpSwIvI0n0PeBGZqElfVms1K19STWnBjfsTsLDEa6JmKPGaKOV6qk68Xmqfaui0noiI6MEnOq8XGV/VGewiIqI6TgQDZN90RYNFdwZERGQVA15EREREREQ10dFt+MysfzoxFDVbIiIi29ikkYioHJjuTNWFTRqpJmOTRqpJ2ByJLPGaoLLg9VL7MMOLiIiIiIiIiIhqFQa8iIiIiIiIiIioVmHAi4iIiIiIiIiIahUGvIiIiIiIiIiIqFZhwIuIiIiIiIiIiGoVBryIiIiIiIiIiKhWYcCLiIiIiIiIiIhqFQa8iIiIiIiIiIioVqnn59fhnhwnIiI75eXdlmNERERERERU0zDDi4iIiIiIiIiIahUGvIiIiIiIiIiIqFZhwIuIiIiIiIiIiGoVBryIiIiIiIiIiKhWYcCLiIisc2qOhh1fgUfoK3Cy9W7h9Qoefv4V6LybywoiIiIiIqL7jwEvIqJazR8v/9cMjA5qKMtlEDAOAUP7ofUT/eA/6hXUt3zHaPEK2ob1Q6sgZfrocWgiq++nrmPn4YMpA2Wpgrq+jnkfzMPrXWWZiIiIiIgeGPX8/Drck+MV0zsC0RMDoZNFISVuOGZgAWIG+MgajVq/XowFY9rqSQiU35KK6kdgYUwojEvdSMDy8ZE4oIyOXLQJoW20amUJxIbNxAZZIiKqLnl5t+VY+Q2c8gF6XI/B7DVHZE1ZdcXr74fB5ci7+GibrLKiYdBoRAxpg/NbI7Euvgz7/cQMdAv1lQXgztlvkLhpBwpEQTcQrf/8IjyMcbRknJq/EDdkyRZxzM96yYLi0j5t30WgKqwTkBQzG59ZOR3qcq5JiHn/M5R0ttT1NP0Z7y7dIWvsMRBvf+CH0+9+hLIspRJBsTAX/FyWZQe/jQ+65pR6LOVaNxERERERqcx+r3d2bwpnOW6dM1zdS55Df3gFwsKGq4MWvNKIYJaoiz0P+AxYgJFK3chFItglglbm9ejthWw5f1hcCtAkEGOnBospQGKsVr8yAXr4IMRQT0REVt2OX4fIrefRZvDbCCtPppdUv92L6DC0Dxx1ffDI66bBLnuIoNIHeBY/4N1335VDDHLavQ5DAtVtPeD/jJXsrK6vo4dJkIyIiIiIiKg0JgGvbnh91geY+0ZvG0EvZzzz5gJ8MHOkMmf5nbuqfKOBB7x6j0CAyNQ6n6hmaG1ITFH+9UHAKOVhXyQWG4JlKdkQSxhsWL9RjhERPbhef1/LdGrYKQwffPA2DGEetUneBx9og2nTPLV5naxX5xcBpDD464BWvZW691+XM1qnBr22pcAntHxBr8JC7dG54wh0/ssIeLpoZUN9aQZOeRbuJ2IsMq+O4LOlJllO51NwycvPeC4MBj7jj8wTSTDNTRMZX8bzpBy71VaH8pzNG2uYqgXdtOXsaKqoLl/CcyMytcL80RCt8KzJdmw+hwp1Wu9WgM4fYcr0twfLYzHOJ7L2lHXN+6vVdRMRERERkX1MAl6HsWzWevzuP8pK0EsLdg1rcwLr31utzGmbrtskxMRsUoYoTOstK020bS4aPWYgDV7wUMb0V0Wgq4iHp3nG1shQ0UxSj9M/iwaNCtF0Uqx/YiAy4oYjfImsJyJ6gHz2/rv4IQ24LYJAhiZrIgOrTQpiZAbUD3hWBjoG4u0wH6TEGDKjxPw78NG7MUjSa80C333/M7GGEt2Oj8FHsTLoVcb4ybUfNiI9Rxt3kO8cuSc3ihiVHQbCz+s2Uo6W1nTzV/xwwh09TIM7anbXJZw+KssqZX3GTDHlHMAfLxULCIlz5o9M5dxoTUZFIOlZQJwrsVyMch7CioJZpbJ4btTA3baPlPWIQNwl/KDUqduxNp+JI2tm4919l5Q3vyR1HtGcc8fSH3DJq4cWgBv8rHI0Sfh69nvF101ERERERHYz74I4dx8+nGkZ9HLGM2+8rwa7Nr+3Gv/KVSttKmrSOA6L98lKhc8AEQQT/W/pkbDSnn63RP9eWn9dKXEm69oXiXDZpNFDrHPRCDmBiOhB1hWvd22FS0eKMp52nL2Ehk1bKWOXkKNvCJdHtPoKc6wPJzlqt9zvcfGzb5Ah06xEf16ntnyPO1rRDplItyNmc+RoCtDpWWMgqmsXH+DEDxZ9WO3AR8ZA0hH8et6yXzJPNbglMsqMfZvJQNIPhvKRX5Gid4envYG/izm4rXOBeDZKZO98ZpTj2ZcJ/2deV64BdyRtK6VvLyIiIiIiKpV5wEuQQa8LHYZh7hvP4TkR7Gp/xq5gV0kMfXgZA2H70pChPOiam3don5EuMrYMndmL4Jh5X2BG+w7gtOgd2d1LmZuIqHZQmycamsOJpm+unugqmv69/wMgp4lmcOXRMCgMb//RD1e2RWJdeSIq+h24sHw2EpbNxvHNsvN6u9kZXDryGX5OawU/9RgH4tlOmfjZSnaTabPBsE4WTTS9/LUsKcvlZDNCbTnRHLQMQURlv2Yr712ieaFpE9Ri7J3P0rYfkOTqD5/zX1vttJ+IiIiIiMqmeMBLyN2HZbM240KHkZUS7LJuIxLPKw9tArQO7ANE4CsFiSK4NSpUvXOjWWaXagSmGTqp7x0MP3F3x8w09e6NREQPvttIMjZblIPxTn6iCaOoE4EvO/qfsmAMdv0jEp+V5U6Nlm7/joLrv9vdd5dmB06nNYRPF/t2ese/kuDe9XUMHNsD7sWyu7Rgl3onRnmOYk5YHE/aD/gh2x9hFv1niXqzc6sMJd3dshjRhFEsJwJatvoNE+ydz5TIQMu+hMxOL5X5uSUiIiIiouKsB7wEEfR6ZyzGTS1bsKuoD69NiC7lDoobpsciBT4ItWjqGOwpevcqagZpui5Xw/onBkJ3IwHLp7MTeyKqDUTTPMB/cGkBkrI3b6y0YFcFiCAWOoVZdL7eFa9PsXK8orkh/PFsJ1jt96tV04a4ff2SLHXFE22Kd8K/Y2kMklyfLeoMfttpXPJ6ttzZcWbK0bxRdExvu+P5gXi7tzuS/vURfjhh406VRERERERUJvX8/Drck+NERGSnvLxKCByJuwCqd+ITHZNrHdeLwIi4e6OB6JD+o23i7oLPGgMsoqN7Yyfm4k6BoumjPslGx/WPIWzmEDj/v3IEux77Cx7v56uOXtv1Fi4dV0fN6F78GO3aibFknP3wb2Z31S3O/Di0jLbZahM+kbX1Er42P652p4s6fRfnajDwtZrxZrqe27iUBrhf15Y1Zn+py8n5RAfxYjnj+ZYM9cX2SyGmbQNeCnPBz+K5MZxnVdF+C4bnTH1erj1rdT4xT4/rhudNdKCv3WHz0r4Y5HQNg89582mGstm6DeeGiIiIiIhKxYAXEVE5VErAi4iIiIiIiKqE7SaNREREREREREREDyAGvIiIiIiIiIiIqFZhwIuIiIiIiIiIiGoVBryIiIiIiIiIiKhWYcCLiIiIiIiIiIhqFQa8iIiIiIiIiIioVmHAi4iIiIiIiIiIahUGvIiIiIiIiIiIqFZhwIuIiIiIiIiIiGoVBryIiIiIiIiIiKhWYcCLiIiIiIiIiIhqlcoLeAX+JxYsnoxnnGXZbiOwMCYK03rLYpmIZTdh4SitNHLRJkRPDdYKxYh5F2CkLBERERERERERUe1UeQGvhM3YebE9Rs0vT9CrvDZiRthwzFgvi0REVMd5o/GLW9D9vZ3o/tZiNG4oq++nVvPwmLI/T1kMj/XvI2eoDn3g+Za23bZdZVVV8M/D7r/nINJflqtUOJbFxSEu7kvM7SurShWCuTFimTgsGyeraqu+c/Glen6WKWeqGvjnI25DNlb1lGUiIiKi+6wSmzTm4l/LZmL9ufYY9tfx1Rj0IiIiMugPj8469c3NwbULPDpptVQNRLDrg3S0b3oL3Z69JyvJFu+XIrBszZeI+1u1hKOq3B/75qK9Rw76z6iugCcRERFRySq5Dy8t6LX5TDmCXj4RiI7ZhBgxrI6AsWFib6XetKyMTVttaAJZcnNI0cRRXZ9Js0ciIqqYJq264rk/jcKECROUYTh6ecgJNcJOZBzTo1AZK8w+iowTWu19dWk2jv+1P36Sw4mzsr420d1FzPtX0d7JETk/NcOYVfXkBOuCZmxUs6zUYfVEeMv6GqF5CMLnrMLGLd8U7eP2b7Bx9UJM7OcNnZytonw7B8HXU1mbo6yoSXQ98Zo4B9/I41eGbzauwqxXu9g8/n+sdMUHPylTnbLx6vt6jKusE0VERERUTpUc8BJy8a9P3zcGvZ6WtSXTIbA3sCZsOMKUITYzEJMXjZDTyid4ahRCEauuTwyJAaHwkdOIiKiM6jdB6yeew9BREzB8UBDaN6upabypuPnNUBz6a38c+ngabt6W1VSlps7JQk+3AuSdbY635jykPAslCcHAzm5Avh76W0rxkSAMrSFv0G6hc7FxTQSG9PCGWyMnWatwdILbI10wcEoEwmRVbaXrPBHLPp+FYeIcmJwCJzdv9By9EKtn97MZ9Iqa444vzjZQTuQ1vLsgv2YFMomIiKjOqYKAlwkHk09KJdIjYX0kDsjShtgE6NsEVKCD+REY2A1IiN0oy8o6p8ciRY4TEVHZNAkcgBe6t0dzZyA/Iwk//JCEG3Ia1XHP6TG6yy3lwnDFN4sb4HtZbVPfPujUVHm8+B22n89XRjzRZXANCI30nYXlk4LgJjKubqUjfv18vPnaAAwYMAAvj38HS9fvRXLWHW3eWssf494aCN9GytOZHo/P3xuhHv+IvyzFroviuQLcnh6K0TYDlPUQsdgVZ5RZG/hfx8dDZDURERHRfVAFAS9nPPPG+xjl/zs2z1qOH2VtmexLQ4YcLb8MpO2To0REVCE3jp7EpesXEL99E9Zs/QFJ1wrklJrBZWTxTuGfem8FXOT04gyduGvzOHaYDd9J29TO7sWy3SatgKunmzarVW5oEDhPXSZolrZM95lb4D/kbTRyrYS2XF1XaMfw1jw0kFVFDPu+BZ6tZJUphy7Q9Y1Cpwhln+TxdJ/+NlrbPhkK5Xi6fwT/KUXnICgiBm16DSqlxd09fByWrZxDR2QcaIwIO35ZCundSc0QSj4ag8/jz0INeXUeWnI2UPMQTPxgDb40aWIXt2UgfOVkq3RdMGyGaJpossw3UxAkgm3FeGPisJ7KWVBcP4qVE8ZiTsxBJF9VJ0J/MQm7YiLx5oh3EK1VSTp49wvH3L8p+2a2nS+x5oOJCGkuZ1MVdZgvhoge8jppN6RoOcMQM1eZ2zq3EGV7Kzfim+1F83+55kNMGWyjueH1TFxQjixk0rKiJoqiiebfJqJnsQWSsHTJLiSf3orpY+dg8y9Zam3W6V1YumAv0tWSNzr+hzpiXUoDrD7QRBm5ha4DboN92BMREdH9UskBr6Jg1/qZH+FfubK6rHp7weNGNs7JYvl4wMu0by+xTjlKRERllH8M2zd/iyOXalteV0s0G7IWgcOC4dHMyfimWL+ZL/zHfQT3xrLClMPzaBa+Dk8MDlKXcZQLOTykg+tjz8P3qe5axf3QeBzavrMYj/fyhkvDojd5B6ei/SyuI1yGrUOX/h3h6lJ0DhwbuuHhvpMQOHKc7aBX19vo6V2gXB9N8O0ymxswEYI+/iLKkoqT/08PbEvAWRHxatXFZrNGXb9ZajPDgQGe0Jkmjps2ObTkH45lny/Ea71F00RZJyjnwaoeoxH8iBjJR1LcfOyQga5S9Y3Ah1OGIMhP2Tez7ejgGTAQEas+xDCrUajy0KFfxBqsiVC25+MGJ5MnRefpj35hSr0sm3NC8N/WICLUt6iJomii6afs3wcTUax/+aSlePMv0UiSRaOUBFy4LsdL8cUyHRLF8+qdi/FPaXVERERE1c2eT6d2qkiwS4fAUEOfXcGYNioQOHVAa+Iosr2a+KGXDF4FTx2DQPHDYYk2IvG86TqBkaGB1n/5JCKiB17OhqJO4X+KjsdNWV86HTwfa4n6ty8jecM4bflV3+Ga6PvLoSVaPVV0yxSNDo2HTIJfKyegUI/0PVE4vEhu98N5+G1PMm5pLb/ugyA0GzkUns7Krl07iRNrJ8lzEoZDq7Yg3cb7smPPafDv4AQH5Ryc+2q2tsz8cTj8VTwylfNQv91QtOvZUc5t7o/9bms/Jp1tiNV6tapkhuaMl05iu8gG02/BiYtigo1mjbphmDexp9rMMD9lL6LnTcDLAwZgwMsT8M7HB6HlH1kKQsS0IWqzPFxNwtaP38QIscyAEXhz4VYki37DLHj38NWyu26dxP719hyIwR3cvJqM+C1LMeMvWvM/sW/z1x/V9q2RP56f1EWdE9iLOWFaE0kxRP4st3N2q7HOOITNUeY2pwubh4khnhAxK/3pXYiWzQ0HvPYm5kftst3csmkXBPk5mTRRHIE5sclqZp2TTxAGP6HNVipde7ir2XH5uFPaH5jeCYfPij29iW7P16xsUCIiIqo7Ki/g1W0kBnUob2aXHglXA+QdFSchMDMW4UsMPXptxI7DQOBE7W6LY5WPgAl2JBhsmL4CCe6hcp2bEJDIPryIiMiK28k4sXIMMs7KrtbTP8KFY1owonHLTuqjUbN30LqTGnLA+TWv4dz+LbhjCHDdPAD9/klI3lNqL1ZVo9NwtGuhPN4+iROfvI2cC8laPbJQmH4GuVYDcYPQ4qmWyocBPVK/moT0E/FadWEq7pyYjVPfHEWeUmzWebDVLK9gL+0NP/Vc/VI6qtcMfE5rzph+bIucX4+Yo9p+WmvW2GXS8/AXpzt9L/5nYiS2/piqLKHQpyJp52VkinFLYWHo6ak85ifh8z+/g+idyTIwloXkfWeQaeU8+LrJVL70VHynjdlnz3yMfe1NzPlsF46eluE3Zd8OxszAul+0a8jTy3reVdkE4e0X/LVg1y9LMeYvS7FVNjfE1WQc/Hop3pw4v1iQzCD/7A7MmWxoopiF+BVbcFTN1vKE95PisXT+rwdrTUj1J7EnRq0q0bfnGqqPLq3usvN6IiIiui8qL+B1eDXefac8wa6NmBE2DouXzDTeUTFselFn88KBJeOM08KXbMTi8cr8av9cclnZV9eG6WK6IVB2QJlPrk8ZZqwX887EBjmViIhIyNgTgRyLjJW8K5flmDnHzr5qn1+FF/YgPa0smUBVr4FPazUolZe0HzcLtbpStQhEMxHryTmBq2etHM+pM8gWjy1aW8mSLoC3p8jecUbqyXpaVYkGIriDGu7CyX1F4TH9pqNQQ17FmjXqEOwjIlfKEr/GQIbiStWvo7caGMpXzsNmO5+i9h7y6ArztYBaJcg3JDbZbA9aBk/0ga/aH1gqvv+/XWXcx1TsmrYSR80W2ovUa3LUDrp+czG7vxpFRPLOldihVZfo4Mn6yBEjbnfRX60hIiIiql6V2KSRiIjowVNYaH/4QOfZUn3MvXwC9saUqksDdy1ok3Npp/pol5Yt4SweXYLwhOys3nwYCi3kZM09+ai4Kx9LEhqM9mIXrybj+1+1KpX+O5y02qwxCNp9A/S4kGRP/pimtTwP6Sn252pl3pRpXw5OVgJ7JTN2Im/aob4yGDulrwxdvbXn4fplnChzuno+8isQxdN1nohFE4Mgnoqsn1di+md2PheGa6JpAfzkKBEREVF1YsCLiIjIXg/JxxqsLAE8cTwV+SDQUKRS2Wlgz/ZqMEmfvN8iWysV249r9/+zebdGewJqFvIL7D8Pl/VyXjdPWPbaVhL/ccuKOpEvw7kos/v0aU339BR8+NeB8FWOLetYNObNLWt2GREREdH9w4AXERGRnfKual/3GzXWMr3uDyc4WHv3lkEhnbuVkI2Du/WAzOVMrYP/7Hj8qnZwb2uYpDVPM1MPtw39YZUaCDQ0Z1T2r0eEWSaUGFapzeUUZs0a83FHTaPTwb2tWmHOvzGs3UQTsimhe8ue2ogpnfXzcPBMutqJO5p2Qp9QtcoOAzG6n6/WfFJ0CG/oUF8Oxk7pK0NyphZoatQE1XXl6fpFYPm0fvAWwa5fVmLy9K3F79xoj+uOOC1HiYiIiKoTA15ERER2yrtwQY2nOPo/D3er0ZZKcjtfi9s4OVm8UXeEy7BJ8BYdiVnQp2v9jjVu0734MsNHw0ttu2jh0gncEJEe1/ZwaaZV2c8RGWq/6bnw7mjSvNEaQ3PGUpk2azyIM+laRM3bb4j6aKTrh7mz+1ltbhmfpmWLuSnnwTxbzB/hi19DF3H3RkvbDuGsuikdugyfi3727GvvQLRW59PjaMwcbDZ0qK/SobG1AKOJ/EIZLWzYuPRO3fecRKqY3ckfz7/lr9VVIbfQuVg9JQSeItj141KMf2+H7Pjfft6P3lH7u0PWQyhDI1siIiKiSsOAFxERkb1O7MFFkRLl0BLt31iLhwOfF90+aRoGQ9drBXz79pEVFXDpMtQbEjt3xCO95foaPo9mry2GfwfLIJim4FiyloXl1Qe+vZT9EjO5h8EzXFmmnRMKrXY6tg1XTogwjRt8X9eOx7GhjPY4eMOxdRg8hqyFn41j2n2uifro/Wh+iUGbIb07qs0Z849FGzOgLIc5+7SQiucTYeiijgHbfz2rZl45dR6KhWGiHykdvPtNxLLoKQhS+/cq7ugP8q6MrUIwa0o/eCsbdntyGOZGL8IQ5TxYpd+M1TtTtSwvtyBMiV6GKS/1VJcVdI/4o9/rc7Fq44cI16qAIzI7Ttmn9n2HoYs6r3Ie+4djYfRGTHxCLmyDMatM7qfWKb0tm7EnUQunefZfhDX/E45+fvIE6LzR86UpWLZyFkK0mgrxH/UhVk8S5zof6XuXYvy88jVjHP3obfUxw847eBIRERFVtnp+fh1K+VmWiIgs5eVpX+bqDI9eGD4kAFp4w7Ybx7dg04GrslRdxqFtiZ2ra24eWozjO7+XpT7wfGsa2roC6Tv649wRWW3QdQWeGugLnN2CnzZEyUrJaxo6jOgD94aybMF8O0CD/lvwRPeSgx9AMk6YNRv0hsuwFejUoXiApvBaPFL1QWjTWo9z0UORfklOEFlFf4rBY52KL5N3agtOZffH48p+FDteh+fhOfFttHWXZSssj8noqVz8MvcqPOCCf0xwxVtWO1QfgoVbwtGlUT6ORr2IGV/Lakt95+LLqUHKUaRj73+PRaTasX0QItbMRYiVJ1dkHh3wnIKB7fSIX/Iy5uyRE5Q1DPtwI17zL34e8k9vxeeZzyO8hw7JXw/Am2ZPrQ79Zq/GlKdtRNJUydg64E1Eq+PeCP/bMgzxsx5Ey7+uB5rq4HR2KwZM1pYwF4JZGyPQ09rmrscjMmwO9sqiStcPEcsnKufCRtDOchnj+TTd5yLhy+MwpJ1yRGbnIRzL4oZAufJLYXnOLejyEbf5MgKcGuP7Oe4Y85OsJyIiIqpGzPAiIiIqi7TFOLV0MZKOpCLnNox3ayzM1yP7+Hac3mMlMFRmyrr/rmzjVJbsx0pZ/90sZOxfh8OfzIbeaifuetz8ahp+O5SKW3J6YX4Wft+5GL9ujrLd73vhd0hfOQ1H95xEdk5+0d0nC/ORdy0VqXui8G9bx/RTIxxMdVRGctBzhNUUMuClIHQUzQhvnUS8rWCXoGzjxHUx4omO/2HI8YpH5OT52HE6C/myby7oUxG/boaaeSQbBVrQY/M70xH9cyr0hmWU85AcG4mxf4lGpqwqTo9d80ZgRORWxKco2zNduVLISonH1qWRiJFV4jmKnjkHm39NL9qOIj8rFQfXz8HYqBO4I+us24v5f4nEjkRleesHYk6/C5FjxyIy9ihSs0wWKMiHPj0JO1YtNQ+Q3Ud9xuUiQMTlUp2xmsEuIiIiuk+Y4UVEVA51LsOLyAbvITexe0ImGuS74B/vuuKtcvVsTrWGMbvLGQcjmyNst6wnIiIiqmbM8CIiIqJyS93aGJ8nNQCccvDHt/NQCT2Y0QPrHiKXZKnZXXlHXRHBYBcRERHdRwx4ERERUYXMn9kMB7McAZ+r+Hju3dLvOki10ri5mXi1XR6Q1QwfzH2IndUTERHRfcWAFxEREVWM/iGEvd8cZ/IL4PLUNcS8Y9KpFdUJPcNz8O5TeiDfFV+8r0NUeW7tSERERFSJan/Aq3cEomMWYKQsEhERURVIaoAxC1sgNasRDsaJjuypLjm4vwFSr7viH7NcEMF+3IiIiKgGYIYXERERVYrUgw3RaxgDHnVSUgM894oL3joqy0RERET3WYUDXs7uTeEsx61zhqt7yXMQERERERERERFVlnp+fh3uyfFy6IY3P5yA1qfWY86n+5Ara4s445k3F2BUmxP4dOpqHJa1xQVj2upJCGyilfSHVyB8iQ8WxoQg+3AGArv5qPUpccMxAwsQM8CkvF4d1ZouTgyEThaN09R6V+wNm4kNhu0gAcvHR+KAMnnkok0IbaMuIrcraomISpaXd1uOERERERERUU1TwQyvw1g2az1+9x+FuW/0tsj00oJdw9qcwPr3Sg92+Z1agbCw4coQi9NyCqBDYPNErT4uBT4DNiEmwLRc1DdXcA9XnF4pli8+zWDkokkIzIxFmAx2BU+NQiiUsrrdFTjdYRIWjtLmJSIiIiIiIiKiB1PF+/DK3YcPZ1oGvZzxzBvvq8Guze+txr+Kp34V6R0MPyRgjTGzaiMWG8f1SIjdqI2uT0RKsbIHvHprxQNLZmLxPm1cm2bOSwS33BOwfLpcHiMwsBuK1ocD2H9KDw/PYFkmIiIiIiIiIqIHUeV0Wi+DXhc6DMPcN57DcyLY1f5M6cEuwccVusw0NeOqYkZgYcwmxKhDKLRGjwY+CBTBrfVaZlcRHQInGpbZhMnddNA1N1+SiIiIiIiIiIgeLJV3l8bcfVg2azMudBhpf7DLwN0LFcurEsGuEGQbmjSGxVpkeKUgNi4DgRMtmzkq9er8JoMxA4yIiIiIiIiIiB5ElRfwEkTQ652xGDe1DMEu0fywSSDGTjWEvEZgmnHcTr294IEMpBmaNI4KsMjwUqyfieWHPRAaYwh6bUTieR+ELhqhloiIiIiIiIiIqHao3IBXuWzEjLBYZHSbZGyO6JpexgaO+yKxRg1myeaJASJ3q7gDS8YhVgS5YqIwrTewYfoKJLiHyu2KQasnIiIiIiIiIqIHVz0/vw735DgREdkpL++2HCMiIiIiIqKapgZkeBEREREREREREVUeBryIiIiIiIiIiKhWYZNGIqJyqKtNGp1bdsXTvQLQ1s0ZjuInk4JcXD13BD/8KxFX72jzEBERERER3W8MeBERlUPdC3g5olXwnzDoMVdZtnD7An748lsk2XuHXiIiIiIioirk2KxZs/flOBER2amg4K4cqyO8++JPwa3gWJiLCwdjsfW7H3DoyG9IzmyENm2bo0H9pmjh9DuOnb8hFyAiIiIiIrp/GPAiIiqHOhfwyjmHK7pWuHvgS+w5p0eByA2+V4DbWedxrUlnPNrcEfUb3sX53y6ASV5ERERERHS/sdN6IiKyy6V/bcf+K7Jg4tKVq3KMiIiIiIioZmDAi4iIKqS5exNt5E4e8rQxIiIiIiKi+4oBLyIiKj+HVghopwW80v99FOzBi4iIiIiIagIGvIiIqJyc4f/C8/B3VkavH8P+Y/laNRERERER0X3GgBcREZWDI1r1ehHPPuIE5F/CD9t+BHvyIiIiIiKimqKen18Hca+tqtXmDxjxfDvoZLE4Pc5+txH/PC+LFRaMaavHAOvHYfE+WWVq1ALEBCQibPpGWVHFekcgeqIr9obNxAZZVeM8CPtIVIPk5d2WY3WRM1o/+yJe8G8C5Kfjx398g2OZchIREREREVENUD0ZXm6PoK2/Px61ObTDI25y3hIET41CTMwCjJTlSiUCPjGblPXLYXUEguUkm0TgzJ75SmOx7YWjZD0RUY3jjPb/MVQGuy5h/1cMdhERERERUc1TPQGvhLWY/847+C+bwzysTZDz2jQCA7tlIOW8DwIqOSCkBtIm+uH0yuEIC5PDPlcMrKbA08hQkVklt7syAR4DojCtt5xIRFRTODRBQOireK6dM3D7An74YjsS2Us9ERERERHVQNXTpLHX21j11tNwlUUh+9BHmLDkR1myg6EZYmKA1eaIImg1uZvWaFJ/OBanO4SYNGkcgYUxofBRp6YgNg4INazDjqZ8IxdtQmgbWbiRgOXjIwGT7QkpccMxY70YM92WrE+R2xDbHSCnnI+10aRSNMecBNd9hvWZ0qYFajdEU45zBcKX+CjbC0H24QwEdpNHKLYJ5XzJbRXtm0I93kBj81LjNLPzILcD7VgPKJNNz4G2XVFLVHfVuSaNDp4IenEAuno4ATfPYffXu3AmV04jIiIiIiKqYaonw+vXL/HhgnmYbzJ8uPmYnGifkQE+SEncCKxPREqbEPMMqFELMLnDaSyXWVJrEGIMCmlBolAgTmZQhSUiwBB0UgT38IPufGIJ/VaNQABi5bIrkIBAjJ0ajANLxiEsLkULgCnTTINdxm2tTEC2ug7BRwuyyXq95TEY+cC1SQoSbQS7/E6tkPsSi9NyCqBDYHO5bmWffAZs0oKCxnJRM9DgHq5FmWwW0wxGLpqEwEzlmGWwSwQTQ03OwekOk9jskqiOce3+nBbsEhq3xXOjJmDCBCtDqL82DxERERER0X103+7S6NS8HR4PfFwO/njEdo/2avZRSBtDEGgjEs/r4NfD0HNWMKb19kHKPi04IxxYshYJhmY2o0LVTKUdxgDSRswQgSoT+qvmZXPK/MZMrAPYf0ovx60YFQCf87FF2VTKPi02bjcFsYb17DuA0zd0cC2Ku0lacM7jcGzxAFzvYPgpx7HGmFm1EYuN43okxMp1i4BgsbIHvGRw7cCSmUUd+avTzHmJ4JZ7ApYbj1k0JUXR+uQ58PCscM9lRPQAechRjhARERERET0Aqifg9cTLeGfmbMyyObyNl5+Q81phmYW1ITYB6BCMopCLHtklxawy04zBMGt0zYtFnsxoneVrHcqbNmO0FOzpUUrwzOAA0iw7eVY7rhd3lhxuvbmgjyt0pRyHfUQWmqGD/KKmlxofBIrg1vqi4KFGh8CJhmW0c1DaOSOi2uXqgU1YtWpV6UNsklyCiIiIiIjo/qmegNf+jzDhlVfwqs1hAj7aL+ctJhi9OuiANqHGgEuM6IOqSaBJp/KW2VKiWaAcFdy9TIJjWmDK4MDPp6FvE2Dzzo9q32DN98rmfMOx/HAJGV6KcgWCRLBLOZY1YYY+x2ywOI6yE8GuEGQbO+ePtcjwEv2bZSBwomUzR6VeHr9xsNr/GBERERERERHR/Vc9Aa/AMZj14Yf432LD23hBzmKTbJJo6J/LMIjAk0/ACGUGrYmdT+8IYzAoeGpIUeaSaLZnFhwTTfRMsrT2RWLveR+ExlgEeUYtUPupattcZ5K1JYNvNmjBs9Ci/q2UfZpm3K4twco8fjhdLKtKEE0cN2nrk8ch+g/TjMA047idenvBAxlIMwTVRBNMOWq0fqZybj1MzodoQqqcn0XiXBMRERERERER1XzVE/DKuohzSUn4d7HhHK7IWWwRndXrTx0oFgzSgktax++iA/nYzEBMlhlgY7G3qA8v0QfXygR4iI7c1ekBSLTow2vDdBFAE0EewzzKEJCo9sW1YXosMrpNkvVj4JppkuG1PlbtxF5sVw1K7YtEuOm2JvqJ5KhSiGw08yaD6lAswKQcR5jpvoTCNb2MDRyV/VtjepwB1ndPPZ9qEDBKPb8bpq9AgrtJhp2sJyIiIiIiIiKqier5+XW4J8eJiMhOeXm35RgRERERERHVNPftLo1ERERERERERERVgQEvIiIiIiIiIiKqVRjwIiIiIiIiIiKiWoUBLyIiIiIiIiIiqlUY8CIiIiIiIiIiolqFAS8iIiIiIiIiIqpVGPAiIiIiIiIiIqJahQEvIiIiIiIiIiKqVRjwIiIiIiIiIiKiWoUBLyIiIiIiIiIiqlXq+fl1uCfHiYjITnl5t+UY1UYN+m/BE911wNkt+GlDlKwtRdcVeGqgL5Adj18/no08WU0Pgj7wfGsa2roC6Tv649wRWV0aw3NuoUzrqJB7iPzkGrolNMNzq+rJOiIiIiISmOFFRERENVvDoWg2bC26zFwBF1lFIth1Ba+2y4V3YD76yFoiIiIi0jDgRUREdnFs2hZB/Ydi1H9OwIQJ2hA+9lUMCvZH8/pyJqKq4B6Ihzu0RKOHZLmmODIJP/21vxwW41y2rK8G4+Zm4tV2eUBWM3wwtQG+l/VEREREpKlwwMvZvSmc5bh1znB1L3kOIiKq6Zrj6dB+6NqmOZxNgluOTq5o9dizGDr8BbR3kpVEVKW8h9zEu0/pgXxXfPG+DlHKKBERERGZq2DAqxten/UB5r7R20bQyxnPvLkAH8wcqcxpW/DUKMTEbNKGRSOK6hZFYNpqUb8AI7VaWdaG6KnBai0REVW9PP1VnDn0Lb5YswqrVilD1Bp88f8ScTVfmdiwNbp1aaLNSERVqACRwzLRAE44s6MJIpJkNRERERGZqXin9c698c6CUXg4aT3mfLoPubLaEOwa1uYENr+3Gv8qmmBu1ALE9M7G8vGROCCrBBHwmtwNSFg5Dov3qTWYtnoS/E6tQPgSMecITJuagsXqOBFR9WKn9UU8e43CiwHOuHF8CzYduCprq5mDNxp0Ho+WPTrBvZkODWTTtzs5l3Hl4DqkHrLV4EsHR/934PNcENzdnOAofgYqzEdeoZO2Dlud1ntOgveLfdHCQ4f66jLKNXEXaCCy3Cqz03rXMHgMHIxHWrtp+6Psm/7iSZyP+ytyrpim9ejQaPDn6BKoA24n48TKSci5KSeplHMy4HM88aSc/rEy3ewSVtbf/T207ekLFxcn9dewgttZyrnbhIv7t6NAm6k4hy5o1HMM2jxZtFxhfhauJezBxT1RyBPBUMll5E50agfcPLQYx3daPB+t5uGx8CA0Njl3xhsHlEqPc9FDkX5JFoUyXw+GTuvlugq057el8vyKa6IgMxVnd0TgWkqWnN+asnR8X/y6K8zXI+v4NqTErcMd5XqypefkbMQMylE24oGI1xrhC1lPRERERObEZ9OKyd2HD2eux+/+o0wyvZzxzBvvlx7sElKyoW/iirayaOb8XhnsUvQOhh8SsMYY4NrIYBcRUQ3QQEYTCvLv330JG/RbiicGB+Fhz6LghlDfpSW8+k/DE0PCZI2pjnAZFoNurwTDo5kMdgkOMthllbL+P8Sg+4RB8FK2pQa7BOVRDXZVJq/Z6DR5NHzbyWCXoOybrnUXdBofDU8v02CQHrd2rMa5TGW0oS/8XhwHR22Cpt178BfBrsIsnNsYYRHsEudhHbr07whXGbQSHBu64eG+kxA40mJdBo1Ho81bi9Glr/lyDk5u8Og+FK0ekxX3QfmuB41T5xV4Ypz2/BquCUd3b/iNXAnPVlq5YsQ1FF3sunNw0qFZ1zA8MXEeGhhOZjGFGN89R3l0QuJuBruIiIiISmLzI1WZyKDXhQ7DMPeN5/CcCHa1P1N6sEvYF4nwOCBUbaZoaLpohY8rdJlpZllgRER0Hzm5onX3QXiunRNwPRF7D9+QE+6DuzeQfSoeJ9ZOw6FFshPxyHk4npAlkq/Q4LHn0cxVm9Wgfp9p8O/gBIfCLKRt+6houQ/nIemUSWqSqU7z8VhPN2WZfGTsj8LhyKFyW2/j6E8lZf+UkcNQeL0aDBflXVp/ajt+NWznw4+UfdOj0MENbV99D41M38ULv0P61/G4qRxw/XaD0LprR61erOvFLmikjN78ZS3S08w7fHLsKc/D7cs499VsbTvzx+HwV/HIvC3WNRTtesp1GQWh2cgwPCxumagsd16cv/ni/A3FoaUf4cSRy8i/q81ZXnk75TGLIVo5LrU2GScMdcbBIrtLKMf1oNHBq7svGuSbnIuP1yFVBBKVc96m36SKf3ASwUf1GtIjfafhvIXh0NrtSM9RNuMeBP+BQ+XMFrrm4TFP5THfWXl+tCoiIiIisq5yAl5C7j4sm7UZFzqMtD/YZbB+JsLChiNMBL5WR8Bmz1zuXranERFR1es4yHiHxgljX8ULT3gi78IP+OLv+5FeQjOsqpb3zzFI2jwbOReOilZ/mtsHcHPbWqSKhBi0hEtrtVYKQ6seLZU3wXz8vjUcqQnfFS138wBuZd+RBVNd0OyZjhB99mcfmIfkPVtw57YMHt0+iVtXRVSkcjh07w+vxkBh2nc4sXkF8gzbufkdsjfPQrII8DTuiBb+WrVR2myc3HMZhXCCZ7934NpYh8ZDRsNbWVdBynac3PmdnNFgEFo8Jc6DHqlfTUL6iXitujAVd07MxqlvjqrNC5t1Hmye5fXYcLRroTzmpyJp5Rj8Ls6f+vzrUZjzHXJ2jEHaMVG+P8p+PZhQm4SOKToX2TFIizkAsZjDI53QuEKfnLzh/owWfLy2ZxbOHTKctywUXliBc9HfQVxFjTr1gvKUFdf1DjzE41UnfMuO6omIiIhKVHkBL0EEvd4Zi3FTyxDsMlVS88b1iUhpEoixxo7qRR9eDH8REd1fjmji8yz+NPRZtK6RN+TNlwEFhWkzRa9OcBFNEHNP4soJOyMHDr3gKoI8uIwrP8pgSBVp7OOtvkFfO7raSv9ZJ3HzothnJzRp3UerMlFwcDGSzuYrk73hF/45Hu2kHOjtZPx764ri62oRiGYispJzAlfPWjkPp84gWzy2aA3TBpSN/X3VANit49uQbdZXWE1n43owkf5Py/7PFNdO4Lr4XOPQEo1aalXl0x9NHxGPqcj46aRaY+ZmAq6LE+6knG8rzSfHeWvRu5y0h3BQHSMiIiIiWyo34FUeotN6wx0aJ/rh9MqZ2CAnmduIGWGxyOg2Sc4fCtd0NnAkIqpWJ7drd2gUw/+tx5a4eFy4Kfo48scLg59Gczlb9XNDg8B58J20Dd1m7cRT7xkGrRPxYjzdtQDOlQu4pVbYoWVLNTMHOanQV+k9C4LRSJ5IjwFbTI6laCi5M/eTyPlqO9KVfXR00aG+mr0VUTyIIyjHpMYpXYLwhJXtPPXeUIgWdOaCoWupdViWc2m7+ljzlPF6KFUm7qqxpvpoWK7lpRYtoVM/eXnD32y/7Nw/Q5pdQT05QkRERES23P+Al6E5ozoY7sgIHFgyDmHTN2oFIxH0Msw7HDPWy2oiIqp+d3JxNfUIvo3ZjXOiBWDTAHRtp02qXh3hMnKd2km56ATc2JG8PYzt3cqgyptuOlX83fkhJzgY16FDkzad5LiFh8qzqUrYvypVgeuhVHeQf12OlofyvFREU6cqv/iIiIiIao0a/ZGViIgeAIXnkHZNjDiiQQO1pnr5jEFb0XE+8pF5aF1RR/LqsBjn1DZ5Fu7KuJVrS7VPLnM6PORcvFam+AAu7rB2mI7OJWVdlcX3uCW7A0vfYTgO68Pxnd9rM5pyeB6eYwbBQzkl2SdOqp3Yuwa/Y3FXR+lyptYZfHY8frWy/qJhktqHlaZo/xo07aKNVFQ99f/KUZ7roTQO7eEsOujHDeRXpO+sSxegLW6t833TwUpH/Irrt+THNsd72iMRERER2cSAFxERVYxDW3g1EyPZuHxRralW9du3lk0Nj+L8zpiijuQFh8YmmU4mLlzQAjjuvmjSUK0xcuwaCf/HrGTiXDmDGyLm5eCNJpaZbF7z0DGkQp07mdGnXVYfm7cfrT7aT4cG/cejrTtQeOV7JH81C6ePKOdD3NVx6HQ0sDwXl05ox+TaHi7qc2gfw/65PjHc/E6RJSi8rQUM6zspO2eq8Ti0DQsy6yOsGEOwUQQjLZ4vS+W6Hkrh+FQwPMRy15KRU56AmdEh5FwRj95we6zsAdKd6VrHYy5ed9FTHSMiIiIiW8rxsY+IiEjh5Izm3l3xwrDn0LY+kH/+MI7ekNOq0R1Dr+mN26O5v8w4cvJFo8DF6PDOJLRRM3MsZO/BNTUrrSXaDnsbDRrqlGWC0Lj/WnQe4AtHqy3HtuGa6AweTvAasBiN3d3U4FeD7ivw+FhlWWVKZTU4K4g/imvKyhz9w/C4sn86T185RdE4GLru8+A7+SNYHpoI1j32pHIshZeR/OVi3IEeeTs3IVWcItcgPPbKOIs3/m2y0343+L6+Fg8HPg9HcS4E5dgcW4fBY8ha+PU17xy/4Md4df/QuAsen7wCzdoHFwWSGj8Pl4Fr4dVZlqVb17S0sAadBqGZp3LuoIOD19vwfWMoPEu74YEh2Cifr0aNxfLWlet6MNGo1VA0MKxfLKc8v536anf0TN+3VjmnFXEU2ce0u2g+/OLnaNvLZFvKc+DgORSu/aPw2J/GyTpzqT81QIYYaZWPF8seLyMiIiKqU+r5+XVgXjwRURnl5VVpr+U1j0cvDB8SgCayaCk/4wjivolHemVFfMqi4Ti0fWsoPK1l/hTmQ38T0Lk4qc0Dzx2R9UKnj9DtTx2LNWkszE1G0rZMtB4WhMZnt+CnDVFyiqLZNPj/uQ9cLX8uKszCuTX74fz6IHiK5oEfz0aenFRejl1XIHCgr5UmlwaiWZxJU8PGk+A7WTZl3DcbSd+b3Emy3WJ0GdkFjUTQZsc05TyY3CFQNIGc+LaaFWbLzUOLizWfdHzsI3R6saPshL24Yue7hOcp59BR3OneBc1KOHcN/hCDLj3drPxSp8e5aJMmgOW6HvrA862SO4y/mRCFk9u2mN3p0mXkTnQqrd+6Ysck+hhbrCxnJYvQwPK6MyrE2g0X0cfDEanbW6HXcnZeT0RERGSLjY+pREREpbiTj+wrSYjfvglrtt6nYJdwOwrnVscgNV2PArkPhXfzkXP2AI6vHI1TSTZyck68jYTN8bh2U4QRFIXKMqe24+jHk6zf0VC4thhJq7fj92v5chng1oV4/LY8HOlphmZ3laPgyCQcXrUF585mIe+urFQU3NYj+1Q8Tny2qCjYZdJvl9qU0TTYJZz9K5JPaNlpngOmwV2koxkUfof0ldNwdM9JZOfI4xKU85F3LRWpe6Lw7z3F+worOP62ctzrkHzqMvQmh15wOwsZ+9fhQoKsMBDP01qTc6coyExF8t+n4cTOM6JbtRLl/XMiju602EdrynU9HMLVbdtxThxLrvk50KefxOnPp+G4RbCr/E4iZ8No/LotHhnKuTDso9hoXs5l/H5oC379apOstOSA1T+JFLUCeD91C69qlURERERkBTO8iIjKoc5leBFRzaC7i6/XX0JXnRNS/+GJXiuZ5UVERERkDTO8iIiIiB4U+ofw1leuyEM+vF+4jo/9ZT0RERERmXFs1qzZ+3KciIjsVFBQWgMsIqKqkfNbA9z2u4tn2tyE/1MPQf+tE45UrDd9IiIiolqHTRqJiMqBTRqpNA36b8ET3ct4Kz2bnZUTWbqHyE+u4NV2eci75IH5YxvhczmFiIiIiNikkYiIiOgBVA8RUz2wM0WH1J8aMthFREREZKH6Mrx03qjfoi0e0p9CXsZlFDKvjIgeYMzwIiIiIiIiqrmqPuClexruQ19CS0/nonSyeznI+PZjpCdelhWVK3hqFCY334uw6RtlTdmNXLQJIVdXIHzJAVlDRFSEAS8iIiIiIqKaq2qbNNYLgHvYCLSSwa7Cu3dQIMJr9RrB0bF29K4qAmPRU4NliYiIiIiIiIiI7rcqDXg5dBuIlm7aeG5CNE589DZO/u98JH8TjUvHrim1znBwaQmHeto8REREZdGuXTs5RkREREREVKQKmzTWR5NXP0Kb1sronVM4+7ePkatsqf5zC+CRMROXjol5+qPVu8/g9uczkZkuyrYEY9rqSQhsopX0h7WmhmrTxW6GO2ClIDZsJjYoY8WbNI7AwphQ+MhSStxwzEiJQPQoYM34SGiNFsU2xgDrx2HxPosmjb2VeScGwrglsfx6830y3b5YNrSNVmtar+1HCLIPZyCwm4/xOEyZHdONBCxX9q+tui+xON0hVG5Pj4SV2n4a1xl3Gn4D5D7K5dgYk6jqsEljzSACXmfPnpUlIiIiIiIiTRVmeLVFfVc5eus67ohgV69ZaNfZBa59I+H5zGi0e3cg3OGCVq8tR6vOct5itMCS36kVCAsbrgyxOC3rezU/jeVq3XDEnvdB6KIR6hRzWrALcdp8YSsTkC2n2Cu4hytOr5TLx6XAZ8ACjMQBLB4vtqsF4MJMgm2h7gnG/QqLA0JXRyh7a6BDYPNEdZrVYFcHk2M6JScodN1CgPWGdWYgcKLYBwNlnb2BNYblMgMx2eq5ICIiIiIiIiKq/aow4HULhXlyVLqzfz7OHstB9p4IpO/7GudX7UY2cpD+zWJcPilnstQ7GH5IwBpjcGgjFqvjB7B4elEW04bEFDlmYVQAfM7HYsZ6Wd4XicWGcTsdWDJTZlMp1ifCxpYUIzCwG5Cw3iS7an2ssvd+6NVblkV2Vqy1zvSD0auD+bIblhSN6w+vNdkHZZ03fBAwSpbFOk2Xi02Avk2ASUCMiIiIiIiIiKjuqMKAVypu/Z6rjbo8iqat6qujdw58jPRTyvi9HBTk/IJru3cjOzUVhbb6sPdxhS4zrSiAZGrUAsTEbNKGAYYGi+aCPT2gv2o7RGUfkSUmt2PSNNK6DKQZAlOqA0jL1MG15IUUPnBtYrmsLWKdctSafWnKXhARERERERER1U1V2ml9XvwvuKH2EOaClsPn4pGX3kKrQX9G+8lz4a4GwFJx68hu3CmtKxx3L5MmgZIIdvXONmk6aDuopWtearSpBLKPLEOTxrDYEjK8BA94GbO5hGB4ueuRbVfMzXJZW0pZZ28veNzIxjlZJCIiIiIiIiKqS6o04IXMr3Hpp8tQk7fqucC1fQe4+zRDfWXc4w8DoeV8lUI0IWwSiLFTDSGvEZimjIvMLZhkfo0MsB7UOvDzaejbhGKhoflf7whME+MiC6pJUVPD4KljTDqgNyGCR6ZZW6KJpBwtbiMSz+sQOMqkz65RoQjEaey3kbklOriPVo+t+LIjpxaN67qFGpsoqvtqtk5luVBDn13ByvEFAqcOWM+KIyIiIiIiIiKq5ao24IU7ar9d/173d6QdO4XszFzcupKK9N0f49+ff60Fwkq1ETPCYpHRbZKxSaFr+gEcWLIWCe6hsm4TAmzlXe2LRPjKBHgMkE0SJ/qJGycqNmLHYSBwolY/FnuRcENdwpyy/JrDHgiV24kJkItLor8sqPumdSK/YbrsNN4wv8hCs/OOiZbLhjYvCujpD2cjQNZP7paBWLN16pFwNUDbXswkBGbGFusQn4iIHlQhiIj+BnFxcfgmOkIpERERERFRaer5+XVQGx1SzSWywEKurrARxDI0uRxX1Kk9EVW5vLzS2mJTdWjXrh3Onj0rS7VU37n4cmoQdGpBj/glL2POHrVgQxDC/yccfQIa48zHI0qZt2KCxi1EeEhHND61FCPm7pW1NUX1nQciIiIiqnmqOMOLiIhqq+ZPDceECRO0YXgvNJf1VMn2fI/4S/nqaP6leHxfauCmC7o84Q03JydZrjpdunSBt5sTqn5L5VF954GIiIiIah4GvIiIqOxcg/Dc49Y6PqTKtxeR4S9iwIABeDE8UikREREREVFpGPB6AIi+vWz3ySX6OGNzRiKqTq4I+o+ucHUowKVLV2UdERERERFRzcE+vIiIyqEu9+HlGvQqXu3qioJL+7HpTDuMeqYVcCMRWzbtR3WHv6q7D6/w5XEY0g7Q/xyJly37rDL0tXU9HpFhc4yZWNoyWt9bkbcmYt74PvD31Hrkgj4V8V+tROQXR6HXaqQQzI2JQFBTWTSwWLfRuGWIe8lXFkqW/PUAvBklC2UWjmVxQ2DXls5uxYDJ0bJgoEOXV9/GxMFPqk0hVfl6pCZux7oFn+Og+Ukw0nUehrffGIQnvd3g5KjV5Wel4uieGCz9bC+ytKpKOA9uCJk0G6N7tYNnU7l/BXqkJx3AlvVR2HHMxg4SERERUY3DDC8iIrKfc2eEBLoCdy7hx92JyJXVVBodWg/8EGtnDywKdgk6bwSNnoVZL5nU1Vo69Ju9GgtH9ywKdglOOng/MQyzVs9FPyunQddvLlYveg09fYqCXYKTm3Luhk7ClL6yosL8Eb58DSJC/YuCXYKjDp4B/TBxfJisICIiIqIHATO8iIjKoW5meDmj80uj8HSLAlzavwnbE3OBjoMwgRlemhIzvGQBeiRticS8z+KR33kYZk17DV3clOrTWzHgL5bZUCYMmUu2MrzMGLKw7LmjY8WUeD4s6F5aiLXjukCn7FdybBQi1+5Cqt4Nvv3DMOX1gfDVKes5Fo0x07eaZLt5Y+LqVRj4CJB17HOsWL4dBy8qU3Xe8O/9PMIGB+HOVxMw3+oxlvE8hC7El5OU/ctPxa5PI7FuZ7KaOebm1xN9Qv+EoS1PYMT0Ep4jIiIiIqpRmOFFRER2ce7SD0+3AAou/YjdIthFZZSF+KVj8M5n8WogRX9sM+bvTdYmtfBGiDZWS3lj9Asi2AWk75yNN1eIYJeoz0LyzpV4c/YupCslnX8vDBLVRr7wVO+NkI8L8TLYJehTkbQzGnMm2gp2lUOrxur+4epJ7JTBLiHr9EFsXfoOg11EREREDxgGvIiIqHTOAXiumyebMlaA/pd1mLPLvA8ofXKmSTZTbfY8Oj4iHlMR/1mSWmMmKQEXriuPTt7oaNZEMR4nf89XHp3QZdRqfDipH3yba1Mq3bFUNeiGVv0wb+UsDHvaWwuAEREREdEDiQEvIiIqhTMCnnsareoX4NLPu8HkrnIqEIGbOqp3S7irI94Y+GUc4uIsBysd9Kv02Dx7JfamK+fOyQ3+oVOw7PM4fLlmGea+3g/elRmR+jkSi2OS1ACkzqcnXpu9Cl9+sxGr/mcKhjwp2p0SERER0YOEAS8iIiqRc8fn0L2VI5syUvnVrw+TbuDLRr8LkWNHYManu3D0YhbyCwCdpy+Chk7Bqs9XYcrTlRf1Slr/Dl5+LRJbf05Guoh8ObnB+4l+CP/rRmz8nyHw12YjIiIiogcAA15ERFSi1u1aqcEKx1a9MGrCBEwwHUSH9UKTAAyVdYM6alV1zkPykYrbk4rL6kgytg4YgAE2B1udy+txdNtSzBg/Ai8OGoE5UbuQLAJSjbzRb/wkdNFmqhxX9yJ67psY+/IAvDx+Kbb+mg6Rm+f2xGsY/6o2CxERERHVfNUT8KrXEYG+8zHphf/Df/9RDgOX4/WAl9BSzlKZgqdGIWbRCFkqn5GLNiF6arAsVY/7sU0iIrLfzXytWWL9RloDPSP/cCybEFTD+nyqDyerzQQrUYH2UOx8FBOPVLWDLG90GlXRs5SF+K+X4s2oeK3/M09vBKn1tpT/POgv7kL0f0/GrhRRcoJnh55qPRERERHVfFUf8KrXG6HPvIvQx1rBVaQI5N/B7Vt3cBfOaNm+M3y1uR5YDFIRUW2XFLsKq1bZGP51SZvpRiK2yLrtJ7Wq2ujkZe3efU7+gxARIvp10sG73xSs+p8h8G2kTqoBDMElJ3T508Iq7Xw9Pk3dEJw6D8XCsJ4l9Kl1FNt+FfM6wT9sLZZNGYKefoZ+sdzg23sIJs5ZhY0fhss6g3B8uHEV5k5S5g8oOg7dIz0xrG97rZyeqhyxNWU7DyEzVmHNBxEY1r+LScf4yr71H4cuaiJjPtLPHFRriYiIiKjmq+fn1+GeHK8SLX2X4vXHXJSxO7j4y1JsTDuJu2JCvVbwbd0XTc5vQIIoVyKR4TW5+V6ETd8oa8pOBLJCrq5A+JIDssY6e+ezR2Wui4iqVl7ebTlWx3UcpDVrFAGvTftxVVZXl3bt2uHs2bOyVA18wrFs6RD4WumQKuvno7jZowu8r8cjMmwO9sr68OVxGNIO0P8ciZfnGmqlvnPx5dQg6CyWMdbLoi3JXw/Am1GyYML79WVYNtRXbYpqydYy5VLC+cDZrRgwOVoWBH/lXCxSzoW1maViyyjrj1PWL0vFZSF+6fhid780KMt5CJnzJSJ62D7j+cq+TVf2zco9JomIiIioBqriDK9u6OYtgl2KKz9hiyHYJdy7hGS7g13BmLZ6E2JitMGQUaU2XZR1MTELMFKttWYEFhrn24SFo5Sq3hGIXh2hrNlAbCMK03rLoikxr+Xycp9C2wC6bpPMti8CV4Z5zfdL7IeyjakL1GnWM8N8TI7Vxv4QEdH9kRKN6Yt3IDnL5I6LWak4uG4Gxs9NVvt6qglSP5uOOesOItV0P6uCOB/vfY6DKVpn8iVLQvTksYjcEl9sv/KvpyP5561YuihG1hjEINrQWb3pIvl6pCfuwsrptoNdQlnOw94VK7TO6q9b7Jvy/MZvicRYBruIiIiIHihVnOH1Kkb/8Xk8oozdTFqNv/37J626TERgaRL8Thkyn0Zg2tQULF4CTFsUjP3TIyFqRZApFLFqVpd5hpcIMoUCccMxY71S7B2BaT6RWJwSgehRwJrx2vLadsYA68dh8T7zbKvgqQvQ6+eZaj1GLUDMACA2bCY2KEXLrCx12x1OY7lhvWL+3tmyrO2Lz3ltPy2px9BGj4SVRftgOCYiqlmY4VUzVHuGFxERERERPRBq/l0aewfDDwlYY2zmtxGL1fEDWCyDXcKGRLVH2eJGBagBJjXYJeyLxGLDuJ0OLJHBLmF9ImxsSTECA7sBCeuL9gvrY5W990MvY6aWHgmxtgNY+sNrjdtSj8ndyyQLjYiIiIiIiIiISlPFAa8zuHpdG2vs3hGNtdGy8XGFLjOtKIBkSmRPGZoODvCRleaCPT2gv2o7RGUf0yaRobC+JYMMpBmCY6oDSMvUwbXkhaxLydbuQEVERERERERERHar4oDXYRxOzdFGWzyFoV4d8ZBW0jqtbzMSgbJYImtZToamgmHDESaGONtBLV3z8kSbDESwKwTZK+V2wmJLyPASPOBl1u9WMLzc9ciuaMyNiIioEonO9OPiyjZ8OSdELk1EREREVLNVeZPGy2e3ICFbjNXHI0++i2kvrMJ/9VuFaaHzMSzQt/RbpYsmhE0CMdbYwbvowytYzdyCSebXyADrQa0DP5+Gvk2o7GheIfrwEuP70pDRpKipYfDUMQhsoo2b6e0FD9OsLdFEUo4WtxGJ53UIHGXSGf6oUATiNPabZX0VEf10We+8noiIiIiIiIiIyqPq+/C6tw+x//oAsccvIVvc+MipPho2qo+HCnJwMekYkrW5SrARM8JikaHeCVFrUuiafgAHlqxFgnuorNuEAFt5V/siEb4yAR4DZJPEiX7QZt2IHYeBwIla/VjsRcINdQlzyvJrDnsgVG4nJkAuLm2ITQBM7tK4YfpwxGYGYrJhfmOH9URERDVH9OQBGDCgbMPLc/fKpYmIiIiIarYqvksjEVHtxLs01gy8SyMREREREVlT8+/SSEREREREREREVAYMeBERERERERERUa3CgBcREREREREREdUqDHgREREREREREVGtwoAXERERERERERHVKgx4ERERERERERFRrcKAFxERERERERER1SoMeBERERERERERUa1Sz8+vwz05TkREdsrLuy3H6H5q164dzp49K0tU+4RgbkwEgprKosH1eESGzcFeWSQiIiIissQMLyIiojLyfikCy9Z8ibi/hcuamiQI4f+zChu/2Yi5fWUVEREREVEdU3UZXrpAOD/WBbp7vyDjUKKsNFUf9buPRpN6p6A//gvy9Lmynoio5qt7GV7N0Wv4UAQ0kUVrLv6AVbFJslA97leGV8icLxHRQwec3YoBk6NlbU0RjmVxQ+ALPeKXvIw5e2R1bTBuGeJe8mWGFxERERGVqsoyvHQDwtHumSB4PhuOR7q3k7UGItj1Dto9G4hWz7wCvwHPyPr7a+SiTYieGixLFdQ7AtExUZjWW5aJiIiIiIiIiKhaVEOTxvpwffZNtOrcTJYBx85vot2z3sqUshiBhTGbEGMcFmCkWh+MaauV8uoIZcwabblKC2RZGrUAMYtGyIKJfZEIDxuHxftk2Ro1KGY4DvvYHZQrx7qJiEp3A4lbV2HVKitDNWd3ERERERER2VJlTRp1Ly9HWx9ZEO7l4mrsYmRgBHxCO6BRPVkvpOzA8S93yoIVIqg0wAcpccMxY72s6x2BhT0OYMYSYNrqMfCDDhn7TKZLwVOjMLmbDvrDKxC+5ICstU4Ek0Kulj6fGbFvAYkIm75RVpSBCEpNdMXesJnYIKtKY/c+lmPdRGS/utukUQS8NmF/hqy+z6qvSaONztOtsdrcTocur76NiYOfhLebk1aVr0dq4nasW/A5Duq1Kku6zsPw9huD8KS3G5wctbr8rFQc3RODpZ/tRZZWVdTUzw7JXw/Am1GyUFG6Lhg4bjSG9mgHz6aG48pC6q/fI2ZFNPZe1aoM3J4cgtEvPY8gf0+4NZLzF+QjK/UXbP/0I2w+ZuNEGJSxSaOu80CMGzUUwX6e0Bl3z8r5q6gynIfw5XEY0k6P+KUvI/LGa5g1dhA6PqzTnl99Oo7uWIr5647C7EzI49b/shQvL76J12aOxqAAb+2YCvRIP7YdS5Xr6Ggpp4+IiIioLqmWTusLRUitnjOah87Fo4Zgl1JXqE4tzQgsHOCBhJUWwax9kZhhEvQ5fSoFPgGWmVYjMLBbBhIOm38CFEEjY6aYrcwwEchSpi8cJctqxpRhOTsypywyrEy3qWZoifVPDFS+Avkg1FBnbT4jLZMttI3yubrbJLkPWvaa+T5GYdp06+smIqL7QYd+s1dj4eieRcEuwUkH7yeGYdbqueink3UmdP3mYvWi19DTpyjYJTi5eSNo6CRMud8d0vu/hg/XLsTEfv5FQR7ByQ3ePYZg6EuybBSOv/41HP2e8C4KdgmOTnDz6YnX/mc5InrIukrgP+pDrF00Ef0CioJdgnb+hmKoLFdYmc+DoEPLXsrzO3sYujwig11qtSe6vDoXi173lhXmdM2DMXf1LAxTzqHxmBx18FSuo7kLwmF9KSIiIqK6qRoCXmdxKfYUbqlBL2WDarBLZHvtRrY6vRSjAuBz4zT2l9Q0UPg5FgnuIWZ9ZgVPDYHP+UTsl2XNCAQgFmFhw5VhBRIQiLGWASERODILso3Awol+OK2U1eXigFCbTSiLE1lmocZtDteys9bPRNjKBOiRglhZZ3U+owNYPH44Ys9DzVYLUzO3NmJGXAp8lP0V+zIyNBA4vBaLFxVfNxERVcRezAkbgAEDtCHyZ/lDiui0XtYZB4vMI91LszDuaTdlTI/k2KWY8LKYbwTe/HgHksVq3IIwbvYQmMe8vDH6T0EQS2Ud+xzzx7+srfvlCXjn462IT8nEHW1GTdSbRdsfsBXJaqXotN5QVzRUTnZXECKmDYO/2On8dBzdYjiulzHh3aXY+ms6blr7Vet6Ko7uisb8dyfgZXV/xHnYhdR8ZZqjJ3q+Okybr6J6RGBamL96TvPTj2LrUrk9ef6OXrqpzVdh5TwPCu8nxfNrck28FoldF8WJcIJv/4kYqM1mzicIQcpFoT+9A0vVa2IEInelQl3K73lMDNVmIyIiIqJqyvC6c/JjpOw6Kz+c30HmrsW4fPKWWrJLZhpKD9kcwP5TQGCoIcsrGL06AAmxlk0NN2KGsfmhWMYy/z8YCycGIiOuqP8tLXC2t6g/rvWJSGniirayWJoD6RmAu1epATJ75zOzfiZiMwMxcGoEQtwTsIbBLSKqUk0QMGQCJkzQhvDRozC0fy/4NzNJQSIT3hj9Qhc18JK+czbeXLELqerbThaSd67Em7N3IV0p6fx7YZCoNvKFp3pHzHxciN+Ogxfle5U+FUk7ozFn4gTMv493X9SNCkNPT2UkPxU7po/FjM8MxyWaae5C9H+LOlE2FY03wyZgxtKtOJiYqswpiPOwFO/sTFVLTp7t0VMdqwgdXnu1J9TdS9mB6WNnIHqX3J48fzPClTpRrqDynQeDLMQvHVN0TVzdi6Vvb0WSiF7p2iPIRgZf1s9LMeYvK7FLvSaysHfpO9iqLYT2T4ao8xARERFRNQW8hIJjy3D608U4+ekcXDp2Tdbayc4g0IEle5HSJkBrRjgqFIGZJkEqEyKTytBsUPTvZUrXLRA+52OL9QWGNqHGZWJiQuEDD3jZewfG9TOx/JQfJotlS8oMs3c+CxtiE+DRzQ+n10faERgkIqo8jg2d0Vx53X32T6/hxc5qhIbMPI+Oj4jHVMR/ZqVT/6QEXLiuPDp5o6NZgCMeJ3/Xsn26jFqNDyf1g29zbUpNMOiJdsqeAfrE7VhZCfcq0BeIY1U41FfXWzGDENhO3TucjF2JqryVQkXOg/7nKMzZpYX9jPTf44La35cO7ta6ZLsej6i5u2Sw0ECP71O03sh0Hu3VRyIiIiKqxoCXyOwqvJGKghs5smwnNZvKD73sCi5txI7DHgiZOgLTentYye7Sgl2Tm+81NhtcbtG/l/6waBoZWqzfK60ZoWzSqA6l3IHRwoEl47TtiYCWtbs6SvbOZ0o0Zcw4n4HAUfYHyYiIyuYq9m+yuCvj/63Hlrh4XLghpjvBs8cABLmqM5NB75ZwV0e8MfDLOMTFWQ62OsLXY/Psldibnq+cWjf4h07Bss/j8OWaZZj7ej94m/9WU816or2nFpa6nLJDfbSX6ER+ygdr8OUWi/NgZ4f7dundHtruXUZyrFpTRcp/HmxLxU15P4zGbl20ETuk3pJNNHXusH8pIiIiotqtGgNe5SWCWEDgxCiz/rlEP1sLrXTGfuDn00C3UATCer9fbZvroL+aIkui2aPlt4YULB4fi4xuk4xBL22dY8y3X05lb96odVZv7Jje0qgFCHVPwI7psWp/ZANtzUdEVNnu5OJq6hF8+9WPSBf9FDm4ouXD2iSS6lcgY0m/C5FjR2DGp7tw9GIW8gsAnacvgoZOwarPV2HK0/cr6uWE+uX49KB1wi87kW8kK6tCRc55mZTvPNgrP+eMHCuDWzdRjqWIiIiIaqUq+6h271Yu7qjDLXFDRityUWCcJ1fWWadmPcVlIHCioUmhMowCdljrr2pfJPaeB1KUR2vN+zZM14JZ2nrGwDXTojmBaiNmrEwAxHwiy0pZV7jl9k2zr8yaOxa/K6JpE8qYAUDseLlv6r4W3UnR5nwmRPNFdb/EXRoNneurTRkPYPH6BHgMkIFBi3UTEVWZ/HRcLfllvO7ak4rL6kgytpp0HF98eBlzrPbJpcfRbUsxY/wIvDhoBOZE7dI6um/kjX7jJ92nbJ69SJU9E9ifhVTUCT/0ydjx8ZsYYXr8X2vd7FcK4zlvDPcn1JEqUp7zUJoQeDcTj/nQX7f2+cS6kFYt1cf825kWzR2JiIiI6q56fn4drMejiIjIprw82e6IgBa9MPylADRBLpK2r8cPl2R9NWjXrh3Onj0rS9Wn5+yNmCXuvHhpFyaEL4XW5bo1XRCxZiFCPPORFDMC76yvhHBEv7n4ckoQdGoQ7U0rna+HY1ncEPgiH0ejXsSMr2V1JeoSsQYLQzwB/VFEj5mBraUelmGfgNRtL2PCp+YLuE1ahY2h3mofVZEWd7k0M26Z1vyxxPkM51zZvWPRGDN9axmDQDr0i1iOicoKnG6lY++qyYi07GtLKvt5UM7E8jgMaacs8nMkXp5rfgS6lxZi7ThxkwPluX1ZeW4N6yvpuHVDsHBtOLrogOSvX8abUWU7WiIiIqLa6gFo0khERDWRo3NztH7iBQz/owh2AfkX4xFfjcGu++ngmXSo3ay3CsGsKSV1KH8U234V92F0gn/YWiybMgQ9/dQ8J4UbfHsPwcQ5q7Dxw3BZZxCODzeuwtxJyvwB3jA0XtQ90hPD+rbXyumpiFdrLcUjVWxS2WaXPy3EsKeLlq8sR/+ubEOM6LogPHoZprzU09ivmJtfP4T/zxosfF0ray4gU3TOr/DsOg4h6vnSwfvpIZjyty+1YFelOYqYX7QQpK5zONb+bQqGGM+Bcs77h2Nh9ELlDNugC8MgEewS4408EfKn0bC1d2U/D0Xqu7cvuhZ03ugZNhfLR2t39NT/vKUo2GXKyR3te/tqmXLq+RuGuctfU4NdIhi2hcEuIiIiIiNmeBERlUPdy/Dyx6AJz6KVLFnKv/Qjvo49hmzRl1c1ul8ZXqLp2ayNEehpiF2ZKpaF44/w5YswRL1zoA1nt2LAZNNcraKMKOuyEL90fPG7/Enery/DsqG+VvuySv56AN6MkoUK8B/1IeaF+dsMplluJ2T2RkSIrDhrruuhb6qDzvLc9Z2LL6eKbLaSFT8mf7z24TwM87e5dzay4xQ+E7Fq5cCiIFcpWXxlPQ+GDC9b8i/uQuTbS3HQ9Kk1ZHjZkp+KXYvfwdIfGfAiIiIiMmCGFxERlc+dfGRfTMQPX6/Bmu3VH+y6v/Zi/l8isSMxHXo11askSYiePBaRW+KRmmU+c/71dCT/vBVLF8XIGoMYRBs6qzddJF+P9MRdWDnddrBLSP1sOuasO1hse5Upaf07GDP9cxw8bXEObmUhdd/niN4ky9LeeZOxclcqTHdJHH9S7FJMCP9O9rtVWZLw+TtjMEM5B8nperXDf4P8rFQcXBetnGEbUtZhy16ZwSeaNP49qoQmq2U/D7aI/YrfEomx4y2CXSUR21Cun8jwCQx2EREREVlghhcRUTmwD6+a4f5leBGVT0l9eNlkV99lRERERGSKGV5ERERERERERFSrMOBFRERERERERES1Cps0EhGVA5s01gxs0lh+pXWebk2ZmuGRVWzSSERERFQ9mOFFRERERERERES1CjO8iIjKgRleNQMzvIiIiIiIyBpmeBERERERERERUa3CgBcREREREREREdUqDHgREdEDi80ZiYiIiIjImhoR8Bq5aBOipwbLUnkEY9rqTVg4ShaJiIiIiIiIiKjOqnDAy9m9KZzluHXOcHUveQ4iIiIiIiIiIqLKUsG7NHbDmx9OQOtT6zHn033IlbVFnPHMmwswqs0JfDp1NQ7LWlMiMyuwiSwgBbFhM7FBGQueGoXJ3XRa9flYhE3fqI33jkD0xEBoU8T8iQiICYWPWlbcSMDy8ZE4IItERFWBd2kkIiIiIiKquSoY8FI498Y7C0bh4STLoJcW7BrW5gQ2v7ca/yoeDTMSTRpDrq5A+BIZphq1ADG9s42Bq6LpPlgYE4LsleOweJ82q0Y0aZwE133DMWO9rCIiqkIMeBEREREREdVcFe/DK3cfPpy5Hr/7j8LcN3rL5o3OeOaN9+0KdhUXjGm9fZCyryhLa0NiCnTNRQ5XCrJv6OBqTOciIiIiIiIiIiIyVzmd1sug14UOwzD3jefwnAh2tT9TjmBXEZ8BmxATI4cBPoC7F4JxAIvHxwJyGjupJyIiIiIiIiIiS5V3l8bcfVg2azMudBhZ4WAXoEfCyuEICzMZjP1ybcQMtU4EvqIwrbdaSUREdVyf0Tn4ZdVtvCa7fyQiIiIiorqr8gJeggh6vTMW46ZWJNh1APtPAYGjIhAsa6xj80YiIjIoxEs9b8HD5wpmLclDH1lLRERERER1U8U7ra8MxjsvFt2lUXRUH9pGmyykxIkO6UdgockdGfWHLTq6F00feZdGIqoGdbrTeocmaNWlK7p3aAe3Jk5wcpT1F3/AqtgkWbgPdHcR81k6eroBOT95YsCch5AqJxERERERUd1SMwJeREQPmLoa8HJsFYQX/6MrmjeUFabud8BL8M/D7g/S0d6pARLXeYouH4mIiIiIqA5iwIuIqBzqZMDL42kMf7EzmjgA+ZlncPSno0hKv4rcfDm9hug5IQcxQ7IBvTuWjWqMJXo5gYiIiIiI6ozK7cOLiIhqKWd07qUFu24c/wZrvtyNI6k1L9glHFzVGN+nOwK663hxLH/TISIiIiKqixjwIiKi0nl0xWMtlMfsI4g7kK7V1VgOmL27ifJYAO+nbuFVrZKIiIiIiOoQBryIiKhUTXy8IEJIN86fRrZWVaOlftUQiSL7zOMWXnxGqyMiIiIiorqDfXgREZVDXevDq33/CXiuDXApfjvSGneHn29zuBpuz3gnF+lnfsTe/WeQXahV3X/3sGpNKvq3AlL/0Rq9VspqIiIiIiKqE+r16NG7UgJebdt64dy5NFkiIqrdfv/9vByrG/xDJ+DZR2TBluuJ+Obv+5FeQ4Je4+ZfxaygXOT85IXH58jgHBERERER1Qls0khERPa7nY0zh77FlvXRWLVqFVZFrcE3P5zDDRHkahqAkG6i4WMNUaA9uLjLESIiIiIiqjMY8CIiIrtdOvQFdv96AVdzZRCpMB/pSbsQd1Tr2cu1hZf6SEREREREdD8x4EVERKXKuSl6gAecG1vP4Mq+kauNODdRO7evSXIy2ZyRiIiIiKiuYcCLiIhKdenKVfXR1dsPzuqYuVYtXNXHguyruKGO3X+Pt9SCcNfTGfAiIiIiIqprqi7g1cgfTl1eQuPO7WWFpYfg2Pll6Lo8iYcaNZR1RERUI/37JM7dUR49gvDif/jD00mrRv0maN39RTzvL8JgN5CUcE6rv+/y0b6VeGyCMz+pFUREREREVIc4PvJIm/fleIW4ubkgO7vod/0Gf/gzmvu3QAOvjnAsSMHt9Bw5RRDBrrFoHuSDRq38oHO/gxtnLshp98+QGR/hPx/LwP/75XdZUwHdx+ODmUPhd3U34nnzSqJa5+bN63KsjriXid9vt0LHNk3g7OYD/yeexJNPKsMTj8Pv4cZwRD6uHtmF707r5QL3l/doPaYH3gYyXPDJivpIlPVERERERFQ3VEOTxofgHDQKTR/VmrsIDo+OQvOglsoXpLL4I2as+AgrjMNUDFHru2LiYqW8eDyC1LIlbbkP3ugqy5Vs6FSsmPFHWTBxaDXenTQTKw/JsjUiKGY8DvuIoJxdx1KOdRMRlST35HZ8/tV+nLmWiwJxV0ahsAC5185g/1efY0t8uqy83+5hVoj4AcYRqT81whdaJRERERER1SHV1IfXQ9AFj4OLryscfEehWfAjZQt2iaDSihBgz9uYNEkO63LwqDHwcwu56Ig/DJVFE0Fv9MAjcpyIiCqm4Foidn+1HtFRq7BqlTJERWP9V7uReE3etbEG8B5+A31aKftz3RXrlteTtUREREREVJfU69Gj9z05XiFt23rh3LmitnsN+s9GM3l3+nvKFuqJ7xzKo9iYcVx5VL+KpO3FpZ37xJgVIkOrB66vs5UtJTK8/gScy0SA22lMWvgPWS+IZf1w/Td3tMVXePfTI2qtyJJ6zhAFu3kSa6etRrwyKuqfzlqvzSeCbH29cHHP21i4RZkoMqZGd5SdNadh96Ql2CpGxXwdLLerUOd3wY9yPtNt5v6mbCOjr7p+A7VO2W6x+eQ+a8c5CgGNZVHdh9N4VAYCi/bRB+dOKOeiU/F1E1Hl+f3383KMahT/POz+IB3tnRrhyCoPvKS+UBMRERERUV1TDRleF3H9hxTcUSNdhmDXbdz84SfIm9iXbKgfHrmZgviSmgYKR/Yg0bUHJnaXZYWa3XXxtBrMKvJHPIq9MlNsPRLREa9YNhEUgaO+7khcJwNJInAmAklKWV1uD/CczSaUxQW9sQDPGbf5thZ82rIEk9adVM6BCFxpdVbnMzqCldPexu6LWgBrkhpI+wcW7knDI8r+in0Z8lxH4LevsHJF8XUTEdV6uruIef8q2js5IucnN7zFYBcRERERUZ1VLU0aC5LX49qBi9AavNyF/kAUcpJvqyW7ZKdbBK2sOYL4c0DAc4b+tLoiqC2QuNsi80oEiYzZWGKZW3Lc4EnMGN0RmXuKMsq0wNnPxjK2nMbFxi7wlsXSxGdkAq6epQbI7J3PzJYl2J3dEX94Yzyedj2JvzO4RUR10j1ELrqGnm4FyDvbHG/NeQipcgoREREREdU91dSHF1D47/W4sjkKlzcvw/V/Z8taO9kZBIr/9GdcfMRP66h9aF8EZJsEqUyITCpD5/djHm8kazXOj3fEIxf3yswuE4+EGJcR/Yk9Ane0NMkmK9GWJVh7zgdjxLIlZYbZO5+FrbtPwv1xH5zbojXNJCKqe+rh2+ONkHPWE+9ObYDvZS0REREREdVN1RbwEpld9/SXUai/Kct2UrOpfBBkV3DpH/jnb+54+o0/YmJ3dyvZXVqwa4zbz8Zmg2t/M8/wyv1tLxJdQ4rdCVFrRiibNKpDKXdgtBD/6UxteyKgZe2ujpK985kSTRkzL2YiYKj9QTIiotrm+1UuePzPDfAPvawgIiIiIqI6qxoDXuUlglhAwOgFZv1ziX62Zlj2vaWIP5ICPB6CAFjv98vbrRFyswwNXUSzR/MMLyAVK6ftRebjo4xBL22dfzLffjmVvXmj6Kz+I8ywcgdK1dCpeM71JP65cI/aH5m1O1USEREREREREdUlVRbwunf7NgrkIPqrL+6WyTyW/WiZU7Oe9mQiYLShSaEyDAX+aa2/qkOr8eNF4KLyaK1539aFWjBLW8+f0DTb2rb/gYXrTgJiPpFlpazrXcvtm2ZfmTV3/KhYdphpE8oVfYHd8q6Q2r564Tm5jM35TIjmi+p+rZiKIYbO9dWmjEewcstJuPeVgUGLdRMRERERERER1RX1evTobT0eVUZt23rh3Lk0WSIiqt1+//28HCMiIiIiIqKa5gFo0khERERERERERGQ/BryIiIiIiIiIiKhWYcCLiIiIiIiIiIhqFQa8iIiIiIiIiIioVmHAi4iIiIiIiIiIapV6fn4dKuUujd26dcXhw0dkiYiodsvLuy3HiIiIiIiIqKZhwIuIqBwY8KI6resKPDXQVxaKpO/oj3P2fBRoNQ0dhveBe8N8ZO79CKf2fy8nVIY+8HxrGtq66nEueijSL8nqqlBd58Gwnex4/PrxbOTJ6lqjSq+HyjVubiYmwAUvzXkIqbKOiIiIaiY2aSQioloiCC4Do9Bpegw8W8mqOqnmn4cGnbvD3VkZcXCCe9e+aKBV1zk8D5oH5TyMm3sNs566CY9H89BfJyuJiIioxmLAi4iIStEcvYZPwIQJdgyh/nKZ+yEQzbp6w8XJSZbrqmo4D0cm4ae/9pfDYpzLlvV2yjt2CJm5ykhhPjKP7HlwM5Z4HirFg3Ae+kzIwbtP6YF8V3zxvg5RyigRERHVbAx4ERERUfW6tBinlvTHT/MH1+jma1WO50FT08+D/23MG5KNBtDh4HIXRCTJeiIiIqrRqi/gpfNG/bbPoFGLlnCoJ+uIiOgBcBX7N63CqlW2hi9wJFPMV4BLZ8+qSxAR1Q73EPmXbHgrYzk/uSLsO62WiIiIar6q77Re9zTch76Elp7ORdG1eznI+PZjpCdelhUPrpGLNiHk6gqELzkga4ioLmCn9Sba9cPY/2gLpxuJ2LJpP67K6mpho9Nwa4p3JK6Dg9dwePQORovWLdGoofYrUGG+Hjmn9uDcjhXIy9fmNGo1D4+FB6Hx2S34aUMU4DkJbf70PDybOcGhELh1MR5nvpoN/U05v1FHNOo1Hm26d4RLYxu/NlnrkNw1DB4DB+OR1m5o8JBSLsyH/uJJnI/7K3KumLSpqtB5qChDJ/GlrNtw7mTR4OahxTi+s+TO2tV5duXD9cVxaOOvPFfKuSi8q0fWka9wdlcMCpRzX6SETuu9pqHDCNE5OnDn7HYkbFphsWxFVP15gLjuNh2CLmSyci2JZqvKtEI9shO24XTcumLH4jJyJzq1k+fhchfo+k1G+67e2vnLz0L6P5fj/C+Wn1/K8Xdh+jztPARH/+loNyAIbuJaV67ZnDPf4fTfV+CO6f6V5zwY2Pt3YcqpD1wHjoZ3h5bQyda+BTcv4/KhLbh0cLvt62DQTZyanIkG+a6IGuaC+WzKSERE9MCw+pm70tQLgHvYCLSSwa7Cu3dQIMJr9RrB0fGOOos9RFApemqwLJVHMKat3oSFo2SRiIgqiSuCgtrCSWR3/XqoeoNdFdVqOjq9PhRtxRdg+aVecHDSwfWxQejy1kdobOtd0rU1dE+uQLcJg/CwCHaJOuWfRq2DEDBmtkWn2x3hMnIxuvTtCFdbwS5rvGaj0+TR8G0nv9QLDk7Qte6CTuOj4elVd3rNdvYajDZvzYb/Y1qwS3B4SIdm3UfjsYFDtYrStHgbfjLYlXdqCxI2VGawq5o4tIbnnxfj8V4y2KXWKddr1zAEvjLOxrWlg3Mr5TqdqCzXXQt2CQ5Obnh4wDS07Sxyl0xU4O/C2bUTGg2IRrdXgtDMcK0r16xLh0HobHP/yqg8fxeNx6HtlGnq9WMIdgmOjVvCq+8ktA6UFVbM+sNN9e8546fGDHYRERE9YCrls4ctDt0GoqWbNp6bEI0TH72Nk/87H8nfROPSsWtKrTMcXNjEkYjogdW+O7q4Ko+5p3H4pGXaRzUw6zR8C9LVSpHRYqgrGopn3OQj/0oyzm37CPEfhmnzzR+Hw18dxc1C5T3MuSMeebaLnNeCaxACBvjCMfcyzn01W1v283htOfcgtOwk5xMeG49H2ynfsguzkPrVPByab74dsR+/fzUUP5lmdzkMhderwXBR3qX1p7bj10hlutjGhx8h6ZQehQ5uaPvqe2hkeBev0HmoJpdm47jJfpwoQ+tXB6+OeNhFOaITW3B4kbL8/Gn4LSEL4vQ16twXyqSSiYDHmOfRrKFYRwyObY5CgZxU7SpwHuAThLbNTK+JMPy6JxXiJ8T6HfrD00ebzZJH/0lo426ynHL+ks6Kv1cnePYcDkdtNqn8fxcO7Qfh8SeVD37ZyUj6bJyy7FDExyXL/QuGm3itMCjPeSjr34XUKEQ5N8pzf+fCdzhqOCbl3B1aFYXTx7OQf1fOWEw+erYT56kxju+u0o/MREREVAWq8N27PnS+3toG7pzC5X8maLV934Jbo0R1HHgGLSe8BdcWsmiFyMwKbQPouk1CTMwCjJT1wVOjlPImbVg0QtYqekcg2lCvzj8CC2MmIbCJ8jlxgFK3OgIl5oqNWlC0XuP2xDoMdSVnm5ntl9Vtadlm5usS64/CtFEm+266rHpMyr6Y7pvpMRMR3RfN0at7W/XLcvrRH2HacuyBcGkeTn06CekJ36HgZpZWV5iKOyem4fQRLZXDxbO7+liMeHPLVb7UfzoG6SfitbqURbiQIkac0KRV0at/Y39f9Rzpj6xF2okDKBRRGrPtOMG9fX8xq5FD9/7waqzMlvYdTmxegbzbMrXk5nfI3jwLyeJkN+6IFvfzppjV7Oahj/DbV1G4I+IPhUeh37EHGeJcOrREo1bqLNaJYNfEoWrAQwS7Tny17v4FuyqBeh6M10QW8vZPwb+TxEnRoZl/H3UeSw7K9Zpz0GQ55fxl7zkKteVt89bKkiYq+ndx7QCOLp+E7LRUpaBHwS9f4aJ698qWcGktHsuvvH8X9V21I7xxZiduGY5JOXeF6VtwbWsY0o7JKkvP3IW3yAi75YTjP2lVRERE9OCowoBXW+UDhhy9dR137ikfOHrNQrvOLnDtGwnPZ0aj3bsD4Q4XtHptOVp1lvNaWDx+OGLPKx+ZDq9AWNhMbBCVoxZgcofTWB42XKlTpiO0KHA00Q+nV2r12vwbMSNsBRJuKN9F4pS68ZGw2duWCCgNAGLlepcflvcXHxUAiGVF/coEoNsYTOutTTIlgl1m+3VKTjASwa5J8DsljkXME4vTcor4oBqorHONYdnMQEw2C2r5IDQgUS6nHI+74ZiJiO4Pp45Pw7+JMpKbhEPH7kN2V1VSM6+UN0lDk6liLiP500nIMeurS4+8q/IL+EMm7aZK4PBQfTlmrrGP9oPRtaOrrQRnTuLmRbEdJzRpbT3AUevkxOP0TovewgvPIDdHjtvSeDTahGvBrpsJUQ98sEv081bsPCjXXe5F9a4RaNy8vfpoKe+4cuz/tFju0gVlSUVZPgmW9neRexSJn8xDnpxP8z1uabun/F3Ix3Iq79/FrbTL6q67h8yHb98w1G9oZ3Pgjne17MH0+vhCrSAiIqIHSRUGvG6h0KznXeDO/vk4eywH2XsikL7va5xftRvZyEH6N4tx+aScqVTBmNbbByn7igJXGxJToGsu8vhTkH1DB1cbKf2lGRmgrDdOBtUUB5ZEauPrZ2LGerUK2HcAp2/IcTPB6NUBSFhvsl/K8mbBtd7B8EMC1hg7uN+IxcZxvfmysQnQtwkwZrSJY4udvlGOH8DifcoxdwguygIjIqpWzdH9iVYPbnaXgec4eI6MwRPTd+Kp94qGJ7qX9oVYjzvFOqYH8nZqTaxMO93OvZiuftnWdR0Dr07BarYNHLzRIPAj+HYWgbF8ZJ7dKWaVgtGouTbmMWCL2X7Zv3+1jFkAxX4t+oepTSELUrbjxLYtD3awqwSFhkynxu4WzRM1d3INESdTUTinNu2bpHwSs1Dev4v8fNy18lzlbNCaLVasOW35/y7ufL8YJ06IJo86ePQajW4RW9BtUhS8eg1F/RJi096O8mCUB5GvRkRERA+WKgx4peLW77naqMujaNpK+xX7zoGPkX5KGb+Xg4KcX3Bt925kp6ai0P4+7FVq80RD874BPoC7l/JR6AAWj48F5LSydVIfDC93PbLV5iiWTJshas0ji/OBa5MMpO2TRWt8XKHLTDMPgtmyLw0ZctSqlGztl1kiovvAqXMvBDzg2V2OXUWn80PRVnR+bV9CVrkU/rQJ50W8wcEN3n+aje6zlC/ns6LwxOCOauff4m6BF4+bvqIrO1OF7851yZWdW5B+W3mufQahU//nZW0tlnuzwkG96vq7KLuK/F2cxM2vhuLQqi04d+oybt0F6jfzhnffcegWEYOHO3SU85lTmzMSERHRA6tKP1Lnxf+CG+KujHBBy+Fz8chLb6HVoD+j/eS5cFcDYKm4dWQ37pT57v56JBibLcrB2FRRNGEUdSLwFWW16aFt1rLDtGaIrvsM29KaR1rnAa/StqcG5uzQ2wseN7JxThaLKUvwjIioUrXC01081bEHN7trEFqE+EK8E925FI/jK0QH21oWihh+PVR5Pyk49hytdhh+MyUZ2TeLkpUKbl5G2s7FOLzBsgP1oiZg6TuK9snaYJpJRlbcjMK5jdrNBBp3n4S2T9q4CcEDrkGLlupjgdVMrrKovr+LsquEv4v0KKRvHoOjC4bi0GdbcP5SvhqIbvPiePN+zKSDt+THZOXB4l6WRERE9ACo2t+QM7/GpZ8uq3fnQT0XuLbvAHefZqivjHv8YaD6garsDmD/KSBwVCmdz5e5eaNYrx4+A0w7xo9QxkXmlknml2iWaDXDayMSz+vM9muksrxodCiyw9Rss/WJSGkSiLHGvrdGYJpxXFk21NBnl7LMqEDg1AGTgJYPQkyWWzjABymJhiaORETVx7lLd/g7KyM1MbtLjSbVx0MN1ZJtLQLRrLEY0ePSt7Nx85ppgyVdCX13lVUfNH+ypfJmm4qLGyYh6cP+OCS/lMd/OAaph6x/MdenXVYfm7cfrT6Wmb3noS5Im42T6p0CneA5YB7adrWezfPAchiK5p1EuCYfV5K2aXXlVW1/F+VT4b8LIz0K06Lw+/99p2XTN2yJxtZuoJTiqDX39LyDV9UKIiIiepBUbcBL+Xgp+u3697q/I+3YKWRn5uLWlVSk7/4Y//78ay0QZgfRnxVM7tJ4YMk4rVN3Q5NGY/NF07spap3Da31vaX1elXaXRrHe5Yc9ECrXMbkDcE5kjMVlIHCiXO8oV2TYyPDaMF12Ni+XD21umYElss9ikaEei5gnFK7phjn0SLgaIOsnITAzFuHG/r2EFJzGGONyHocNx0ZEVI0cWiGoc03N7jqEnKvi0QleAxajcbMScjKuZuKWOqJDs25hcFTfDd3g0HocHg6PweNdK6uPrJZoKIKD8IRHz+fh6NoFjnZ0mF0QfxTXCgFH/zA8Puxt6Dx95RRF42Dous+D7+SPtA61iynDeagjCo5E4PihLBSqQa/34OlVWc9vNXNqCV3rjlo/cCIA1SwMnv85Gt7izoWZ8bhs1jS2HKrt76J8yvd30QceY9bCu28YGrmazO/ki0Y9A6HeXyn/MvRX1Fpz39VHqojpN7qNbs9pVURERPTgqOfn10FtdFhR3bp1xeHDFeqNtA4TgboQZK8ch8XW+gDrHYHoia7Ya7hLJRHdd3l5ZW6LXSs4d3kRo57yVLO7tm/8AZfUTKKaw6HzCjzxotYky5JoBlXUabY3XIatQKcO1jvpycvW4yFXHRzPbsFPG6JkraLVPDwWHoTGSMYJa519F6NDo4Gfq4ECq78wKecvLysVF3cvR0bSUVmpEX0pBQ60fiwa2/tg/3koH5eRO9GpnSzYkh2PXz+eDcP9axr032JHZ/sWx6Scg6eUc2C5Lk0feL41DW1d9TgXPRTpxuirrfqOyn4vVvZbec4Ls3BuTTjS0yoWIKr282DL7VScWjsFmVfMj8ewfzcPLbaz+Ws5/y5KfJ6sK9d5UJT978JwPchiMfnK38Q05W/C+t2T5v3tMl7zz0fekVboMOM+p7gRERFRmVj9/F3bjVwksqQshkWG5oRERGSVQ1v06iqzu47F17hgl1B4LAIJfz+AjGv5KChx/1KR8/fZOHFE68BaJYJP11KR/NVs/PrVCZnpUlF63Dp0CNlyG3dylS/OymDcNeVduEEzb/i+UrypXcGRSTgsOtk+m4U8wz4qCm7rkX0qHic+W2Q12CXYfx7qkpPI2TANJ85q/Ta1HREJF7X53gPg+Fc4vv8orinPp/m1kIWMQ1vw69JxxYJd5VNdfxflV/a/i++R/oXWWb3+tno4qsK7+cg5q8y/arTNYJcw+5+N1QBeg8dyMe/+JrgRERFRGTHDq0ZghhfRg6auZnhRGTUch7ZvDYVnw3ykx83GuV/Ms7jQ8Hk0GzEJfl5OwJXvEf/p4grfZY+IKtM9rFpzCf1bFSAnvhUGzHoIpj2bERERUc1VJzO8ah7Rt5eNYJewLxLhDHYRET14OgXCU3Qcf/MkLlsGu4Tb3+Hm77JHy4ec+KZMVOPUw4RV7mrn9i5B2Yh8XqslIiKimo+frYmIiKrKXdmEqnFHePcPQ4PGbmq1qmEwdL1WoIPsCPzmmf1238yFiKrRT43w7lZX5CEXPSfnINJf1hMREVGNxiaNRETlwCaNZBeH5+E58W20dZdlG+5c+h7H/28x8qqxvy27Oly3YH/n5w8Ongey17i51zDrKT2gd0PU5CaYX7NuU0tEREQWKi3Di8EuIiIiC4XfIX3lNBzdcxLZOfm4YxLQEp1m69OTcW7bYhyOrt5gFxGVXdQcd0QdbYyMo42wjsEuIiKiGq/SMryIiOoSZngRERERERHVXOzDi4iIiIiIiIiIahUGvIiIiIiIiIiIqFZhwIuIiB5Y7dqVsbdxIiIiIiKqE8of8NIFwrnHaHh0D5AVluqjfvdwuPd4Bg10zrKOiIiIiIiIiIioapU74KUbEI52zwTB89lwPNLd8hd2Eex6B+2eDUSrZ16B34BnZP39NXLRJkRPDZalCuodgeiYKEzrLctERERERERERFQjVEKTxvpwffZNtOrcTJYBx85vot2z3sqUshiBhTGbEGMcFmCkWh+MaauV8uoIZcwabblKC2RZGrUAMYtGyIKJfZEIDxuHxftk2Ro1KGY4DvvYHZQrx7qJiIiIiIiIiOqCSurDqz7c+01Dy47N4NjxLfj0a1e2YJcIKsWEAnHDERYmh5XZCDAGfvTKf4EYOEoWTQRPDYGPHCciIiIiIiIiIqqUgFfhPeWfes5oHjoXj4Z2QKN6SlmpK1SnlmYEFg7wQMLK4ZixXlYJ+yIxY8kBWQBOn0qBT4BlptUIDOyWgYTDelnWiCwpY6aYrcwwNci2CQsNQTQ1Y8qwnB2ZUxYZVqbbVDO0xPonBkIHH4Qa6qzNZ6RlsoW2AXTdJsl90LLXzPcxCtOmW183ERERERERERFVSsDrLC7FnsItNeilrFANduXiauxuZKvTSzEqAD43TmN/SU0DhZ9jkeAeYtZnlprddT4R+2VZMwIBiJWZYiuQgECMtQwIicCRWZBtBBZO9MNppawuFweE2mxCWVzw1CiEGrc5HOEiULd+JsJWJkCPFMTKOqvzGR3A4vHDEXse0B9eoUyfiQ3YiBlxKfBR9lfsy8jQQODwWixeVHzdRERERERERESkqZQMrzsnP0bKrrO4o5WQuWsxLp+8pZbskpmG0kM2B7D/FBAYasjyCkavDkBC7EZZNtiIGdMNdWIZ8+wvsdzCiYHIiCvqf0sLnO0t6o9rfSJSmriirSyW5kB6BuDuVWqAzN75zKyfidjMQAycGoEQ9wSsYXCLiKiOCUFE9DeIi4vDN9HKe4GsJaJaoO9cfKn8bYu/b9Phyzk14y89fHnxfYuLW4ZwOZ3qEOO1yue/JjP8zdaU15D/3979wEVV5/vjfykxJoMKio1LjpmIF/+sqEUW2ob2XTTENiGvoKvmDXQvapGPIi2NJW1V6roUyl2UFv+k2JrkJppxfyltymZjGd5UboqZo66TJIiOyhj0O/8GhmEGhmH44/B6Ph7zmDOfOWfmzDmfc2bOe96fz6ch2tiV2LFbWN/dO7AyVquUuga3A5m5qA8voOpYOk79ZTVO/iUZF4/9pJQ6yMEg0KG3CnD2vqFyM8KZkzDiikWQyoKYSWVuNrjgAbVSKlM/MAL9f9hTt/mk6L5JNcuI/Yn1R2/c6+gIjFtewdrvArFAXLahzDBH57Py3p5v0PuBQJzakupAYJCIiNzK+HEI8VdJkyr/EIwbL002IARxb2Ri666tSGl03uYJiV+JzK27sLVd/qBsve1ARK6hnZKE9Owd2Ps2QypN1j8KSW9nCxfODEi1Z+37e7N1TRgTDLWHMOGhRvCYCXJhA9z1/NDU7UBN47KAl5jZVX1Nj6prFcpjB0nZVIEY61BwaSvyvuqNsBdn4OVHe9vI7pKDXQv8CmqaDa616t/L+JXYNHJSvX6v5GaESpNG6dbICIxWDr0VL7+fGNCyNaqjwtH5LIlNGS//cBkjZjoeJCMicj0P+AWNxeRpcxAXPw/z5sm3uBnReHykP7q58BuFLOw/AN1FkzRpuqjDgf3SZAOCETxSC1+VHCRrScHBwdD6qtDy7+SM1tsOTWE7Y0a47dyB7DcTETm87h91EjtZQHt3CRdNGUsRY2sZ4ZI33dYydW47aoKBIUu2ymU7VyJKLrIjCit3isvuwpqZ1u+rxqw1cjaieNvxRqRSXldYsnDBUrMOjdzWWl7YhCElx8Y8lreclDsrC3J/MqZGRCBCueWeUcrbiawFtesW8ZYO1u0mXC1geAgCNEK9Ei/+3IVfGOKSM7F1Z+2xsXe3cOyuX4mEcK1w1LjIgGCEBGrkC+f2Rh2KWeI22FV7rO7amoml04QLfWWWtqVG8JOJWJO9A7vETBvzOuZkI31JDEL8lNlcoD1/bwZNkreB+fOLGUfZbyYgzOrzm8/hu1Y1/G1R891V5zxe65NDRTBWCRNVRhQd+kQubEDLnh8svl82L0WIUlpDbfGdmpUIV+ZhNXU7UNO0g8sTMYgFjEjYUKd/LrGfrZU2OmM/dPgU8MAkjIDtfr/u91PDWHpWeSQ2e7Q+jZ7F6rl7cPmB+TVBL/k1n6n7/k5qevNGubP6mo7prc38Eyb1/AZ5i/dI/ZHZGqmSiKjleQk/hGYh+rGh8PdRwcPi28PD2w8DH5qMpycPh49SRq5UgNS4p6QLzqfiUoVH5Ja6qqEZGo6EVRuxZmaQUtgIlQq+/YULyVXrkRLevMtG3f6TKBMnug5GyBSpyLYpIRjcVbg3ncE3uVbhD3UsQoKEy7ir4ujawsOgMY0Ez4jcm++kFGzNTkLUaC18u1qEODyEY7dvMCITkxCrFLkr9fAEpG9eihhxG1hsApWvFqGzV2L9svC2DXqpg5Hw9las/EM4gjRqqCyCKaoeGgQ8OgtJ8909G8sXkclbsWa+vA1qeIjfS5FIykxHnMXXks5wRbpXefeU7u26v6e0b02m6/JjK/qcJZg6OQIRk6diSY5eKW0rA9GzhzLpNxgTRivTCu0zIQhQpqH2rZ12gfa1HdyP0wGvX27ewG3pdlMckNGGG6iqmeeGUmablPW09zJGJJibFAq3mUCerf6qPhd+7P8AnBXubTXve2+xHMySX+cZ+Fyx9V/UVizJ+AYQ5xOzrITXirN+f8vsqzrNHeuPimjZhDInAtgzV1k3aV1rR1K0O58FsfmitF7iKI3mzvWlpoyHsHrLN+gdoQQGrV6biKhFDRiLsX2FX6rV11D8P+8je0MmMjOF21+3YNehi8IZX/jh0+cBBPeVZyeihhkPp9ZmzsxaiBVbdDBI3Z+qERQ9H3H9pdnquqpDqnmZiBlI3lAAvZT854uQ379g9Y90FhbWzBuB1MPK76EzuTVlERFTkWzOGDz8CU6WihMqDHzQdmaWKGr0YCkzwXTmG+y0jndND5YuAozFO4ULImHCTvCsIGWqxTqIt1yUSM8YoXvLsly4LciSnrFW8qHVfOZbbDKDwtQ+jF+KtfND4CsGUG4aoNuyAgtnyfV06txFSNtSgJIyuQdk9xWE+OciEdBVOGcYdNj82gzp8894Pg355+XMZd9HojHb1vmuVWgR96cURAbKkTjjqTykvTRPybqcgYUrs5B3VI8r8qq6rylJiBvtK0wYUbInDfOmCp9/6jzhe6lI+SMkABNm1n4vGKsc3CBKpOH21UvyxJ2gtEz4zL4YPN7yG1WLycFa5Tm603QKDBxkO15FRER2VVbeUqY6Br8x0xE9rBtMpz9G9qfnlFIzFYZPmYNH7gEu/iMTu08qxa1gwIABOHOm9doAic3RogYIP/YOp2JqitVltZi6/2II1GJQwuKiW15GvJCfitSbCVg+d1ztP6hGPXQfZCD1/SKrpkJian0SQsz/NppZvXaN+HTsneLY/41ioGDhBuVBk4kp/VGO/bMpBlbqBSvUCJ72AhKefFBq0iExGaE/vhub/rQZhbb+oxKoh8fghT9MxoNa35p/301lehTtz0HauwW1P0CbvR18ETZ/GWaPHQBND2X9qowwFB/Czi0bkHfMzgo2QYN1KCgR2WvCoREmDfvmYc47yj+9duqWSD1zDbbGBglHoR55wgVKhp1VFJugJI0W6p3N/SILTsrGyjDh3Y1FyJi6BHlKeS2xOWMcgruaUJwzA4u2WL6ZWvhsO2rqeu6D8muZjmXhqcW5yjz2mOuVvGxNEK6e2uOiefXYcerhkYifGY0xYlMxc5W1VfckamjDYxE3aQyG9BXmFzPhREIdN5w6gE2rM1AgBRXta7B+2OAbFofEfx+HYItjw2goxqEPN2HDRxbnFXMdQglyIxbCugaY37fB7drIa9Rqynawc66zxc75zzcsActmj8MAPyU7R7gYN5aewaEP1iNtT7E8Uw3z+ymfwS8MCcviET5A2X7iOXn7n5G803q5ptIiYX0mIsU/ga4Kx9NC4XhqZN+b+T4YhdlTJiAkSFObFSZ8pjL9Eez+y5+x3eI8VHNcN8r+sdXkOiTsh7TYNJjmv4743wbIWVvi+p3Jx7pXMuqfx4XzWvp/Xse657NQZ6v2F853GfL5ruF6l4Ts+WHCfMI+e1XYZ47sGkeXmbQSO+aLzSpN0O9JxqJ11t/Fdqi1CI+Jw+SxQ6A11zuB6aoBZw5uwvJ1lueG5n5vioTvpmcTETtebg4psfPdZD6W9R9NxaLCyUhaEI2Qvha/OWzWbzWi3liD4M8WITm/7haIWrULccOF97Q8/mLXYNdM4XvHUIAlc1JRJM1pg/KdXOd8Zud72nYdcP780PTtoOynM4Uo7B6KUBQiedYK6MSnlLpq2pMP06RwBEjHQDLypeUETaoPiiZtB1Hdc9fB6KV4Iar2t5SprAT5G15DRgFDctbY4woRETWq9Mo16V6luR/+ntJkLa9A3Cf+MYhyXDovlVA9avSLXIONyyLrNhcQfiSFzF6KpVMcuWC506kRvmw9Vs4Orf3BLlIJF8cjY7B0fQpstcpTh6dg/apZCO1fezEmEpvDhETPR6LLOqQPEn4gZyNpUlBtsEskNekIR8LcVmh4VPwNzl2VJ719HQvcGS9cU0bJVsF7kDThtKL/OQkxMQvqgRgzSSqqy6I545d1gl0CdSyChYsLGE9DJ1xUF31WIv3AVwWG3LHNGoNmCsfsqgSED60NdonkuheNaOVxDeEie01ilNyPkjnIIxLquNwsaA1iXHaoC8dTUjayk4T3szo21JoghMcK5crjVtdq28G8DeTzas028FDJ22D+KuE5e83lekIbnYD0rCREBlpsP/Gc/OwyLG3ueWX0bIyRMp5NKN67wuFgl3jR/frrcQgX+x+0bgIpNl9+Yy2SrJpaOc/ZOqTCmLfFc6US7BKJ6xco7Ns3E4QzqZXiNCy0DnaJztae7xoSExkKjViPugYgcm6MXNgIx5ZRY9bjg+X6UXoEWY4GuwRhL65BYrTcn1Sd76UeGgRNSkL2mzF26p0T1OFIyha2t/B+db47le+m2cJ52Sb/F7D+jVm1QR6RVL+X22gCb0Tuq/PqBbtEuSU2mtgZlO+du9WQfv7ZEdpHbvJ46WLjwfsW4+h26O8Nb2niEjYdEb4J/YIRqZwHgv89WAqe6jZ+gytine3RE/3kpyStWh/QB8FvZmPVs3V/S6mE3wyRScJ6ONgjQkfCgBcRETXu5D9xTPyS7xaEyc9MxxMj+6GbSgVN0GOInjpWCoJd+7YAOjkuRjZogoKEHzxGFO9MxgyxScvizSiS/ohTIzjMOphSgORYpYmWePtQbvBl14aFtfM21DxMuDUvK6ZuMzlzB9t1mueZb1b/UqunLEX8I1ZNJsQmI+/koUT8je0bgvhlUVY/CrWY/XQIxKXKjm3GirlKU7ip87DonVzozl5Rgj2K5myHSbMxYYDw49GkR/47C6V9JM434/kVyMovRpntLkhajKnasSYjQcP6ydvMVIZzR6Ui5x39BCfliBcGhtZv1hj54EClOeOX2C4X1TA3ZzSV6OTMsMMHcVo8ZzTWJ1h7NToJL8eKx6zwmQxFyE1Tmjkpda/ooq0KcRvXS4WLop1pWPK83HSrbrOgIEyYHyzN2Vzq2OVICNNI+8N4Kh9ZSlMxqXnshvw2birXlO1Q91xnu+mtcrPObgxPQry0DUwwHK49P4jN5fJOia8jfEcJ59b5NgNEvsIFbyQCVPKyyWJTw1kZ0Ekr6IsHIx0LrNijHR0gvIrg5kkctA4ON+aqHkX5WVhh2bTunXy5+bKHBqHTatetTvPgmkEFxAwQpazmVj+7y+k61EPsHF/Y6jVNFGcgeU+JsBeELd4/BE+OlGdrlNrcZ5IJt1v5/CqbgMH3yQEDw5FNciaPo6qvo+yUDrnvLLFoproCm49JFQiqoRMwv2Y7OP+9KWwkxCxPQJhG2ksoEeqFVFeFeeXvphK7zS21D4bC16P2+3bqXHP9Fn5zTJwszeOIMP8+8sQtY22W0u3b0v6uQ8z62rsXW5fUBuBUneXtW0ed7+lU6BoMejp/fjBzeDsM8FUCXmJWmA564fkhj4p9t4Vg8jANTMU65Ng7lJtUHxRN2g6W1AgYKhy3JgMK/yKfI2akKucHaBAyNVSai2ox4EVERA4oxT//9j4O/nBN+Obohn4PPYHpc+bgqceC4IdyFB/Yhm2HpCtlsqsMurRnsOhdnfSj0XhsO1YUKIGse7Rw7y5xtZj9hDwal2HfMixcJ/w4k344lqFkXwYWLsuXMovU4iigYnGNAGi6ifcmnNPtRuF55demUY/ifcIP/wThItpu87cm8veW1g+lJ7Fvn5ydJCo7VYjctEWYsdh+Ay6XGT0WA6ULQCPOfV0oFdnlF4Dw+elYPlFsECSs51cf1QtCNV0Rco7Kx7F60BjUDXlFYow0EJAJJz+3fidh/4ZI4S6cPGxuvliAA8Xi/lJh8GjX53gFTFFGy7K+2RkNrGnUmDUtVGpqZTqbh8VzlggXlno5mKDUvSVxQpn42NL+FZgzayGS381H0SmlBgnzF+YswaYjct3V3OuKvKsQvPCE2IxVePkjaXjm+TTkHlHer7QEhR+mYWHCCpsXf62iVbaDHAwXa6Tx2GYsSNlec34oO5WPjOeXIf+i+Ei4AHzSXp90JpR8uBhzhGV1YgZWaR5SlXOySjMQzblsDPBVLp0NejRtzLUsLIydhyVpuSg8rtQ56TyZhkX75Eyb5q6brHl1yHQmD8kLkrFdWkb4blu3E0XSBbsG2gfF+8YFPTtGbuZnPIn9OVKRTdvzCuX+DW+WIG+9Y2c5x5bpCW8pA1E43xY3raPwguVzMOP5ZGTtK0KJkr1nPF+I7Ys3KYELYTuMkoqbZ/QLmCwOBCKso/j7YaFQL6S6KpC/mxZi3kp7e0ncL3Nrvm+N5y3q968GO/abQx2FCcOkb0boj+TUNl38/BKkbut79MRAqQCICh4g1SffwROsMgPbKqBp1rTtIHWwf3Y3is6Lv0nGIWz0BAz2M+GMbrNyPNbXavXBzFSC3MVzsOIj+RxRVpAmfHfLa+erGSLdUy0GvIiIyDHV12A4X4Zr1cpjM5UX/Hr7wkt5SLYZj2yq11zAWHLF7g8o9yL8YJSa9+ihe9dGZyrmpnwqLQbXaUqkw8l/SXkDCJ65XhpBKsCFw8PXcUwvN+fzD8fyjKWIeUQrB8Bagxi8enYlspeEQsoKuXgIm/ZIz9TVIwRJ5sDO5nQkTgqQL/iPb8fy5a4Jb+g/KrLdrHHSGAwU3+zmSeg+lItq9J8sD1hhOoMii+cKPj8h1e87r1njZIwQs/2EtT+5J6N+UywnmMQh50UWzV2cNnKcchzoceCv+XfUOcR128F8TikT6lyujW1QjA1H5CCG2n8IbOXVGfIXY+GGunu35pzc2VO6eHfWwN7K2aPa5LL9U9NReDPXTdKsOqRH/ssZKKqzUAH0PymTDhCbqi+TgvUm6U+P+v0FWtifijnREYiIdrD/LpEjy4zXQsldAn5W7pvNIu/JBVfZwY8pmYLnDyDLRnPDhki/OfYoQUxF035zBCFu9SwEi1W5rBA56xoKCoYhWMyWE49v4ftsnJLN1KeH2AfGbVxrw/9Dm7od5A729dikKxG+c4fgyWnCPhAzNesEZXuijziIXKNcWx/M9PsW16vXBRfvoIEBWhkDXkRE5AAvBE2chegx/dANN3Du0E5kb8vH8cvCl3lnFfyGPYFpk4IY9GqIo6MauaNH+wg/D0VaRO6wyMapudnrlNaI7csyUGAQtp3KF0GTEpG+eS92ZKcj5dlwaF0ZkTqcitU5xdKPYLXYV86yTOzYtRWZbyQi6kHpksOl1KOTaj+/GLyKDobUaqVUh4zFaQ4GWYwo+XAFnnlps0uCMpKzO1EkZcbUbdYYGTpQDq4VH4J1F/TaScHCnhV+2p/5BrvlItl+HU6LG7QFmjWKHfvWNgexuNns8LmJHh0o7wtcQomtwGMDxA7AUzK2Ytcuy/q918GOxR00Sitln0G4MDtxVippd1p8O4zsqTQ/uoJLh6WJeozfXZIvau30M3TdaOOo2Z8sNyO00zzKUVeuK+d74fuxqZ9YHCgh8c1s7NhZd9s5OiCHQ5pVh0zi+ANOUw9PwKoEpan64Qwsfrdp2VUuc6YMNYlHdyn3DhM7kU9B5tZd2LXbcj852MG6g0LulTN4jRdOoMlbqVm/OXwR+foyREnN/EuQu9w62++c3JeV2fhxGNLDhKLPxH7QNBj8WznE7K1qdmi2+RzdDgE96xyrxm06FJvUCArS2PjeU8GzTn+2rVMfzExVzTgAOyAGvIiIqFGq4eF4TPz3rvoajv99Cz7+thSma9/jYG423v/CIP2Hper7GMLFkXyIrAm/DJ2uGcZ8pM6ZgSV/yUfR+TIpQ0StCUBIdCIyN2ci8RHXBRKKtyzC1FmpyD1cAoP4e1LlC+3IcMS9vhVb34iq3xmzC4kj/+l2pmLGrGT7HVyLo1CJF+NT5yEtXy8cd2oETEnCqnhXrpkeO49ZN2s0N2c04nShdS6GMly7QH9ypxxgqJEHXYl0dmiRZo0txsn6GhSfXtsBeEueCtv5r/dW2Q7equZnObWgS0blSPDVYIw85RB5kA5loATLDv9drY3qkPqRRKx5Xew7DSg7loXlKW2YoXj2uhLwUqPPgKZ8jygDnCidyFt2Uu5yLfnadgUhatVaJIh/9Ih9Wq6un00kBj1lfaAdDwQ/2A9qMcP3LR1O3wQ0gydYZFVegt5VXQ+0JuNOfHNG/JyW33u2MhlbsT6QUxjwIiKiRqgQFCD/y1h19p84+KM0WaO8KB9Fl+Vpjb/luDUdTJP/Ie5A9uuFn7wiW50pW95sD5sv/uAs+igNS+bOwFOTZyBZ7FBZvErqqkX43Pk2mys5rbQAWSkLMUfq3DYNuUflgK7vyFmYO02exRWsOyx+asY8JL9rY+hyW4zCRUjaImRI/SGpEDDlBST0l59yBbnDXoF6IELEJqbjQ+TmjMbTOGSd8WRuzigImLLD4p9t+SYNZy+4o5o11tRXb/R0tANuRGJ2eIAUhJE6815u7nBcvtV0tuwK5uY4XbvVNslqFjVULrsiaKXtYO5DqIF9pB7UR87YMJYpA1i0nsLT8nlDbBI1ztaIpzbVDtIBYwnyLAbPkG6NDV7SFC6vQ40TBxlY+3I4tGKw60gGFizOdV1mqlOE85zS1E47araUpeoQ8wAnwh62HCxBvjWl8/HGnb4sHy+ePVprLwVh1prlwnlbDHYJdfC1RUj7p61jtgzGW8qksOXGDRJ+I54/gd3Ihe6UUPM1gzFhZDB6uu7/qDZgxOZFTwn7dCqW1Mv09YTKnLnVivWBnMOAFxERNcIL6i7yVOXNG/JEHTdwo1KZdHPXTfK/mp5d5QZ6NYLikD5P7kC5/bD4QdZSlP546m2PeswXFloMmdncrVQGndih8gZlRDKN1s7Q+WbObwfj+XxkvboA+VKTHxU0g9rT6EdG5K/ejWKpSgoXHPH2OuZ2gtJhrxgIEUepCnt0iFS3jd9+Uq+vHXNzxkbdUaM1muurBiHTrEcOtePREegnzWhEUU4ytv/T3OG4SC0mJLnO/pPyiFyqIEx4zsHsvjKjks3iDe86wVE1wpetR6SrAqbN3A41o5Pe7d1IvbLYR1PCbeyjEMwfLb9CWcmhpjcHa66PvoSUHCKsWfD0FIQ7VInM/ZIB+k8XI8Ni8AyRb2PpcjUj51nvYxucqUPN4DspBesTw6SmwmX/TMPc1/IcC+6LxichW2zeuTMdcY6uqkPLFOGAPCwt0DccSQ5myoaOUkbGvVqEHIvBEiRqbynY2yCHvzeBgu/ETF5xN01AYkvvJnUwEtauQkyQ8Oluip2iL0TGMVvBLlERrkhPCd+v907GYH/A8N0n0rGeW3RGWGcNgicGQ323UGC6Xdt0tJkcPz80XWifxvdHLRW8lf5Em10fqMUx4EVERI0oxw8X5UCX1+AwPB6kgZe57wJPL2iGPYEQ4ceOyHDxnDzhpk5ekn+iq4ImIylM/B9eDW14IjLfiEJASzY/aRLzhaAKwU+vbNHO13UX5IsF1fBorIwNbaBPrSJ8JI3+p0JQ7EakJ0YhNFDKYxD4IuDRKCQkZ2LrGusR9uKwZmsmUuYL8w+t/RzqvqGIGS/3KSWOgmZ7OPmmbYewJZnIfjMJMcKP9NqO8YV1mxiPYKl+m2A43cjIia3NuBk5hfI+UI+c7MIsLz12F8khAnXAk3hSvAASLmVOfG7dq5EW0SPlyw7DvnkW/2pb3qZiuxSVU2HwozHSvO2fcOFi7vB8eBw2vp2IqJr6I9aJOKzMWinUTgtfX6lpHjVwfIzc0XPNvFuRMLKh2tdU27H/uHxRpZm4CtlvxCHcfDyptQidkoj0jKV1Rx87eg5l0rWiBmP+oKyfXwhi3liPxEfMx6ILNHM71GRG+YdhaWJDg1RY7KMHE7A2OQahfeXX9n0wCkkZryJMTEw2leBAju0zRIsybsf6fXKwAr4hSMxKR+KU2nOkum8QwqU+f9ZY1KPafpE0o+IRJn124TvmkSgkvr0DWyc1con/+WmI3R2K+zjslcTaOmGTE3XISUEz12D9fDFzTTiHFqRh7vKmNWOMiQyFRvx+7RqAyLmOnUMcXUa3LkfJwBEzZa22g1hvhe8msT+1zCW1W6LoshK+6TEQ46bJow/XDDyyOQHBjfzB4vj3piBnP05KG0uD8DeysfLZ2mNC/B6MSkyvs25OU4cjaW0KIsVMJWMxtr/q6AABKvT77Rjhm8CAk58rYeUcOdjrO2ocpJz/m9eUjNnmc/z80HSqzs6FpppbH6jldQoMHPSLMk1ERA6qrKzJ5e4YvILwxNTH0E/8t84O0w+f4f19xbCVA9ZSBgwYgDNnziiPWkH/OKSnRUn9j1grO1yE66ODoRX7WbLo8Dhu7V5EDRB+Qx5OxdQUq4DB+BTseDEEaqtlasqVh/aIHXcv3KA8sKB9Nh3p0XKzImv2lnFKA9sDZ3KtOhAX+7lYJXeCa0+9ZYTX3yu8vvKovjLo0ubWG/3SrCnbISx5R4MdapuEdVssrFtzm+A0WB/ssVdPROoorNwYJwUWjEczMPVVcw5WY9tOZITuLTvNSPsnIDMjsvZfdFvv3T8R2RnhwqWYAfkJc5Bmp/NrdXw6dogdbpuKsfmpRcKltjXzujawPpIwpOQ00gmwrfV0ity0R8p2sElsnitcFCqPxOBf3NvpiAq0Xb9NV4U62kMNlVUdb6zeyazfSyBdoCYgTO5dvz4b2yFs2VYk2Qpu3SyB7kwfhAxVWx0XjtQh67rs3HaoJVzIbk1CqK1YTb3PJJxT3hbOKXbeC1VlKEyfixV1zg+1dcil50Kb5Oy5hgOKdfet3X0kEradUdh2Ns8DCvvL2zi2mlqHar6XbNRHgfnc5kwdauhcFLNmF2YFyetoKt6MpxbVP4NYa9IyYoZ2I39a1anjDX3vwQSx+za1WmW/fjXpe1PcTUlYmyBnx9li/V3izG+OUKHeLHUk8G2xfnXOXVavZ7n9rZ8zr1+D7NZxx88PTd0O5s/T2HnB/Lr6j6Zi3l+Ene1kfWj6dmjk3CV8z0oDW9g9t3ZcrsvwUmvhef9v0PWePujcSSkjIiL3cKMYH2/bic++vYjyW+Zx5QXVVbjx0zkc/2wnNrdysKtNnM3C4tV5KJFTJWRlehRuWoK5KSXyP4/tgP7dxUjeVAi95Xq2BHF7vLYZhWflzuQbVoysBXOQulNXb71MVw0oOZyLtFV1xv0W5CDL3Fm95SImIwzH85Gx2H6wS9SU7VCwbp3cWf1Vq3VTOpOfI/yAbNv+Zuww5iIjX657Ls3yOrsJOotYctmxvHoXH9ongyH17nexCDsbGOnNuK1I7kNJNQAPxUpFd4BibF70DJYI9afEYKxTv8U6UbgpS6idlvTIeiUZ248aYLSed0sy5mw4gdtKmUtIgzkIx9Oeorr1u0q4wDIUIy8zrd7+Kli+HFmH9bXrVyUeR3lInbcQB1zV5qjZ26EAK55PRd5xYflGD1vhnPK8uA2K6x630ucSzg+vWge7WpsR+ctnYEZqLnTiOdLy8wgPys7qkJuWWqceFSxfIBzPeiUbTyaeH4v3pGFe3CeNZsqIy9fbHvY4UYfawva8QhhuChM3S5C3vvFgl6hJyxRnYeGsJcJ2r7/dpG2fn4XUdRZbQvre244iaWQThbDNys4WYvNrc7Du20aO9CZ9b4q7Sfj+iROOiaNCvRA/k5n0PZiHdZbr5iRns5vMjMUH6tSV7cKXR82W/EnvwnrUlPND0/TsWmfYRbvMXVv01CidKTS3PlCLa36Gl/oR9Iyegj4ar9ro2S8VuPzxO8JB6KoERgc8moSshECcyojH6s+VMiKiFtLhMrzaqVbP8CIiIiIiojtC8wJenYai57P/CX8lrbD659v4xcMTHp1u48onK3DxWL1xO4mI3AIDXu0DA15ERERERGRLswJenR98GUHjtFJm141vsnDmf74RXrEPug7shZunjgulXujcvTtw7RKq2VMYEbkRBrzaBwa8iIiIiIjIlmYEvDzRbdqfcZ84/MLt73Dm7XdwQ3glz8f/hN6XX8HFY+I8E+H/0m9wa/MruCIPSGHDDKzMCUP5V5cx4gG544mze6djCf6EnAiLx1ukSaXp4oiajnxrnpPKfVAQ+wreM7/m3lMIjFDm/WEPYhdvFafqGfPiBix4QHnFa99g7dxU3L9qG8JK9+DUoEkY0U18wohvzM0lze+1F5ikrGNDr09E7ocBr/aBAS/nOdRhqhWbnb8SEREREbVDzei0/n54+iiTN6/ithjsGrsUA4Z3h8/4VGh+MxsDXopET3SH/6y18B+uzGuTGiP8jiM2djpi955F/4htyBlq+fhP+L0y55jRPjiVIZTbeK4u4TUfBbLF+WL34Ox9k7BypvKUBSnYNegU1krzTcee75QnBOoHwoAt5ve6jBEJlu/VH5PM6xi7Dt/0nISsF8cozxERERERERERUVtpRsDrJqorlUnF7YMrcOZYBcr3J8Hw+Yf4IfNTlKMChl2rcemkMpNNRnyzR8mO2nIcZ+s97o17H5UfHnrrldpO6aXn7BFeY0sqDknTW3H8B6C3xjogNQZjB8FiPuC9t2qnjV9ttHivPfjmWn8MrQmancWemoyuQ8J8Z6EeNEZ4RSIiovYva0EEIiKadmN2FxERERHdKZoR8NLj5r+UAei7/xt6+MtDed4+9A4M3wnTv1SgquIIfvr0U5Tr9ah22YicYnPFbciRbpPg6Ojb35faGpa4P3y6XcYFc1CrQYdw4YoyacvZcrTlwMdERERERERERCRrRsALqNQdwTWpB7Du6DM9BX2nPAf/yf+JgQtS0FMKgOlx8+tPcdtlXd0ofXOZmzSKTRWVZ5xXmz3WsDG4t6cR5fbesL8P1Fcu1GSHERERERERERFR22hWwAtXPsTFLy5BSt7q1B0+AwehZ/9e8BSme/+/SMg5Xy706L3oDYuMrJlDHc7wqjUGL6/fpvTnJTZ1VGPEzKSapoi/f7F2Wv3ApNq+w158BiNwCgdrssH6I6ymz64ZWBnRH2ePs9N6IqLWxA7riYiIiIjIluYFvHBb6rfr/zb9DReOfYfyKzdw80c9DJ++g//b/KEcCHOlz1OR/VVvTDI3aRwq9qTVPO8tno49V0ZggfKak/xqs7SMX5VjqFK+4IHL2DO3tn8v8Z1P4Rl5PXImofdX62pHkiQiIiIiIiIiojbTKTBwkNQoker6/aptCCtdh7i3bDRSfDQJWQk+KIh9Be8pRUTUsVRWuqytNhEREREREblYMzO8iIiIiIiIiIiI2hcGvIiIiIiIiIiIyK2wSSMRkRPYpJGIiIiIiKj9YoYXERERERERERG5FQa8iIjILYybXYEjmbcwS60UEBERERFRh8WAFxERuYFqTAm9id79f8TStyoxTiklIiIiIqKOiX14ERE5oaP24dWtfwjCRg+DprsKHuJfJrdvoPSHr/HZP46j9LY8T5tR/4ycdw0I9QUqvtAgIvku6JWniIiIiIioY2HAi4jICR0v4OWFoInT8Nh9KuWxFdNFfPb+bhTfUB63laBKfPqmAQNVXXB8kwYR25RyIiIiIiLqUDx69er1R2WaiIgcVFX1szLVMXgFT8KTw3oAplIc378be/YfwpdHvsL/llxB174B8FN3g7aXEd+eKkWVskybKL0Lp7t3wtODjbgn0AN35alQ2NaZZ0RERERE1OrYhxcRETXCB8GDNcJ9Fb7/fCcOnimHqVp+xlT+PT778DNcvA149A1CkJ0EsNZUmOmNAwYPQH0VT81hEjMRERERUUfEgBcRETWiD/x6iPcGXDgjFdRlKsaZy+KEBvf2l0raWGcs+7SbcF8F7cM3MU0uJCIiIiKiDoQBLyIiakQlKqVmgX7w85cK6jFcuSbd+/b0ke7bmv6Du3HcJEz0vomnfiOXERERERFRx8GAFxERNeJ7nDOI9yoEPfYEhvbxgodULpT49MPQ3zyFJ4aIGVUCj7vk+7Zm9IS+VJqAdphUQkREREREHQhHaSQickKHG6XRZziemvIINI300XXt253YdkiKNLW5+BWlWBpyAxVf3ItfJ5tDdERERERE1BEww4uIiBpXfgy7PsjH1+fLYbIYhrHqeinOHc3HP3+QC29cr5Du2wVlPbv3bNNxI4mIiIiIqA0ww4uIyAkdLsOrQSoMnzIHj9xjQvGebHx2XiluY/EppVj68A3guz64b2E7GD6SiIiIiIhaDTO8iIioeXyCMfge4f72BVy4KBe1JxVX2JyRiIiIiKijYcCLiIic5+mPsRNHQRyb8cbpb3G6Wi5uD37d54Z0f9XAgBcRERERUUfDgBcRETWRB7y6aXD/Q09g+uzJGNpDKLp6HPkH21N6lwkD/cX7bjj9hVRAREREREQdCPvwIiJyQsfrwysIk+c9BimGZMV0+Tg+3XcQ5+SEqnZBO7sCB6eXA5f9kPR7L7yvlBMRERERUcfADC8iImqyqls3UPrDcRzcvQ3Zue0r2AX8gqVh14R7D+i/6MpgFxERERFRB8QMLyIiJ3CUxvZLO70Cn84uR5ervbDi39XYoJQTEREREVHHwQwvIiJyH0GV2Bhbji7oiq+3M9hFRERERNRRMeBFRETuQf0zcv5YioEqD1R84YvncpVyIiIiIiLqcBjwIiIiN/ALUlf9hFDfKlSe8cNzyXdBrzxDREREREQdDwNeRETkBjrh42+7ouKMBi+92AUHlFIiIiIiIuqY2Gk9EZET2Gk9ERERERFR+8UMLyIiIiIiIiIicisMeBERERERERERkVthk0YiIiewSWP74OXlpUwRERERERHVYoYXERERERERERG5FWZ4ERE5gRle7YM5w+vGjRvSPRERERERkYgZXkRERERERERE5FYY8CIiIiIiIiIiIrfCgBcREREREREREbkVBryIiIiIiIiIiMitMOBFRERERERERERuhQEvIiIiIiIiIiJyK50CAwf9okwTEZGDKitvKVN3MK+hCJ8Vg8iHAnGPl/C44hukz12FQ/KzNnkNicIf5oRjpL8PPD2EgqrbuHHlLA5u/y/89VC5PFMr8vISVxy4ceOGdE9ERERERCRiwIuIyAl3csDLZ8QkTHtqAkYH3gMvMWhl1kjAyytsMdb8YQR8lMd13cCp3JVY9rdTyuPWwYAXERERERHZwiaNREQdylDMfHYmxgWJwa7b+PHYHuw55kCwyCsKS56Vg123L3+Dv636A2JiYvCHVzJxQH9bnAGBk5/FTK00NxERERERUZtiwIuIqEM5jtyjZ1F+5gD++vo8PPenLTgjxqsaMWJuOAI9hYmKb/DXl1ch9xu5+aL4Opkv/RcOXRYeePZHyFNDpXIiIiIiIqK2xIAXEVEHc+Gvi6XMrPwTjjYDHIpHA+SGjBe+2IIDVosFTp6IQKWd4z0BY3GvPElERERERNRmGPAiIqJGjMK9vcX7H3H2yAWpROaD8MR38NqMEbhHzP4SeflikDJJRERERETUVhjwIiKihnl5Qo5n3UD5MWkC6BWORWnp+I+H74FnVTmO7/sGP4rl3X3QV5qBiIiIiIio7TDgRUREDXvgHvgqkyKfMfPwX//1H3iojydQcQq5byzC8o0XwHESiYiIiIiovWDAi4iIGna2DNelCU/0nvtfSF84DvfeDdw4nYvlicvwN7EvMK0XvKR5iIiIiIiI2h4DXkRE1DD9DSV76148NP5eeAqPzu5bgwVL/4bj5rSuAF94i/cV5TgvFRAREREREbUdBryIiKgR/4cfy5XJWxdw4L8WYPHGL+s0YRwxor+c4VV2AYelEiIiIiIiorbDgBcRETXiS3x7Tg5v3TZ8gzydZahL4DUJk4f7SJMX/m8/+/IiIiIiIqI2x4AXERE1Kv9vh6VRGD3vm4Rlf5yJcf5yj10+I6KweHUMhooPK75B3vYLUjkREREREVFb6hQYOOgXZZqIiBxUWXlLmbrzjHnpr1j4QGNdzN/AN+v+A6s+Vx4KAmeuwmuT+sNTeVzH7R9x6N3FSC9o3fwuLy/5c9y4wbwyIiIiIiKqxQwvIiJyyKkti7EwPR+nLlsEl6puo/zMAfx1ZesHu4iIiIiIiOxhhhcRkRPu5Awvd8IMLyIiIiIisoUZXkRERERERERE5FYY8CIiIiIiIiIiIrfCgBcREREREREREbkVBryIiIiIiIiIiMitMOBFRERERERERERuhaM0EhE5gaM0tg/mURqJiIiIiIgsMcOLiIiIiIiIiIjcCjO8iIicwAwvIiIiIiKi9osZXkRERERERERE5FYY8CIiIiIiIiIiIrfCgBcREREREREREbkVBryIiIiIiIiIiMitMOBFRERERERERERuhQEvIiIiIiIiIiJyK50CAwf9okwTEZGDKitvKVPUvmjh/VQahgxXA+VFOLH+ZVxv613lvxzD4kLgrTw0u/7lany774DyqKWNg+a5l3G/D2DIm4jvv1aKXS2oEp++XomvXuuOpGKljOpT/4yNa6+jx94emLKjk1JIRERERK7EDC8iInIjE9F7uFr6cuvsE4zeQ+RSagVisOtNAwb2uIkHHutY/6WFxK9E5tZd2JocppQ0bNT4SjzgX4FRcVeQM0EpJCIiIiKXYoYXEZET3CLDq3M3+Ac/hEeGDYSfl/D42nHs3HYQpfKzdnXzH4WHQodiYC9pIRzP3YaDl+Xn2l47zPCy0v33+zBkgJtleKl/Rs67BoT6AhVfaBCRfBf0ylP1qIMRGT8b0aMHQNNDJZdVmWAs1aMofzPW5ehQJpaNT8GOF0Mg7EkHlCA3YiGylEetLW7tXkQJ+9R4OBVTUwqU0oaNm1eBzKhydDH54P2XmBFHRERE5GrM8CIi6mA8evTDqMejMfPZ6Zj8kBLsaoxnN/Qb+TiiZ87D9MkhSrCrPdLj+q5ofPn6RHz5TvsLdrmrF5PLEOpbhcozfniugWCXengC0jevREJ4UG2wS+ShgloTgNCZSUgcr5S5uQOZ3fHmF2pAVY5pr9zENKWciIiIiFyDAS8iog6lG0aFP4GQgX7wggmlJz/DZyevKc/Z121EBJ5QgmOmy8X47LNiNL4UdQiPGzE7+KZQMXywa3UX2M1Z6x+HVa9HIqCrMF1lRMmeNCyaOxURERGImLUQKzbkoej8FdyW5wb2J2Oq+JzFLfeM/JSYSWVZHtGG2V3NsSHZB4VXhQnNFSxMZMI9ERERkSuxSSMRkRPu5CaNquGT8bT/BRQc+hoXrwF+Y6Yjeli3hps0qoZjctS9uPCPg/haXKj3WEyPGopu7aRJo7mZYF0lOPH6fFQoj+oyN/GT5zEOWob+vw1Br14q6Z+g2z+VoOSDpSg3SI3rbPBFlxGL0HdMMHr6quAhLFT9sxEVxQfxw/71uFluVOarz6EmjaPW4eHIAKBch6PvLEOlUiwzr7sR32dFw3BRKTbrHAx12ALc96AW3nfL/2xVm0z45S55PW03aRQ+z0Ov4f7QAHTvLm+Dqltl+LFwG84f3I0qeSYbfsE7WRfxOy1w+cCv8OAqcUnbIt/YgYSRasCkR95ri5BxzP42sqdJTQf9wpDw8myMC9RArSSTmcpKULBtHdL22Gs/6Iuw+cswe6xlc0sjDMWHsHPLBuTVrHMc0vdGQdhDjTuTi4gF9sNx2ukV+HR2OboYe+KtKG+kK+VERERE1Dz2f5kSEZFbMh3bjW375GCXw0zHsHv7x3Kwy630Qa+ojRgRMwa9lWCXyLNXAILi/4ye1kMrijpPQK+4TRj5ZIi0jBhEkorvUsNn2AQEPPyQXNAWvONx/6LV+PVYLborwS5RZ1XtetY3GN1jNiF44mD4KMEukcfdvvjV+PkY8ft4eChl9Yy6hVBtlVA/uuHjdLtvAKhnYfxQuTeussNZTgW7miQoDumZSYgcWhvsEql8AxA+fxXS44OUEktBiFubjaRJ1s0t1dAMDUfC3FilwLX027xRKAaM1dfxxGy5jIiIiIiar4Ffp0RERHeGivcm4ovXlVuWDteV8sapoRnWB563LqHkvXh5+cxP8JOYwNe5D/wfHiPPVkMN76j5CPRXAdVGGPZvwFerlPddsxz/u78EN03KrK0uBL1+Hw2Nl7BqP53EiY3zlW0Siy8zd8JwQ5nNikfoywgapEJnYRt8/8EyeZkV8fjqAx2uCNvBc0A0BoQOVuau63fht9BbnDhzN9Y3FMMKH4wBUgzJAF2OTipqOUFIfDFKajppMuiw+bUZUrPHqXNXYPNhA0xQIWDKy0i0jnlNmo0J4kqa9Mh/ZyFmKM0lZzy/Aln5xSirU6mysLCmOWVDTS2FWwPZXbLO+PikGFk1YeiDbVZ5iIiIiNwOA15ERNSx3SrBiYxncPmM0tW64c84p2QgefcZIt3X6LUI/YaIkRsjfsiehe8P7sRtc4zi+iEYD85Hyf7WGnnRypDpGHCPcH/rJE789wuoOFcil6MM1YbTuGEzljIZ9zzcR/gxYIT+g/kwnFCCUdV63D6xDN/tKpKaU/Ya/qTNLK8x98pRNP33nvZHZRT5eUOKd109hxNnpZKWM2k2xvgL98YibF6QjO1H5GapxvOF2J6yAJuPiRtCg+Ang6XyGv7e8oiQpSexb1+JPFKkoOxUIXLTFmHG4pbrJez9kyq52armNuKlEiIiIiJqLga8iIioQ7u8PwkVVilhlT9eUqbq8hgegO7CffW5/TBcaOFmeU3UpX8/KShVWXwQ16vlskbdMwK9xOSiihMoPWPj83x3GuXi/T395GBQHVXQasTevbygP9lJLrIjzL+PMiXmMbWs0FHyuhpPHkBuvY9kRG6JHJrT9AuR7msc08Mg3vuHY3nGUsQ8orXxmVvIJ574UbzvUYVAqYCIiIiImosBLyIi6tCqqx0PXKk1cuDmxqUTcDSm1Fq69JTDMxUX90n3DunTB17iffcQjHxtHx6ud4uGRprRFosxb35W7u0osWgPKGV6taAhfr7SvfrBROzdu7f+bYqdruYPp2J1TjHE2qDuH4pZyzKxY9dWZL6RiKgH5ddsMcKbygMT3Ib2N9IEERERETUTA15ERESOuku5b8eaEsATP09zfgjc7WD0Sm9UAl49+mBgS6dN2e1hv3HFWxZh6qxU5B4ugUHcjCpfaEeGI+71rdj6RhRsdXVPRERERO0TA15EREQOqiyVg0ldvWub6LU+FTrb+vZWsqzUPa072hd07gmVreDUpStyB//lOhyVOri3d5uPCmkBS51wy9w+sbFA4NdKc0FoEfyMVppqKacvy/vIZgfyljd7ncmXFiArZSHmTBU7uk9D7lGxo3vAd+QszJ0mz9JyPKH/hzJJRERERM3CgBcREZGDKs+dg9hrlUfQBPQU+75qKbdM0vuIUaq6X9SD0T1mPrRiR2JWjAa53zHv+x6qv8z02bhXarto5eIJXBOjOT4D0b2XXOQ4D1yWena/Ae1gi+aNthw9gJNyxAva3yYhrgVTpQq+00sBKnXAWFj10tVkxvP5yHp1AfKljvZV0AwKlcrrkXYW4Nm1pzzRVBN+hjjeAK564JRUQERERETNxYAXERGRo07sx3kxJapzHwz8w0b8asQEdDZnTt09Buqx6xAwfpxS0AwXL+GaeO81GH0fVV7v7gnoNWs1ggZZB8FkVcdK5Cyse8chYKywXuJMPWOhiROWGaBCtc1Oxz7CjyfEjChfBDwrfx6Pu5U2h5218OgXi95RGxFo5zN9+n036V77byY0nLelw7ocndQ/FlQBiHojGyufDUeAn/Qk4BeA0CmJWJOdiaXjlTJnfXQQJ8U38gvFq9krETcxCFrlI6n7BiE8Nsnm+4QtyUT2m0mImRhcu17idpkYj2Bx1EeYYDhdKJVa012Qo3mq4dFYGRta836O+t1IkzQYAv7liQ1SCRERERE1V6fAwEGN/C1LRETWKitvKVN3Hr8x0xE9TA5U2HcNx3O34eBl5WHvsZgeNRSNLvXtTmw7VKo8ai3xuL/BztVl179cjW/3HVAejYPmuZdxvw9gyJuI779Wis1GrcPDkQHAmZ344j2rEMS9L2PQjHHoebfy2Erd9wG6TNyJkQ81FgEpwYk6zQa16B6zDkMG1W+HWP2TDnpjCO7rZ8T3WdEwXFSegBreT+dg2JD6y1R+txPflU/Er4X1qPd5O0+AJuEF3N9AcpL1Z6rx8A0cSSlFb3TH3+f54DkpE8q+oPh0rJoS0EDH9Ubo3pqK5P3KQytxa/ciaoDcXHFqSoFSWp86PAXrE0Ngv6v5+u8TlrwDSaPt7yfTmVwsXpCFYuVxHf3jkJ4WhQBbH0xYzm7zSUk1Nr53HuN6q3B8Wx9EbFKKiYiIiKhZmOFFRETUFBdW47u01Sj+Wo+KW2K4QlZtMqL82904td9GYKjJhNf+m/Ae35XhtvIG1T+X4fLBTfjqv5fBaHNURCOuf/Ay/vdLPW4qz1ebyvCvfatxdPsG+wMpVn8CQ8bLKNp/EuUVptrRJ6tNqPxJD/3+Dfg/e5/pi64o1Iu9xFcgdEbj41YWb1iIGYszkH/cAONNpVBUZYLRUIz8DalIsxPsagpjfjLmmt/H3M+YyGRC2fkim+9TsG6d3Fn9VcsFhEXK9NDtTMUce8Eu0dksLH5tMwrPlsGkNG90lDbqBkJ7CxNGb3zMYBcRERGRyzDDi4jICXdyhheRK2mjruPTeVfQxdQdf3/JB8/ZjQpRfdXYuPlfGKfxwOlcDR7P7KSUExEREVFzMcOLiIiInKbP9cbm4i6AqgK/e6ESLujBrMOITynDOE0VcNEHKxjsIiIiInIpBryIiIioWVa80guFZR5A/1K8k/JzIx3Yk2jcvAq89LARMPng/dV3wxUNYYmIiIioFgNeRERE1DzGuxD7Rz+cNlWh+8M/IWdREzuy6mgev4F3osrRBWoUru2OJDYDJSIiInI5BryIiIio+Yq74JmV90Bf1hWFe8WO7MmuL1T49rI3Ctf2QuwnShkRERERuRQ7rScicgI7rSciIiIiImq/mOFFRERERERERERuhQEvIiIiIiIiIiJyKwx4ERERERERERGRW2HAi4iIiIiIiIiI3AoDXkRERERERERE5FYY8CIiIiIiIiIiIrfCgBcREREREREREbkVBryIiIiIiIiIiMitMOBFRERERERERERupVNg4KBflGkiInJQZeUtZYraFy28n0rDkOFqoLwIJ9a/jOttvav8l2NYXAi8lYdm179cjW/3HVAetbRx0Dz3Mu73AQx5E/H910qxqwVV4tPXK/HVa92RVKyUua0wpOQkIaQHUPJhBBZuUIodof4ZG9deR4+9PTBlRyelkIiIiIhciRleRETkRiai93C19OXW2ScYvYfIpdQKxGDXmwYM7HETDzzWHv5LC0HcG5nYumsrUsYrRe3EqPGVeMC/AqPiriBnglJIRERERC7FgBcRUUfVuRv8Rz6O6JnzMG+ecJs+Fn7KU/Z49RmFx5+eibh4ZZm4mYh+fCj8PJUZ2tw+XD5mRLUwVV1ehMsn5NI2dXEZvn19Ir5QbifOKOXuRP0zcv5YioEqD1R80QvPZDaQtaQORmTiGmTn7MLevXvl2+5d2JGdjqWxIfBVZmu+YASP1MJXpVIetx9f71bjuVwfVMKI0AUVSA1SniAiIiIil2HAi4iog/Ho0Q+jHo/GzGenY/JDA+HnpTzRIA/4j5mGmb8LwcBeXvAwf3t4eMFv4FhET38CQQ69TkvT4/quaHz5+kR8+U47aM7YQbyYXIZQ3ypUnvHDc8l3CXvBNvXwBKRvXomE8CBoelgEojxUUGsCEDozCYntLBurpRzI7I43v1ADqnJMe+UmpinlREREROQaDHgREXUo3TAq/AmEDPSDF0woPfkZPjt5TXmuAdowTBjmA1TfwLlDu5C9IROZG7Lx/v8U45qYTnV3P4Q86C/PSx3L40bMDr4JmHywa3UX2O2VrH8cVr0eiYCuwnSVESV70rBo7lREREQgYtZCrNiQh6LzV3BbnrtD2JDsg8KrwoTmChYmsktVIiIiIldip/VERE64kzutVw2fjKf9L6Dg0Ne4eA3wGzMd0cO6AdeOY+e2gyhV5rPm/5vJGFC8Gwd/VAoU/o/NweQgVaPLt6Tuv9+HIQOUBzVKcOL1+ahQHtVl7sRdnsc4aBn6/zYEvXqppH+Cbv9UgpIPlqLcUCbPXo8vuoxYhL5jgtHTVyVlvFX/bERF8UH8sH89bpYblfnqM69rg53Wj1qHhyMDgHIdjr6zDJVKscy87kZ8nxUNw0Wl2KxzMNRhC3Dfg1p43y3/s1VtMuGXu+T1tN1pvfB5HnoN94cGoHt3eRtU3SrDj4XbcP7gblTJM9nwC97JuojfaYHLB36FB1eJS9oW+cYOJIxUAyY98l5bhIxj9rdRHX4hiPp9FCaEDIZGWDeVh1xsKtPjyEcZ+PP7Rah5pfh07J0ibDcH2O1oXmxyGT8b0aMH1GahmcqgP3oAOeuyUFBTwc2d1huhS5uKNFMCXo8PR4BQH0SmshLkr12MjH82/Dm10yvw6exydDH2xFtR3khXyomIiIioeez/MiUiIrdkOrYb2/bJwa6muPiP+sEu0cUf2yLE5Sp90CtqI0bEjEFvJdgl8uwVgKD4P6On9dCKos4T0CtuE0Y+GSItY27e2fkuNXyGTUDAww/JBW3BOx73L1qNX4/VorsS7BJ1VtWuZ32D0T1mE4InDoaPEuwSedzti1+Nn48Rv4+HEmOqb9QthGqrhErVDR+n230DQD0L44eqpcmyw1mOB7sEcX9MQVx4MLS+tcEukcpXi9DZK7H2xRClxAWCZmHNRhtNLlW+0I6OQvQU5bEV1SPpyE6KrAl2iVS+AYh8eQ0SGumfS7/NG4WXhQn1dTwxWy4jIiIiouZr4NcpERFR4/x6dpMnbldaZSK1nor3ajuF/yJLh+tKeePU0AzrA89bl1DyXry8fOYn+ElM4OvcB/4Pj5Fnq6GGd9R8BPqrgGojDPs34KtVyvuuWY7/3V+CmyZl1lYXgl6/j4bGS1i1n07ixMb5yjaJxZeZO2G4ocxmxSP0ZQQNUqGzsA2+/2CZvMyKeHz1gQ5XhO3gOSAaA0IHK3PX9bvwW+gtTpy5G+sbimGFD8YAKRZkgC5HJxU5rMoI/dF8ZK1chHlTI6QmkDOeT0P+eXlDa8bGIkaaEmxYKDeRlG65KJEKjdC9ZS6rvdXP7gpB0ssxCBLjciYDinamKe83FfNeSkPuUQOui81361EjeHQAVMIyui3JmCG89ozX8lAirp5Ki5Ang+XZ7OqMj0+KkVUThj7YZpWHiIiIyO0w4EVERM7r7I+hA+SAl+H/itDEpLH24VYJTmQ8g8tnlK7WDX/GOSUDybvPEOm+Rq9F6DdEjNwY8UP2LHx/cCdum2MU1w/BeHA+Svbb7cWqZQ2ZjgH3CPe3TuLEf7+AinNyuAcoQ7XhNG7YjKVMxj0P9xF+DBih/2A+DCeUYFS1HrdPLMN3u4qkIGav4U/azPIac68cRdN/72m3o3qJnzekeNfVczhxVipxWNbzUzHv1TTkfl4MvRJUKzuVj7QX8uX3VGkw8FGpuFnUM2MRqhEmxCaXi+dgybvC60vvJ2yb4/nIelUsEx/bYCpB3msLkJyjE7a2sH5HMrDzqLyymn6NZ6C9f1IlB4s1txEvlRARERFRczHgRURETvJC0BMT5NEZrx7DwWN3ZnbK5f1JqLBKCav88ZIyVZfH8AB0F+6rz+2H4UJDKU2tr0v/flJQqrL4oJ1MJBvuGYFeYnJRxQmUnrHxeb47jXLx/p5+kBskWqqCViP27uUF/clOcpEdYf59lCkxj8lFjCbltVTw9JQmmmXyyAFSUM54fDcyiuUyR+n3La7XTLPgou06ZNMnnpBaC/eoQqBUQERERETNxYAXERE5wQP+Y5/CY31VgOkiPvvon23SWb0rVFc7HrhSa+TAzY1LJ+BoTKm1dOkph6QqLu6T7h3Spw/EeCW6h2Dka/vwcL1bNMSkJ9ssxrz5Wbm3o6SsNqIoZXo1hdiJfOIaZOfswt69ey1uUXCse3pHhGKgRl6zS2fzpPumMFU1M/gpLC43B74N7W+kCSIiIiJqJga8iIioibzQ77FpmDy0m3Clb8A//74bxXb6h3I7dyn37VhTAnji52nOD4G7HYxe6Y1KwKtHHwysnypmnzocKettdCLvcip48hcRERERkVvhzzsiImoCLwz8bTSeCBKDXRdx8INdOHZFeaoDqCyVg0ldvWub6LU+FTrb+vZWsqzUPa072hd07gmVrXjRpStyB//lOhyVOri3d5uPCmkBS51wy9w+sbFA4Nd6GKQJLYKf0UpTjtA+E40QX3HKiJI9aVg4y7LjeXOn9K5QAP1P8pS3b2OdzLckT+j/oUwSERERUbMw4EVERI7p3A1DJ03D4wO8gFvn8Nn7u3H8juyl3nmV585B7LXKI2gCeop9X7WUWybpfcQoVd0v6sHoHjMfWrEjMStGg9xnlPd9D9VfZvps3Cu1XbRy8QSuiUErn4Ho3ksucpwHLos9tOMGtIMtmjfacvQATsoRL2h/m4S4IHm6MRMGKcGxsweweF0+SizbzfqpHGwe6QlVD2WyAbpz8gpqQmIQ1ZQsNFeY8DPE8QZw1QOnpAIiIiIiai4GvIiIqHGdNQh56mmMFfvsuv49Pt3xccdpxmjpxH6cF1OiOvfBwD9sxK9GTEBnc9Tl7jFQj12HgPHjlIJmuHhJHvHSazD6Pqq83t0T0GvWagQNsg6CyaqOlchZWPeOQ8BYYb3EmXrGQhMnLDNAhWqbnY59hB9PiFlrvgh4Vv48Hncr0Z7OWnj0i0XvqI0ItPOZPv1eHqFT+28mNJy3pcO6HJ3YVRWgCkDUG9lY+Ww4AvykJwG/AIROScSa7EwsHa+UCc5dVZpn+gcjPkxK9YK6byiiEtOxIzuy0ffUSzEsFYKfXomYR7Q2Ot6vVfQ3YX5xQh2MuKx0JE4JhVZZwDcwHHHSOsuPXe13I03SYAj4lyc2SCVERERE1FydAgMHNfK3LBERWausvKVM3Xn8xkxH9DA5UGHfNRzP3YaDl+VHPg9Px7TgxpYRnP8MmXuaOMRds8Xj/gY7V5dd/3I1vt13QHk0DprnXsb9PoAhbyK+/1opNhu1Dg9HBgBnduKL96xCEPe+jEEzxqHn3cpjK3XfB+gycSdGPtRYylAJTtRpNqhF95h1GDKofg5T9U866I0huK+fEd9nRcNwUXkCang/nYNhQ+ovU/ndTnxXPhG/Ftaj3uftPAGahBdwf0/lsQ3Wn6nGwzdwJKUUvdEdf5/ng+fOKuV2BMWnY9WUgAYys4zQvTUVyfuVh+OXYuuLoZBDXVaqjDDeUkOttlrGgvbZdKRH236/kg8jsNBq1wbNXIPlsUF2A2N1lwlDSk4SQnrYfi0In3Wv8FlxJhcRC7KUQluqsfG98xjXW4Xj2/ogYpNSTERERETNwgwvIiJq1F0eygQBF1bju7TVKP5aj4pbYrhCVm0yovzb3Ti130ZgqMmE1/6b8B7fleG28gbVP5fh8sFN+Oq/l8Foc1REI65/8DL+90s9birPV5vK8K99q3F0+wb7AylWfwJDxsso2n8S5RWm2tEnq02o/EkP/f4N+D97n+mLrijUi5WjAqEzGh+3snjDQsxYnIH84wYYbyqFoioTjIZi5G9IRZpl4Gr/CixYlw99mbmzMIGwnQ3H85D2n8/gE6WZpD36dxcjeVNh3eUbULxlEZ5ZvBmFp4T1s1zkZhn0n29G1jblsQtpo24gtLcwYfTGxwx2EREREbkMM7yIiJxwJ2d4EbmSNuo6Pp13BV1M3fH3l3zwXGsn+N3RqrFx878wTuOB07kaPJ7ZSSknIiIiouZihhcRERE5TZ/rjc3FXQBVBX73QiVc0INZhxGfUoZxmirgog9WMNhFRERE5FIMeBEREVGzrHilFwrLPID+pXgn5edGOpMn0bh5FXjpYSNg8sH7q++GKxrCEhEREVEtBryIiIioeYx3IfaPfjhtqkL3h39CzqIq5Qmy6fEbeCeqHF2gRuHa7khiM1AiIiIil2PAi4iIiJqvuAueWXkP9GVdUbiXoxw06AsVvr3sjcK1vRD7iVJGRERERC7FTuuJiJzATuuJiIiIiIjaL2Z4ERERERERERGRW2HAi4iIiIiIiIiI3AoDXkRERERERERE5FYY8CIiIiIiIiIiIrfCgBcREREREREREbkVBryIiIiIiIiIiMitMOBFRERERERERERuhQEvIiIiIiIiIiJyKwx4ERERERERERGRW2HAi4iIqL2JT8fevXuxNycFYUpRWwhL3iGvx9o4paQ+bexK7NgtzLN7B1bGapVSovYvPuUKjqT8jHZTa8cnIXuncCzt3YXsF9vyyCdbxs2uwJHMW5ilVgqIiKjdY8CLiIioibRTkpCevQN737YfCOooJowJhtpDmPBQI3jMBLmQ2pEQxL2Ria27tiJlvFLUjrTVsRSf8hOWPnwdvf+tEhPbSQAj7NEQaLqKUypoHhjXeLC7fxSS3s7Gjt3paNmt177rUOtsh2pMCb2J3v1/xNK3KjFOKSUiovaNAS8ioo6qczf4j3wc0TPnYd484TZ9LPyUp2zx6HE/QiZGY+Z/KPMLt7g50zB5TBD8PJWZOoiA4SEI0AhXyWKgp4P75FARjFXCRJURRYc+kQupHQlG8EgtfFUq5XH70hbH0rh5FXjpYSNg8sH7f1RjgzDZHhR8roPhpjhlguGrAyiQShswIBghgRo54Nyi2ncdap3t0BnPLeqFwjIPdBlQinfaU2YgERHZxYAXEVEH49GjH0Y9Ho2Zz07H5IcGws9LeaJBfnhkUjhG3ecHL4vglofKB/7DHkP09CcwsJ1eC1HL0ucswdTJEYiYPBVLcvRKKVE7FXQLy6PK0QVqFK7tjqRipbw92J+KOdHCsRTxFOa81Wi4i1qb8S7E/tEPp01V6P7wT8icrpQTEVG7xYAXEVGH0g2jwp9AyEA/eMGE0pOf4bOT15TnGlZpLMXpLz/G+9mZyMwUbhuy8f7/HEepSXjy7n54ILibPCMRUbv0C1KfL5cycyq+8EEsExKpqYq7YFmejzBRiaFPX8eL7M+LiKhd6xQYOOgXZZqIiBxUWXlLmbrzqIZPxtP+F1Bw6GtcvAb4jZmO6GHdgGvHsXPbQZQq8zlKM3YmnhrqhWvf7sS2Q01d2rXUwyMRPzMaY8TmLUrGmalMj6L9OUh7twBlcpFCDW14LOImjcGQvsL8Ut85ApMRhlMHsGl1BgpqPk4YUnKSENJDediQqzqkxibbaI7ki7BnExE7PhhaX2XlqoT3Kj6EnVs2IO+YRbsqsdP6KQHA2TxMfekQJr+YgOgHtXKTHWEZ/ZEc/DklF65LTlEjeNoLSHjyQYt1M8EEFVTie57JRcSCLLlcZF4/KyUfRmDhBuWBTbbfp0xfhAN/S0NWQd09ZMk3LA6J/z4OwVpfeZ0ERkMxDn24CRs+KoJ1qzT18Bi88IfJeNBifqku5G9C6qZCi/m1SFifici+wvPFm/HUou1KuSUtErMyEe4PlH2ejBkrdUq5SNiv85dh9tgB0PRQPtPNMpR8noN1aXn199H4FOx4MQRqZZv6hiXg9fhwBCjbw3heh5w1ychtzs61s39ssb3PmviZJDaWsVm/m38s2d23No9zC5Ov47sFV9DF5IMNMd2xwl5TRvM+QglyIxbCouZL4tbuRdQA621n/lzyMgejl+KFqNp6biorQf6G15BhXcdr3qsu4+FUTE2pfxYRB5JIGu1IlMUI3VtTkbxfedhUbVKHHD8/NHc7OF2HJNXYuPlfGKcB9Lv9MXZtJ6WciIjaG2Z4ERF1MKZju7FtnxzscoUuXe6S7qtMldJ9WwmauQYbVyUgfGhtsEuk8tUiJDoa0crjGuOTsCYxSu77xRzsEqnU0AyNRFLmGsS46t97dTiSsrORFB1SeyEn8hDfKxyzp4QoBdY0eOG/V2LWaCXYJRKW0Y6Ow/LXw+tdJDsnCHFvb8XK2aFW66YEu1xGjfDk9Tbfx7d/CKLmJdrppFtYLikb2UnCvupfe3EqUmuCEB4rlCuPzeS6MAuhVvNLdWHaUmxcM0v41GZ6bPq8GGKiomrAQ4iRC+vqH41gf3GiDCf3Wwa7xG0n7NdJQbUX9aKuvggIT8CqtXEW72NFWJeoP6QLnyuyJtglUvcNQdyypY13WN5inPlMwjJrbSyj1O+EubFKQfOpw1Ow3t6+jZ6PxAY6VV/6/66ji3B/+Qtv+8GuZuuD4DezserZuvVc5RuAyKQ1SLRbIdyJM3XI2fND0zWnDsk6Y9mnYkZzFbQP38Q0uZCIiNohZngRETnhTs7wsuZ0hpfKB/1GPIrHg/2hEpbd9beDMFQrz7W20UnITg6DRpg0GYqQl5OBnHw9jGotgh6dgNlPB6AkbkndTI3xS5H9jAbnPtuN3H/oUHSqTLgS0iL0yQTMnxkMX2EWQ8ESzEktkue3UJNdYJ35ZJMaMWu2YlaQeBFnREl+Dja/lwudsKF9A0MxblIsJnTdiXkrLbI5rLIrjKfysOHNTcgv64nIl1ch4UFh7UzF2PzUItjKR2qKkKRspIQJW66qDMW7NmHd3/NRoqxb9IIkRAUK693g56zN2Gkww6t/AjIzIqFFGYq2rEPGR4XQG4Wt0zcIYybEIvqB28hJWFE/myd2DbbODIK09U7lI2fLJuQeEfaVXwBCH52M2N96Y6flckHC+6wS3kdYQNpua3OQL+xbdd9QTH42HjGjNcJrmVC8ZQYW5ZijHjFYs2sWglRi+VNCuVKs0D6XjcyJwjY6n4d5czNg7qksSChfI5abDNC9n4G0HB3KpDoUh/hpIdAI62DYtwhz3rHIZ7HO6LkpLPuBvCwmpWDt/BCh7tleD+fEIX1vFAIczPhx6jNNWokd84OhNumR/5dUbNpXImXIyPX7aUT3OYEZi23Xn6YdS7XZeGXHNmPd2t0oPC9WIvk4j30yBLc/mIcVNj+jCXt3X8JQlTcOJPfEM18oxbY0K8NLeShsv8K/voY/f6SHKiwRqxLDpTpZ9s8VmLG8UJmpPvNr28vwqqOR9XSdVqhDTp4fJE3aDs2pQxbUQn3aLtYnNQrf6IXYfyjlRETUrjDDi4iIHDd4cs0IjfPmTMMTIzWoPPcZ3m/LYJdwmTNrWqgc7Dqbh8VzliBLDHaJTxn1KN6XhSXWwS7R/hWYM2shkt/Nl4NdImH+wpwl2HREDoRo7rWXedUEo1/AZCXYpUt7BgvT5GCXqOxUIXLTFtYNdlkpO5KBuc9nIF+8KBPWL2/1AeGyTqDSYnCjmQiNiUFsqLTlULxtLhYJ20IMdonEdTt95bb8wBUGaNBTvL95DjrlYlZkPF+M/HeTMc/mxWwIXnhCCXYdScMzz6fJwS5RaQkKP0zDQqvlImeOkwILuJiPZeJ2U/at8XwhtqcswGapaZ0KQeNmC5e+Ztux/7hcPiDEOsdLi+jh4jYCSnSbaoJdwjth9qNiuRFFmxYgWbyoF4ulOpSMBVuKpKwxzcgnESyW23JTuEB/dU7NsmV7UnHgjPiECpqBoeJEK3PyM/l7ywG80pPYpwS7RHL9XmQ32NV0AdBIXQWacE6nBCpEynGenNBAoOI3P8v14qYK3zYU7HIFk7BfF8/Bio/k81BZQRpyjsrr6qsZIt27LyfrkFPnB2c0ow5ZMnpCL50rjdAOk0qIiKgdYsCLiIiawQPd+j+Gp6MfQz+HRntsCZMxYoAcUDq5J8Ml/VqZqpQJFzTpC34sQMoWw/kDyMpXLq4cdVWHTa/l1QQQJMbTuHJVmW6u8MFKEOAkDtZkO7WQwyehF690uwZj1n+vQcJEZbs0ZOQ4BPiJE3oc+Gu+FDxoWChG9BdDLyYUf7bBRl0wInf/Cfl17hmIMVKZLO9Tubxes0Zzc0ZTMXTbLNbg0RHoJ77V1RM48GH9NTPuLJGDYxptvSaXMgPyX12IrDoracTpy/JrqTqLO6aVOfuZjumFTyPwD8fyjKWIeUQrB8BcToeT/5IanyJ45nqsmR+u1A8HDP4Z3cV7gyfelwpajn7fYqv9ChRcvKRMuTln65Az5wenNKMO1dEJRy7IX3o9NOYvDCIiam8Y8CIiIsed3C2P0Cje/roFO/fqcO464NEzCE88+Qicum5orkcHSk1kgEso2SOVOEzsCD0lYyt27dqLvXtrb451huyYkHvl7CDjhRMW2UGOEy/NWsx9PeXAhEGPFh+wzrgdyzIKYBA+kMovCJHPpWPr7h3IfjsFceF2AiSjtFLmHq5ewomzUkkj+qGn9EK3ce1C/YttSb5eqCkClSe8pQLF/jwUiRkbqgF4yKLLqeB/D5bWwXh8PzZbvuQgjXxB3iMEiRZ1p/YmNgFryHVctxGdLUiZioiIiMabs7UEZz/T4VSszimWAobq/qGYtSwTO3ZtReYbiYgSm9+6jBHbl2WgQKpEvgialIj0zXuxIzsdKc+GQ9vAYav1UFJQhTtnjsOmMFXZqXsdgbN1yJnzg1Ocr0P1KHGu7j0Z8CIiaq8Y8CIiIufcvoFS/df4OOdTfC+2fOsxFKMGyE+1Kk9POJMLExQvdhiudITeksk0LsgSa3HVJilY0dKM+amYM2MJMvKLoC8TLjjFTs0DQxCVmImtGYkItb7YbPKvFG94Or0vddh0WAyFWDZrDMaEwXLzrBOf5slFZu74C6oZn6l4yyJMnZWK3MMlMIiVSeUL7chwxL2+FVvfiLLRSbmTjPlInTMDS/6Sj6LzZVI2ploTgJDoRGRuzkTiI7YjFlImI7W8ZtShJp8fnOVkHSIiojuPO/5cIyKi1lT9PS78JE54oIs4BFpr269k7MAbPUdKEw6IxOzwAClQZjLosHn5PEyNiJAya8Rb6mHXhX/MTdQ8e/SR7tsVc79rvn1Qv8coNXp29VSmXchYhLy0JZg34ylEzEpGVn6JFGxT9Q9H/H9a9XZVckUOxHXtBse2nrm5pye6yYl19YVr5de6eR1XpIJa+j3ChbZwLzZrnCVe846cACneVSqss3W/PuZ1u6pDqkXdqX9ryc7EXay5n6m0AFkpCzFnagSmzk1D7lGDlKHoO3IW5rp0KDsjij5Kw5K5M/DU5BlI3pCPEnHFu2oRPne+zT7TCm8qP3mFu9q+25yhhoq/nu1rbh1qyvmhWZpeh+ypuHIn/KtBRNQx8SubiIiap/P9uLeXOFGOS+elklamg17qQEiDkGlRjjV9MfczI1705CRj+z+VTu4lang3kg1iqhYv4wV3ezd68VzwnV666FcFTUCiy9JcXORrpe8l3wA81F8qqREUvwqzhrdwWkypTuq0f4N5kACtVW9X+5V+fVRBmPCcIxuvoKZ/ngGPJtjIKlIjZmKwVEdMP5ys34zz7CYcKhaWVw3AiCeB4N8Olpoz6g9vEmqZFfO69RiIsaPlovbNEyrzCIL2uPAzGc/nI+vVBciXmqKqoBlkuxP+phxLtpVBJw5esEEnH8P2+kw764EK8V5zG43G3sqMuC5NeMO7znGhRviy9Yi0OlbazO3bSpNn6/VsKa1bhxo9P5g1ezs4WIes/LrPDen+qoEBLyKi9ooBLyIico7KC37aUXgi5nHc7ykGEL5C0TXluVZVhJwjcq886uFx2Ph2IqJqOs32RcDEOKzMWok46bHi6yvKBa0aA8fHIFia2TzvViSMbDhsVnhazlyBfxiWJjbS6XHOfpyUr6IQ/kY2Vj5bO7+6byiiEtORuSRMLmhtRw8oozJqEPZKIsL7Cp/bLwQxydlYNUXOgHOZZ9dga0YKEqaEIkh8H4ka2kdiMC5Afmy4YB1WMo+eKKzhxFXIfiMO4YFKn1BqLUKnJCI9Yykst972T09KF62q/pFY/nZCzfzqvuGIe3M9ZkkjZpbhSN5miyCnmRGbPz8p7FuxWWMcxg2Swl0o2mOr16fdOFgsvoIvQpfI+7XmcwnrFjQxBklvZrfdvq1hDgirEPz0ykY6lHfuM4UtyUT2m0lSMLH2WBCPp3i5w39hixpOF0ql1pp0LAlH8ZqtmUiZH4XQobWfQzyOYsYPlB8b9PWDk6JPPJVO0W/hgcflIruOnoPYok48Lsb8QTk/iMfFG+uR+Igr+yRrps9PS31e1Ry/5mPD5Vq+Djl3flA0aTs0ow7VYcJAqW53w+mWHvWTiIic1ikwcNAvyjQRETmosvKWMnXn8RszHdHDpHHZG3ANx3O34eBl5WHvsZgeNVT4aW+b6fLX2LtLB4O5iVyrC8KsNcsRE2S+fLFWgtw6TWi0iHs7HVGBtkM6pqvCBVsPNVRnchGxwFbDG+HifGsSQm1dV4lNeWKT6wyhrw5PwtqEMKVz/fqMh1PrdlIen469UwJsvpb43ik5SQjpYYTuralIdmQI/QaoY4ULzZlB9YNbN4Vttu0KJjwbArXVdohbuxdRjfXXZr3u5s9kT5kOaXOTUW8gS3U4ktYmIMzexqu3jeQsHPuBCRNKPlyMhRvsjecZiZU7EhDc2QhjVzU8i7djxiJbwTGBsG4p6xMR0sD1db19Oz4FO14Utmm9OtlytM+mIz3adgCz5MMIYVsoD0ROfKaw5B0NDvRgEurPYqH+2N7iTTmW4pDe4GAAZdClzUWyndFQl799CbOCTKj82h+DltyllNoWtmwrkmzVIeG40J3pg5Chwh6ss+3Mx6WNbSoy13+rY6mxbSezX1fsrqdQY11xfjBr6Trk9PlB4fh2aF4dMtPOrsDB6eXAZT8k/d6rxUf+JCIi5zDDi4iInHPbhPIfi6HbvQ3ZuW0Z7BIVY/OiZ7BkUyFKDEapE2IzU5kehZuykKM8lumR9Uoyth81wGg975ZkzNlwAmI//PYVYMXzqcg7LiwvZRY0TOqMOU6Y/6geZTeVQpHJCMPxPKxbZ3Hh18qMOYuw+F0d9ObruyoTyk7lIXWecIFdppS5wrasms6o6+yfqwYU52dgib2LWamD6TlIFfvXktNuZMJ6Gg3FyMtMswoIGpG/fK5UF6znLzurQ27qnAaCXaI85H4tfPCuaqhhwsnP7QS7RMK6Jc8VO9kuhuFq3fcS61JRfhZS23DfmunfXYxk6+1hjxOfqWDdOrmzesv5BeL8up1C3bcb7BI15VjKQZa5o3HLeaXjKB8ZixsOVCz7/7xRKdx3GXYDyxuJMRUsX46sw/ra80OVfKyKx8UBOT20XShYvkA4Nqz2VQto6Trk9PlB4fh2aF4dkv2CpWFiOrMH9F90ZbCLiKgdY4YXEZET7uQMLyKijukXZGZfxET/KlTo/BGx9C5pkAKiptBOr8Cns8vR5WovrPh3NayT+YiIqP1ghhcRERERdQCdMC+zJ8SW2t1DypE6QS4lclhQJTbGlqMLuuLr7Qx2ERG1dwx4EREREVHH8EVXvJTrg0rcQOiCCqS2t5FTqf1S/4ycP5ZioMoDFV/44rlcpZyIiNotNmkkInICmzRS+9FYJ8y2uLZDa2ohNR3cN0XrdYZ/J4tP+QlLHzYKh4IvNizohhUXlSfcDs8PrvELUtN/xLRBlag8o8G8/+yCA8ozRETUfjHDi4iIiIg6lA3JPbGhyBuXi7pik9sGu8h1OuHjb7ui4owGL73IYBcR0Z2CGV5ERE5ghhcREREREVH7xQwvIiIiIiIiIiJyKwx4ERERERERERGRW2HAi4iIiIiIiIiI3AoDXkRERERERERE5FYY8CIiIiIiIiIiIrfCgBcREREREREREbkVBryIiIiIiIiIiMitMOBFRERERERERERuhQEvIiIiIiIiIiJyKwx4ERERERERERGRW2HAi4iIiIiIiIiI3AoDXkRERERERERE5FYY8CIiIiIiIiIiIrfCgBcREREREREREbkVBryIiIiIiIiIiMitMOBFRERERERERERuhQEvIiIiIiIiIiJyKwx4ERERERERERGRW2HAi4iIiIiIiIiI3AoDXkRERERERERE5FYY8CIiIiIiIiIiIrfCgBcREREREREREbkVBryIiIiIiIiIiMitMOBFRERERERERERuhQEvIiIiIiIiIiJyKwx4ERERERERERGRW2HAi4iIiIiIiIiI3AoDXkRERERERERE5FYY8CIiIiIiIiIiIrfCgBcREREREREREbkR4P8H9xE8VkRUudEAAAAASUVORK5CYII=;" parent="1" vertex="1">
          <mxGeometry x="480" y="1010" width="1212" height="503" as="geometry" />
        </mxCell>
        <mxCell id="KpCNFlwLWU9gzN0KZ0Ix-5" value="&lt;div style=&quot;color: rgb(212, 212, 212); background-color: rgb(30, 30, 30); font-family: Consolas, &amp;quot;Courier New&amp;quot;, monospace; font-weight: normal; font-size: 24px; line-height: 32px;&quot;&gt;&lt;div&gt;&lt;span style=&quot;color: #569cd6;&quot;&gt;cmake_minimum_required&lt;/span&gt;&lt;span style=&quot;color: #d4d4d4;&quot;&gt;(VERSION 3.20)&lt;/span&gt;&lt;/div&gt;&lt;br&gt;&lt;div&gt;&lt;span style=&quot;color: #569cd6;&quot;&gt;project&lt;/span&gt;&lt;span style=&quot;color: #d4d4d4;&quot;&gt;(Dependencies)&lt;/span&gt;&lt;/div&gt;&lt;br&gt;&lt;div&gt;&lt;span style=&quot;color: #569cd6;&quot;&gt;enable_testing&lt;/span&gt;&lt;span style=&quot;color: #d4d4d4;&quot;&gt;()&lt;/span&gt;&lt;/div&gt;&lt;br&gt;&lt;div&gt;&lt;span style=&quot;color: #569cd6;&quot;&gt;list&lt;/span&gt;&lt;span style=&quot;color: #d4d4d4;&quot;&gt;(APPEND CMAKE_MODULE_PATH &lt;/span&gt;&lt;span style=&quot;color: #ce9178;&quot;&gt;&quot;${CMAKE_SOURCE_DIR}/cmake&quot;&lt;/span&gt;&lt;span style=&quot;color: #d4d4d4;&quot;&gt;)&lt;/span&gt;&lt;/div&gt;&lt;br&gt;&lt;div&gt;&lt;span style=&quot;color: #569cd6;&quot;&gt;set&lt;/span&gt;&lt;span style=&quot;color: #d4d4d4;&quot;&gt;(CMAKE_CXX_STANDARD 23)&lt;/span&gt;&lt;/div&gt;&lt;div&gt;&lt;span style=&quot;color: #569cd6;&quot;&gt;set&lt;/span&gt;&lt;span style=&quot;color: #d4d4d4;&quot;&gt;(CMAKE_CXX_STANDARD_REQUIRED &lt;/span&gt;&lt;span style=&quot;color: #569cd6;&quot;&gt;ON&lt;/span&gt;&lt;span style=&quot;color: #d4d4d4;&quot;&gt;)&lt;/span&gt;&lt;/div&gt;&lt;br&gt;&lt;div&gt;&lt;span style=&quot;color: #569cd6;&quot;&gt;add_subdirectory&lt;/span&gt;&lt;span style=&quot;color: #d4d4d4;&quot;&gt;(src)&lt;/span&gt;&lt;/div&gt;&lt;br&gt;&lt;div&gt;&lt;span style=&quot;color: #569cd6;&quot;&gt;add_executable&lt;/span&gt;&lt;span style=&quot;color: #d4d4d4;&quot;&gt;(rooster main.cpp)&lt;/span&gt;&lt;/div&gt;&lt;div&gt;&lt;span style=&quot;color: #569cd6;&quot;&gt;target_link_libraries&lt;/span&gt;&lt;span style=&quot;color: #d4d4d4;&quot;&gt;(rooster PRIVATE calculator)&lt;/span&gt;&lt;/div&gt;&lt;br&gt;&lt;div&gt;&lt;span style=&quot;color: #569cd6;&quot;&gt;add_subdirectory&lt;/span&gt;&lt;span style=&quot;color: #d4d4d4;&quot;&gt;(test)&lt;/span&gt;&lt;/div&gt;&lt;/div&gt;" style="text;whiteSpace=wrap;html=1;" parent="1" vertex="1">
          <mxGeometry x="2160" y="1480" width="830" height="570" as="geometry" />
        </mxCell>
        <mxCell id="XACayWHpFkQcB1ReZ_Kd-1" value="&lt;font style=&quot;font-size: 20px;&quot;&gt;Catch2&lt;/font&gt;" style="rounded=0;whiteSpace=wrap;html=1;fillColor=#dae8fc;strokeColor=#6c8ebf;" vertex="1" parent="1">
          <mxGeometry x="750" y="1890" width="270" height="60" as="geometry" />
        </mxCell>
        <mxCell id="XACayWHpFkQcB1ReZ_Kd-2" value="&lt;font style=&quot;font-size: 20px;&quot;&gt;rooster&lt;/font&gt;" style="rounded=0;whiteSpace=wrap;html=1;fillColor=#fff2cc;strokeColor=#d6b656;" vertex="1" parent="1">
          <mxGeometry x="640" y="2030" width="380" height="110" as="geometry" />
        </mxCell>
        <mxCell id="XACayWHpFkQcB1ReZ_Kd-3" value="&lt;font style=&quot;font-size: 20px;&quot;&gt;calculator&lt;br&gt;main&lt;/font&gt;" style="rounded=0;whiteSpace=wrap;html=1;fillColor=#f8cecc;strokeColor=#b85450;" vertex="1" parent="1">
          <mxGeometry x="650" y="2055" width="120" height="60" as="geometry" />
        </mxCell>
        <mxCell id="XACayWHpFkQcB1ReZ_Kd-4" value="" style="endArrow=classic;html=1;rounded=0;" edge="1" parent="1">
          <mxGeometry width="50" height="50" relative="1" as="geometry">
            <mxPoint x="879.5" y="1960" as="sourcePoint" />
            <mxPoint x="879.5" y="2020" as="targetPoint" />
          </mxGeometry>
        </mxCell>
        <mxCell id="XACayWHpFkQcB1ReZ_Kd-5" value="&lt;font style=&quot;font-size: 20px;&quot;&gt;Catch2&lt;/font&gt;" style="rounded=0;whiteSpace=wrap;html=1;fillColor=#dae8fc;strokeColor=#6c8ebf;" vertex="1" parent="1">
          <mxGeometry x="1450" y="2200" width="270" height="60" as="geometry" />
        </mxCell>
        <mxCell id="XACayWHpFkQcB1ReZ_Kd-6" value="&lt;font style=&quot;font-size: 20px;&quot;&gt;rooster(main)&lt;/font&gt;" style="rounded=0;whiteSpace=wrap;html=1;fillColor=#fff2cc;strokeColor=#d6b656;" vertex="1" parent="1">
          <mxGeometry x="1340" y="2550" width="380" height="110" as="geometry" />
        </mxCell>
        <mxCell id="XACayWHpFkQcB1ReZ_Kd-7" value="&lt;span style=&quot;font-size: 20px;&quot;&gt;calculator&lt;/span&gt;" style="rounded=0;whiteSpace=wrap;html=1;fillColor=#f8cecc;strokeColor=#b85450;" vertex="1" parent="1">
          <mxGeometry x="1270" y="2270" width="120" height="60" as="geometry" />
        </mxCell>
        <mxCell id="XACayWHpFkQcB1ReZ_Kd-8" value="" style="endArrow=classic;html=1;rounded=0;" edge="1" parent="1">
          <mxGeometry width="50" height="50" relative="1" as="geometry">
            <mxPoint x="1579.5" y="2270" as="sourcePoint" />
            <mxPoint x="1579.5" y="2330" as="targetPoint" />
          </mxGeometry>
        </mxCell>
        <mxCell id="XACayWHpFkQcB1ReZ_Kd-9" value="&lt;span style=&quot;font-size: 20px;&quot;&gt;run_app&lt;/span&gt;" style="rounded=0;whiteSpace=wrap;html=1;fillColor=#f8cecc;strokeColor=#b85450;" vertex="1" parent="1">
          <mxGeometry x="1340" y="2410" width="120" height="60" as="geometry" />
        </mxCell>
        <mxCell id="XACayWHpFkQcB1ReZ_Kd-10" value="" style="endArrow=classic;html=1;rounded=0;" edge="1" parent="1">
          <mxGeometry width="50" height="50" relative="1" as="geometry">
            <mxPoint x="1370" y="2341" as="sourcePoint" />
            <mxPoint x="1370" y="2400" as="targetPoint" />
          </mxGeometry>
        </mxCell>
        <mxCell id="XACayWHpFkQcB1ReZ_Kd-11" value="" style="endArrow=classic;html=1;rounded=0;" edge="1" parent="1">
          <mxGeometry width="50" height="50" relative="1" as="geometry">
            <mxPoint x="1440" y="2480" as="sourcePoint" />
            <mxPoint x="1440" y="2540" as="targetPoint" />
          </mxGeometry>
        </mxCell>
        <mxCell id="XACayWHpFkQcB1ReZ_Kd-12" value="&lt;div style=&quot;color: rgb(212, 212, 212); background-color: rgb(30, 30, 30); font-family: Consolas, &amp;quot;Courier New&amp;quot;, monospace; font-weight: normal; font-size: 24px; line-height: 32px;&quot;&gt;&lt;div&gt;&lt;span style=&quot;color: #569cd6;&quot;&gt;#include &lt;/span&gt;&lt;span style=&quot;color: #ce9178;&quot;&gt;&amp;lt;iostream&amp;gt;&lt;/span&gt;&lt;/div&gt;&lt;br&gt;&lt;div&gt;&lt;span style=&quot;color: #569cd6;&quot;&gt;#include &lt;/span&gt;&lt;span style=&quot;color: #ce9178;&quot;&gt;&quot;calculator.h&quot;&lt;/span&gt;&lt;/div&gt;&lt;br&gt;&lt;div&gt;&lt;span style=&quot;color: #569cd6;&quot;&gt;int&lt;/span&gt;&lt;span style=&quot;color: #d4d4d4;&quot;&gt; run_app (&lt;/span&gt;&lt;span style=&quot;color: #569cd6;&quot;&gt;int&lt;/span&gt;&lt;span style=&quot;color: #d4d4d4;&quot;&gt; agc, &lt;/span&gt;&lt;span style=&quot;color: #569cd6;&quot;&gt;char**&lt;/span&gt;&lt;span style=&quot;color: #d4d4d4;&quot;&gt; argv) {&lt;/span&gt;&lt;/div&gt;&lt;div&gt;&lt;span style=&quot;color: #d4d4d4;&quot;&gt;&amp;nbsp; &amp;nbsp; Calculator calc;&lt;/span&gt;&lt;/div&gt;&lt;div&gt;&lt;span style=&quot;color: #d4d4d4;&quot;&gt;&amp;nbsp; &amp;nbsp; std::cout &lt;/span&gt;&lt;span style=&quot;color: #d4d4d4;&quot;&gt;&amp;lt;&amp;lt;&lt;/span&gt;&lt;span style=&quot;color: #d4d4d4;&quot;&gt; &lt;/span&gt;&lt;span style=&quot;color: #ce9178;&quot;&gt;&quot;add(10,4): &quot;&lt;/span&gt;&lt;span style=&quot;color: #d4d4d4;&quot;&gt; &lt;/span&gt;&lt;span style=&quot;color: #d4d4d4;&quot;&gt;&amp;lt;&amp;lt;&lt;/span&gt;&lt;span style=&quot;color: #d4d4d4;&quot;&gt; calc.add(&lt;/span&gt;&lt;span style=&quot;color: #b5cea8;&quot;&gt;10&lt;/span&gt;&lt;span style=&quot;color: #d4d4d4;&quot;&gt;,&lt;/span&gt;&lt;span style=&quot;color: #b5cea8;&quot;&gt;4&lt;/span&gt;&lt;span style=&quot;color: #d4d4d4;&quot;&gt;) &lt;/span&gt;&lt;span style=&quot;color: #d4d4d4;&quot;&gt;&amp;lt;&amp;lt;&lt;/span&gt;&lt;span style=&quot;color: #d4d4d4;&quot;&gt; std::endl;&lt;/span&gt;&lt;/div&gt;&lt;div&gt;&lt;span style=&quot;color: #d4d4d4;&quot;&gt;&amp;nbsp; &amp;nbsp; std::cout &lt;/span&gt;&lt;span style=&quot;color: #d4d4d4;&quot;&gt;&amp;lt;&amp;lt;&lt;/span&gt;&lt;span style=&quot;color: #d4d4d4;&quot;&gt; &lt;/span&gt;&lt;span style=&quot;color: #ce9178;&quot;&gt;&quot;sub(10,4): &quot;&lt;/span&gt;&lt;span style=&quot;color: #d4d4d4;&quot;&gt; &lt;/span&gt;&lt;span style=&quot;color: #d4d4d4;&quot;&gt;&amp;lt;&amp;lt;&lt;/span&gt;&lt;span style=&quot;color: #d4d4d4;&quot;&gt; calc.sub(&lt;/span&gt;&lt;span style=&quot;color: #b5cea8;&quot;&gt;10&lt;/span&gt;&lt;span style=&quot;color: #d4d4d4;&quot;&gt;,&lt;/span&gt;&lt;span style=&quot;color: #b5cea8;&quot;&gt;4&lt;/span&gt;&lt;span style=&quot;color: #d4d4d4;&quot;&gt;) &lt;/span&gt;&lt;span style=&quot;color: #d4d4d4;&quot;&gt;&amp;lt;&amp;lt;&lt;/span&gt;&lt;span style=&quot;color: #d4d4d4;&quot;&gt; std::endl;&lt;/span&gt;&lt;/div&gt;&lt;div&gt;&lt;span style=&quot;color: #d4d4d4;&quot;&gt;&amp;nbsp; &amp;nbsp; std::cout &lt;/span&gt;&lt;span style=&quot;color: #d4d4d4;&quot;&gt;&amp;lt;&amp;lt;&lt;/span&gt;&lt;span style=&quot;color: #d4d4d4;&quot;&gt; &lt;/span&gt;&lt;span style=&quot;color: #ce9178;&quot;&gt;&quot;mul(10,4): &quot;&lt;/span&gt;&lt;span style=&quot;color: #d4d4d4;&quot;&gt; &lt;/span&gt;&lt;span style=&quot;color: #d4d4d4;&quot;&gt;&amp;lt;&amp;lt;&lt;/span&gt;&lt;span style=&quot;color: #d4d4d4;&quot;&gt; calc.mul(&lt;/span&gt;&lt;span style=&quot;color: #b5cea8;&quot;&gt;10&lt;/span&gt;&lt;span style=&quot;color: #d4d4d4;&quot;&gt;,&lt;/span&gt;&lt;span style=&quot;color: #b5cea8;&quot;&gt;4&lt;/span&gt;&lt;span style=&quot;color: #d4d4d4;&quot;&gt;) &lt;/span&gt;&lt;span style=&quot;color: #d4d4d4;&quot;&gt;&amp;lt;&amp;lt;&lt;/span&gt;&lt;span style=&quot;color: #d4d4d4;&quot;&gt; std::endl;&lt;/span&gt;&lt;/div&gt;&lt;div&gt;&lt;span style=&quot;color: #d4d4d4;&quot;&gt;&amp;nbsp; &amp;nbsp; std::cout &lt;/span&gt;&lt;span style=&quot;color: #d4d4d4;&quot;&gt;&amp;lt;&amp;lt;&lt;/span&gt;&lt;span style=&quot;color: #d4d4d4;&quot;&gt; &lt;/span&gt;&lt;span style=&quot;color: #ce9178;&quot;&gt;&quot;div(10,4): &quot;&lt;/span&gt;&lt;span style=&quot;color: #d4d4d4;&quot;&gt; &lt;/span&gt;&lt;span style=&quot;color: #d4d4d4;&quot;&gt;&amp;lt;&amp;lt;&lt;/span&gt;&lt;span style=&quot;color: #d4d4d4;&quot;&gt; calc.div(&lt;/span&gt;&lt;span style=&quot;color: #b5cea8;&quot;&gt;10&lt;/span&gt;&lt;span style=&quot;color: #d4d4d4;&quot;&gt;,&lt;/span&gt;&lt;span style=&quot;color: #b5cea8;&quot;&gt;4&lt;/span&gt;&lt;span style=&quot;color: #d4d4d4;&quot;&gt;) &lt;/span&gt;&lt;span style=&quot;color: #d4d4d4;&quot;&gt;&amp;lt;&amp;lt;&lt;/span&gt;&lt;span style=&quot;color: #d4d4d4;&quot;&gt; std::endl;&lt;/span&gt;&lt;/div&gt;&lt;div&gt;&lt;span style=&quot;color: #d4d4d4;&quot;&gt;&amp;nbsp; &amp;nbsp; std::cout &lt;/span&gt;&lt;span style=&quot;color: #d4d4d4;&quot;&gt;&amp;lt;&amp;lt;&lt;/span&gt;&lt;span style=&quot;color: #d4d4d4;&quot;&gt; &lt;/span&gt;&lt;span style=&quot;color: #ce9178;&quot;&gt;&quot;mod(10,4): &quot;&lt;/span&gt;&lt;span style=&quot;color: #d4d4d4;&quot;&gt; &lt;/span&gt;&lt;span style=&quot;color: #d4d4d4;&quot;&gt;&amp;lt;&amp;lt;&lt;/span&gt;&lt;span style=&quot;color: #d4d4d4;&quot;&gt; calc.mod(&lt;/span&gt;&lt;span style=&quot;color: #b5cea8;&quot;&gt;10&lt;/span&gt;&lt;span style=&quot;color: #d4d4d4;&quot;&gt;,&lt;/span&gt;&lt;span style=&quot;color: #b5cea8;&quot;&gt;4&lt;/span&gt;&lt;span style=&quot;color: #d4d4d4;&quot;&gt;) &lt;/span&gt;&lt;span style=&quot;color: #d4d4d4;&quot;&gt;&amp;lt;&amp;lt;&lt;/span&gt;&lt;span style=&quot;color: #d4d4d4;&quot;&gt; std::endl;&lt;/span&gt;&lt;/div&gt;&lt;div&gt;&lt;span style=&quot;color: #d4d4d4;&quot;&gt;&amp;nbsp; &amp;nbsp; &lt;/span&gt;&lt;span style=&quot;color: #569cd6;&quot;&gt;return&lt;/span&gt;&lt;span style=&quot;color: #d4d4d4;&quot;&gt; &lt;/span&gt;&lt;span style=&quot;color: #b5cea8;&quot;&gt;0&lt;/span&gt;&lt;span style=&quot;color: #d4d4d4;&quot;&gt;;&lt;/span&gt;&lt;/div&gt;&lt;div&gt;&lt;span style=&quot;color: #d4d4d4;&quot;&gt;}&lt;/span&gt;&lt;/div&gt;&lt;/div&gt;" style="text;whiteSpace=wrap;html=1;" vertex="1" parent="1">
          <mxGeometry x="250" y="2700" width="830" height="430" as="geometry" />
        </mxCell>
        <mxCell id="XACayWHpFkQcB1ReZ_Kd-14" value="&lt;div style=&quot;color: rgb(212, 212, 212); background-color: rgb(30, 30, 30); font-family: Consolas, &amp;quot;Courier New&amp;quot;, monospace; font-weight: normal; font-size: 24px; line-height: 32px;&quot;&gt;&lt;div&gt;&lt;span style=&quot;color: #569cd6;&quot;&gt;#include &lt;/span&gt;&lt;span style=&quot;color: #ce9178;&quot;&gt;&amp;lt;catch2/catch_test_macros.hpp&amp;gt;&lt;/span&gt;&lt;/div&gt;&lt;div&gt;&lt;span style=&quot;color: #569cd6;&quot;&gt;#include &lt;/span&gt;&lt;span style=&quot;color: #ce9178;&quot;&gt;&amp;lt;string&amp;gt;&lt;/span&gt;&lt;/div&gt;&lt;div&gt;&lt;span style=&quot;color: #569cd6;&quot;&gt;#include &lt;/span&gt;&lt;span style=&quot;color: #ce9178;&quot;&gt;&amp;lt;sstream&amp;gt;&lt;/span&gt;&lt;/div&gt;&lt;div&gt;&lt;span style=&quot;color: #569cd6;&quot;&gt;#include &lt;/span&gt;&lt;span style=&quot;color: #ce9178;&quot;&gt;&amp;lt;iostream&amp;gt;&lt;/span&gt;&lt;/div&gt;&lt;br&gt;&lt;div&gt;&lt;span style=&quot;color: #569cd6;&quot;&gt;#include &lt;/span&gt;&lt;span style=&quot;color: #ce9178;&quot;&gt;&quot;calculator.h&quot;&lt;/span&gt;&lt;/div&gt;&lt;br&gt;&lt;div&gt;&lt;span style=&quot;color: #569cd6;&quot;&gt;extern&lt;/span&gt;&lt;span style=&quot;color: #d4d4d4;&quot;&gt; &lt;/span&gt;&lt;span style=&quot;color: #569cd6;&quot;&gt;int&lt;/span&gt;&lt;span style=&quot;color: #d4d4d4;&quot;&gt; run_app(&lt;/span&gt;&lt;span style=&quot;color: #569cd6;&quot;&gt;int&lt;/span&gt;&lt;span style=&quot;color: #d4d4d4;&quot;&gt; argc, &lt;/span&gt;&lt;span style=&quot;color: #569cd6;&quot;&gt;char**&lt;/span&gt;&lt;span style=&quot;color: #d4d4d4;&quot;&gt; argv);&lt;/span&gt;&lt;/div&gt;&lt;br&gt;&lt;div&gt;&lt;span style=&quot;color: #569cd6;&quot;&gt;TEST_CASE&lt;/span&gt;&lt;span style=&quot;color: #d4d4d4;&quot;&gt;(&lt;/span&gt;&lt;span style=&quot;color: #ce9178;&quot;&gt;&quot;Test run_app function&quot;&lt;/span&gt;&lt;span style=&quot;color: #d4d4d4;&quot;&gt;, &lt;/span&gt;&lt;span style=&quot;color: #ce9178;&quot;&gt;&quot;[run_app]&quot;&lt;/span&gt;&lt;span style=&quot;color: #d4d4d4;&quot;&gt;) {&lt;/span&gt;&lt;/div&gt;&lt;div&gt;&lt;span style=&quot;color: #6a9955;&quot;&gt;&amp;nbsp; &amp;nbsp; // Redirect std::cout to a stringstream&lt;/span&gt;&lt;/div&gt;&lt;div&gt;&lt;span style=&quot;color: #d4d4d4;&quot;&gt;&amp;nbsp; &amp;nbsp; std::stringstream buffer;&lt;/span&gt;&lt;/div&gt;&lt;div&gt;&lt;span style=&quot;color: #d4d4d4;&quot;&gt;&amp;nbsp; &amp;nbsp; std::streambuf* prevcoutbuf = std::cout.rdbuf(buffer.rdbuf());&lt;/span&gt;&lt;/div&gt;&lt;br&gt;&lt;div&gt;&lt;span style=&quot;color: #d4d4d4;&quot;&gt;&amp;nbsp; &amp;nbsp; run_app(&lt;/span&gt;&lt;span style=&quot;color: #b5cea8;&quot;&gt;1&lt;/span&gt;&lt;span style=&quot;color: #d4d4d4;&quot;&gt;, &lt;/span&gt;&lt;span style=&quot;color: #569cd6;&quot;&gt;nullptr&lt;/span&gt;&lt;span style=&quot;color: #d4d4d4;&quot;&gt;);&lt;/span&gt;&lt;/div&gt;&lt;br&gt;&lt;div&gt;&lt;span style=&quot;color: #6a9955;&quot;&gt;&amp;nbsp; &amp;nbsp; // Restore std::cout to its previous buffer&lt;/span&gt;&lt;/div&gt;&lt;div&gt;&lt;span style=&quot;color: #d4d4d4;&quot;&gt;&amp;nbsp; &amp;nbsp; std::cout.rdbuf(prevcoutbuf);&lt;/span&gt;&lt;/div&gt;&lt;br&gt;&lt;div&gt;&lt;span style=&quot;color: #6a9955;&quot;&gt;&amp;nbsp; &amp;nbsp; // Check the output&lt;/span&gt;&lt;/div&gt;&lt;div&gt;&lt;span style=&quot;color: #d4d4d4;&quot;&gt;&amp;nbsp; &amp;nbsp; std::string expected_output = &lt;/span&gt;&lt;span style=&quot;color: #ce9178;&quot;&gt;&quot;add(10,4): 14\nsub(10,4): 6\nmul(10,4): 40\ndiv(10,4): 2\nmod(10,4): 2\n&quot;&lt;/span&gt;&lt;span style=&quot;color: #d4d4d4;&quot;&gt;;&lt;/span&gt;&lt;/div&gt;&lt;div&gt;&lt;span style=&quot;color: #d4d4d4;&quot;&gt;&amp;nbsp; &amp;nbsp; &lt;/span&gt;&lt;span style=&quot;color: #569cd6;&quot;&gt;REQUIRE&lt;/span&gt;&lt;span style=&quot;color: #d4d4d4;&quot;&gt;(buffer.str() &lt;/span&gt;&lt;span style=&quot;color: #d4d4d4;&quot;&gt;==&lt;/span&gt;&lt;span style=&quot;color: #d4d4d4;&quot;&gt; expected_output);&lt;/span&gt;&lt;/div&gt;&lt;div&gt;&lt;span style=&quot;color: #d4d4d4;&quot;&gt;}&lt;/span&gt;&lt;/div&gt;&lt;/div&gt;" style="text;whiteSpace=wrap;html=1;" vertex="1" parent="1">
          <mxGeometry x="1180" y="3440" width="1450" height="750" as="geometry" />
        </mxCell>
        <mxCell id="XACayWHpFkQcB1ReZ_Kd-16" value="&lt;font style=&quot;font-size: 33px;&quot;&gt;Testing functions with output&lt;/font&gt;" style="rounded=0;whiteSpace=wrap;html=1;" vertex="1" parent="1">
          <mxGeometry x="1440" y="3290" width="620" height="60" as="geometry" />
        </mxCell>
      </root>
    </mxGraphModel>
  </diagram>
</mxfile>
